<mxfile host="app.diagrams.net" agent="Mozilla/5.0 (Windows NT 10.0; Win64; x64) AppleWebKit/537.36 (KHTML, like Gecko) Chrome/133.0.0.0 Safari/537.36" version="26.0.16">
  <diagram id="C5RBs43oDa-KdzZeNtuy" name="Page-1">
    <mxGraphModel dx="3605" dy="2622" grid="1" gridSize="10" guides="1" tooltips="1" connect="1" arrows="1" fold="1" page="1" pageScale="1" pageWidth="827" pageHeight="1169" math="0" shadow="0">
      <root>
        <mxCell id="WIyWlLk6GJQsqaUBKTNV-0" />
        <mxCell id="WIyWlLk6GJQsqaUBKTNV-1" parent="WIyWlLk6GJQsqaUBKTNV-0" />
        <UserObject label="" plantUmlData="{&#xa;  &quot;data&quot;: &quot;@startuml\n\nnamespace wingcg {\n    class WingCGInstrInfo {\n        +std::string instrName\n        +unsigned instrLen\n        +std::string syntax\n        +std::string binary\n        +std::string instrPattern\n        +std::vector&lt;RegOperand&gt; regRead\n        +std::vector&lt;RegOperand&gt; regWrite\n        +std::vector&lt;ImmOperand&gt; imms\n        +std::string instrFormat\n        +unsigned instrType\n        +bool isLoadInstr\n        +bool isStoreInstr\n        +bool isVectorInstr\n        +bool isJumpInstr\n        +WingCGType *vecVTP\n        \n        +WingCGInstrInfo()\n        +WingCGInstrInfo(name : std::string, len : unsigned, syntax : std::string, binary : std::string, instrPattern : const std::string, regRead : std::vector&lt;RegOperand&gt;, regWrite : std::vector&lt;RegOperand&gt;, imms : std::vector&lt;ImmOperand&gt;)\n        +static const std::string regWriteReadNameSuffix\n        +static const std::string builtinNameSuffix\n        +static const std::string intrinsicNameSuffix\n        \n        +void legalize()\n        +void dump()\n        +bool emitInstrRecordForFull(instrInfoFile : std::ofstream)\n        +bool emitInstrMatchForFull(file : std::ofstream)\n        +bool emitInstrMatchForStoreForFull(file : std::ofstream)\n        +bool emitInstrRecord(instrInfoFile : std::ofstream)\n        +bool emitInstrMatch(instrInfoFile : std::ofstream)\n        +bool emitInstrMarchForArith(file : std::ofstream)\n        +bool emitInstrMatchForLoad(file : std::ofstream)\n        +bool emitInstrMatchForStore(file : std::ofstream)\n        +bool emitInstrMatchForInstrinsic(file : std::ofstream)\n        +bool emitBuiltinHeader(builtinFile : std::ofstream)\n        +void genBuiltinFuncAPI(file : std::ofstream)\n        +bool emitBuiltinTestFile(builtinFile : std::ofstream)\n        +void genLoadConForTestFile(file : std::ofstream, instrRegOperand : WingCGInstrInfo::RegOperand, loadInstrBuiltinName : const std::string)\n        +void genStoreConForTestFile(file : std::ofstream, instrRegOperand : RegOperand, storeInstrBuiltinName : const std::string)\n        +bool emitBuiltinTestFileNoGPR(builtinFile : std::ofstream)\n        +bool emitBuiltinTestFileForGPR(builtinFile : std::ofstream)\n        +bool emitBuiltinDef(builtinInfoFile : std::ofstream)\n        +bool emitBuiltinIntrinsic(builtinInfoFile : std::ofstream)\n        +bool emitBuiltinIRForMulRes(builtinInfoFile : std::ofstream)\n        +std::string getInDAG()\n        +std::string getInDAGForDAG()\n        +std::string getInDAGForInstrinsic()\n        +std::string getInDAGForCompressedInstr()\n        +std::string getOutDAG()\n        +std::string toDAGString(vec : std::vector&lt;RegOperand&gt;)\n        +std::string getInstrFormat()\n        +std::string getBuiltinName()\n        +std::string getInstrinsicName()\n        +std::string getInstrName()\n        +unsigned getInstrLen()\n        +std::string getBinaryString()\n        +std::string getSyntaxString()\n        +std::string getInstrFormatForTD()\n        +unsigned getInstrType()\n        +std::string getInstrPattern()\n        +WingCGType* getVectorVT()\n        +auto&amp; getRegRead()\n        +auto&amp; getRegWrite()\n        +auto&amp; getImms()\n        +void setIsJumpInstr()\n        +void setIsLoad()\n        +void setIsStore()\n        +bool isLoad()\n        +bool isStore()\n        +bool isVector()\n        +bool isCompressedInstr()\n        +std::string getInstrForCompressedInstr()\n    }\n\n    class RegOperand {\n        +std::string localName\n        +std::string regOperandName\n        +RegOperandType type\n        +std::string localNameWrite\n        +WingCGType valueType\n\n        +RegOperand(localName : std::string, regOperandName : std::string, type : RegOperandType, valueType : WingCGType)\n        +bool operator==(other : RegOperand)\n        +bool operator&lt;(other : RegOperand)\n        +WingCGRegOperand* getRegOperandP()\n        +std::vector&lt;WingCGInstrInfo*&gt; &amp;getLoadInstrs()\n        +std::vector&lt;WingCGInstrInfo*&gt; &amp;getStoreInstrs()\n        +bool isGPR()\n        +bool isVector()\n        +void genVectorInfo()\n        +std::string getVT()\n        +std::string getRegOperandTDName()\n    }\n\n    class ImmOperand {\n        +std::string localName\n        +std::string immOperandName\n        +bool isSign\n        +WingCGType valueType\n\n        +ImmOperand(immOperandName : std::string, localName : std::string, isSign : bool)\n        +WingCGImmOperand* getImmOperandP()\n        +std::string getImmOperandTDName()\n        +unsigned getImmWidth()\n    }\n\n    enum RegOperandType {\n        Read\n        Write\n        WriteAndRead\n    }\n\n    WingCGInstrInfo \&quot;1\&quot; *-- \&quot;0..*\&quot; RegOperand : contains\n    WingCGInstrInfo \&quot;1\&quot; *-- \&quot;0..*\&quot; ImmOperand : contains\n}\n\n@enduml\n&quot;,&#xa;  &quot;format&quot;: &quot;svg&quot;&#xa;}" id="iErG82ORrNlGhsyNsSDk-5">
          <mxCell style="shape=image;noLabel=1;verticalAlign=top;aspect=fixed;imageAspect=0;image=data:image/svg+xml,PD94bWwgdmVyc2lvbj0iMS4wIiBlbmNvZGluZz0idXMtYXNjaWkiIHN0YW5kYWxvbmU9Im5vIj8+PHN2ZyB4bWxucz0iaHR0cDovL3d3dy53My5vcmcvMjAwMC9zdmciIHhtbG5zOnhsaW5rPSJodHRwOi8vd3d3LnczLm9yZy8xOTk5L3hsaW5rIiBjb250ZW50U3R5bGVUeXBlPSJ0ZXh0L2NzcyIgaGVpZ2h0PSIxNTIycHgiIHByZXNlcnZlQXNwZWN0UmF0aW89Im5vbmUiIHN0eWxlPSJ3aWR0aDoxODY4cHg7aGVpZ2h0OjE1MjJweDtiYWNrZ3JvdW5kOiNGRkZGRkY7IiB2ZXJzaW9uPSIxLjEiIHZpZXdCb3g9IjAgMCAxODY4IDE1MjIiIHdpZHRoPSIxODY4cHgiIHpvb21BbmRQYW49Im1hZ25pZnkiPjxkZWZzLz48Zz48IS0tY2x1c3RlciB3aW5nY2ctLT48ZyBpZD0iY2x1c3Rlcl93aW5nY2ciPjxwYXRoIGQ9Ik04LjUsNiBMNTIuNSw2IEEzLjc1LDMuNzUgMCAwIDEgNTUsOC41IEw2MiwyNi45ODQ0IEwxODU4LjUsMjYuOTg0NCBBMi41LDIuNSAwIDAgMSAxODYxLDI5LjQ4NDQgTDE4NjEsMTUxMi41IEEyLjUsMi41IDAgMCAxIDE4NTguNSwxNTE1IEw4LjUsMTUxNSBBMi41LDIuNSAwIDAgMSA2LDE1MTIuNSBMNiw4LjUgQTIuNSwyLjUgMCAwIDEgOC41LDYgIiBmaWxsPSJub25lIiBzdHlsZT0ic3Ryb2tlOiMwMDAwMDA7c3Ryb2tlLXdpZHRoOjEuNTsiLz48bGluZSBzdHlsZT0ic3Ryb2tlOiMwMDAwMDA7c3Ryb2tlLXdpZHRoOjEuNTsiIHgxPSI2IiB4Mj0iNjIiIHkxPSIyNi45ODQ0IiB5Mj0iMjYuOTg0NCIvPjx0ZXh0IGZpbGw9IiMwMDAwMDAiIGZvbnQtZmFtaWx5PSJzYW5zLXNlcmlmIiBmb250LXNpemU9IjE0IiBmb250LXdlaWdodD0iYm9sZCIgbGVuZ3RoQWRqdXN0PSJzcGFjaW5nIiB0ZXh0TGVuZ3RoPSI0MyIgeD0iMTAiIHk9IjIxLjIzNDQiPndpbmdjZzwvdGV4dD48L2c+PCEtLWNsYXNzIFdpbmdDR0luc3RySW5mby0tPjxnIGlkPSJlbGVtX1dpbmdDR0luc3RySW5mbyI+PHJlY3QgY29kZUxpbmU9IjIiIGZpbGw9IiNGMUYxRjEiIGhlaWdodD0iMTA5Ni45MDYzIiBpZD0iV2luZ0NHSW5zdHJJbmZvIiByeD0iMi41IiByeT0iMi41IiBzdHlsZT0ic3Ryb2tlOiMxODE4MTg7c3Ryb2tlLXdpZHRoOjAuNTsiIHdpZHRoPSIxNjU3IiB4PSIxODcuNSIgeT0iMzkiLz48ZWxsaXBzZSBjeD0iOTU5LjI1IiBjeT0iNTUiIGZpbGw9IiNBREQxQjIiIHJ4PSIxMSIgcnk9IjExIiBzdHlsZT0ic3Ryb2tlOiMxODE4MTg7c3Ryb2tlLXdpZHRoOjEuMDsiLz48cGF0aCBkPSJNOTU2Ljg3NSw1OS4yNSBMOTU2Ljg3NSw2MSBMOTYxLjgxMjUsNjEgTDk2MS44MTI1LDU5LjI1IEw5NTYuODc1LDU5LjI1IFogTTk1Ny41NjI1LDU5LjkzNzUgUTk1Ny41NjI1LDU5LjkzNzUgOTU3LjU2MjUsNTAuNzUgTDk1NS44MTI1LDUwLjc1IFE5NTUuODEyNSw1MC43NSA5NTUuODEyNSw1OS45Mzc1IEw5NTcuNTYyNSw1OS45Mzc1IFogTTk2MS4xMjUsNTkuOTM3NSBMOTYyLjg3NSw1OS45Mzc1IFE5NjIuODc1LDU5LjkzNzUgOTYyLjg3NSw1Ny4xMjUgTDk2MS4xMjUsNTcuMTI1IFE5NjEuMTI1LDU3LjEyNSA5NjEuMTI1LDU5LjkzNzUgWiBNOTYxLjEyNSw1MC43NSBROTYxLjEyNSw1MC43NSA5NjEuMTI1LDUzLjU2MjUgTDk2Mi44NzUsNTMuNTYyNSBROTYyLjg3NSw1My41NjI1IDk2Mi44NzUsNTAuNzUgTDk2MS4xMjUsNTAuNzUgWiBNOTU2Ljg3NSw1MS40Mzc1IEw5NjEuODEyNSw1MS40Mzc1IEw5NjEuODEyNSw0OS42ODc1IEw5NTYuODc1LDQ5LjY4NzUgTDk1Ni44NzUsNTEuNDM3NSBaICIgZmlsbD0iIzAwMDAwMCIvPjx0ZXh0IGZpbGw9IiMwMDAwMDAiIGZvbnQtZmFtaWx5PSJzYW5zLXNlcmlmIiBmb250LXNpemU9IjE0IiBsZW5ndGhBZGp1c3Q9InNwYWNpbmciIHRleHRMZW5ndGg9IjEwNSIgeD0iOTc5Ljc1IiB5PSI2MC43NDIyIj5XaW5nQ0dJbnN0ckluZm88L3RleHQ+PGxpbmUgc3R5bGU9InN0cm9rZTojMTgxODE4O3N0cm9rZS13aWR0aDowLjU7IiB4MT0iMTg4LjUiIHgyPSIxODQzLjUiIHkxPSI3MSIgeTI9IjcxIi8+PGVsbGlwc2UgY3g9IjE5OC41IiBjeT0iODMuOTkyMiIgZmlsbD0ibm9uZSIgcng9IjMiIHJ5PSIzIiBzdHlsZT0ic3Ryb2tlOiMwMzgwNDg7c3Ryb2tlLXdpZHRoOjEuMDsiLz48dGV4dCBmaWxsPSIjMDAwMDAwIiBmb250LWZhbWlseT0ic2Fucy1zZXJpZiIgZm9udC1zaXplPSIxNCIgbGVuZ3RoQWRqdXN0PSJzcGFjaW5nIiB0ZXh0TGVuZ3RoPSIxNDgiIHg9IjIwNy41IiB5PSI4OC4yMzQ0Ij5zdGQ6OnN0cmluZyBpbnN0ck5hbWU8L3RleHQ+PGVsbGlwc2UgY3g9IjE5OC41IiBjeT0iOTguOTc2NiIgZmlsbD0ibm9uZSIgcng9IjMiIHJ5PSIzIiBzdHlsZT0ic3Ryb2tlOiMwMzgwNDg7c3Ryb2tlLXdpZHRoOjEuMDsiLz48dGV4dCBmaWxsPSIjMDAwMDAwIiBmb250LWZhbWlseT0ic2Fucy1zZXJpZiIgZm9udC1zaXplPSIxNCIgbGVuZ3RoQWRqdXN0PSJzcGFjaW5nIiB0ZXh0TGVuZ3RoPSIxMTkiIHg9IjIwNy41IiB5PSIxMDMuMjE4OCI+dW5zaWduZWQgaW5zdHJMZW48L3RleHQ+PGVsbGlwc2UgY3g9IjE5OC41IiBjeT0iMTEzLjk2MDkiIGZpbGw9Im5vbmUiIHJ4PSIzIiByeT0iMyIgc3R5bGU9InN0cm9rZTojMDM4MDQ4O3N0cm9rZS13aWR0aDoxLjA7Ii8+PHRleHQgZmlsbD0iIzAwMDAwMCIgZm9udC1mYW1pbHk9InNhbnMtc2VyaWYiIGZvbnQtc2l6ZT0iMTQiIGxlbmd0aEFkanVzdD0ic3BhY2luZyIgdGV4dExlbmd0aD0iMTI2IiB4PSIyMDcuNSIgeT0iMTE4LjIwMzEiPnN0ZDo6c3RyaW5nIHN5bnRheDwvdGV4dD48ZWxsaXBzZSBjeD0iMTk4LjUiIGN5PSIxMjguOTQ1MyIgZmlsbD0ibm9uZSIgcng9IjMiIHJ5PSIzIiBzdHlsZT0ic3Ryb2tlOiMwMzgwNDg7c3Ryb2tlLXdpZHRoOjEuMDsiLz48dGV4dCBmaWxsPSIjMDAwMDAwIiBmb250LWZhbWlseT0ic2Fucy1zZXJpZiIgZm9udC1zaXplPSIxNCIgbGVuZ3RoQWRqdXN0PSJzcGFjaW5nIiB0ZXh0TGVuZ3RoPSIxMjYiIHg9IjIwNy41IiB5PSIxMzMuMTg3NSI+c3RkOjpzdHJpbmcgYmluYXJ5PC90ZXh0PjxlbGxpcHNlIGN4PSIxOTguNSIgY3k9IjE0My45Mjk3IiBmaWxsPSJub25lIiByeD0iMyIgcnk9IjMiIHN0eWxlPSJzdHJva2U6IzAzODA0ODtzdHJva2Utd2lkdGg6MS4wOyIvPjx0ZXh0IGZpbGw9IiMwMDAwMDAiIGZvbnQtZmFtaWx5PSJzYW5zLXNlcmlmIiBmb250LXNpemU9IjE0IiBsZW5ndGhBZGp1c3Q9InNwYWNpbmciIHRleHRMZW5ndGg9IjE2OCIgeD0iMjA3LjUiIHk9IjE0OC4xNzE5Ij5zdGQ6OnN0cmluZyBpbnN0clBhdHRlcm48L3RleHQ+PGVsbGlwc2UgY3g9IjE5OC41IiBjeT0iMTU4LjkxNDEiIGZpbGw9Im5vbmUiIHJ4PSIzIiByeT0iMyIgc3R5bGU9InN0cm9rZTojMDM4MDQ4O3N0cm9rZS13aWR0aDoxLjA7Ii8+PHRleHQgZmlsbD0iIzAwMDAwMCIgZm9udC1mYW1pbHk9InNhbnMtc2VyaWYiIGZvbnQtc2l6ZT0iMTQiIGxlbmd0aEFkanVzdD0ic3BhY2luZyIgdGV4dExlbmd0aD0iMjE3IiB4PSIyMDcuNSIgeT0iMTYzLjE1NjMiPnN0ZDo6dmVjdG9yJmx0O1JlZ09wZXJhbmQmZ3Q7IHJlZ1JlYWQ8L3RleHQ+PGVsbGlwc2UgY3g9IjE5OC41IiBjeT0iMTczLjg5ODQiIGZpbGw9Im5vbmUiIHJ4PSIzIiByeT0iMyIgc3R5bGU9InN0cm9rZTojMDM4MDQ4O3N0cm9rZS13aWR0aDoxLjA7Ii8+PHRleHQgZmlsbD0iIzAwMDAwMCIgZm9udC1mYW1pbHk9InNhbnMtc2VyaWYiIGZvbnQtc2l6ZT0iMTQiIGxlbmd0aEFkanVzdD0ic3BhY2luZyIgdGV4dExlbmd0aD0iMjI0IiB4PSIyMDcuNSIgeT0iMTc4LjE0MDYiPnN0ZDo6dmVjdG9yJmx0O1JlZ09wZXJhbmQmZ3Q7IHJlZ1dyaXRlPC90ZXh0PjxlbGxpcHNlIGN4PSIxOTguNSIgY3k9IjE4OC44ODI4IiBmaWxsPSJub25lIiByeD0iMyIgcnk9IjMiIHN0eWxlPSJzdHJva2U6IzAzODA0ODtzdHJva2Utd2lkdGg6MS4wOyIvPjx0ZXh0IGZpbGw9IiMwMDAwMDAiIGZvbnQtZmFtaWx5PSJzYW5zLXNlcmlmIiBmb250LXNpemU9IjE0IiBsZW5ndGhBZGp1c3Q9InNwYWNpbmciIHRleHRMZW5ndGg9IjIwMCIgeD0iMjA3LjUiIHk9IjE5My4xMjUiPnN0ZDo6dmVjdG9yJmx0O0ltbU9wZXJhbmQmZ3Q7IGltbXM8L3RleHQ+PGVsbGlwc2UgY3g9IjE5OC41IiBjeT0iMjAzLjg2NzIiIGZpbGw9Im5vbmUiIHJ4PSIzIiByeT0iMyIgc3R5bGU9InN0cm9rZTojMDM4MDQ4O3N0cm9rZS13aWR0aDoxLjA7Ii8+PHRleHQgZmlsbD0iIzAwMDAwMCIgZm9udC1mYW1pbHk9InNhbnMtc2VyaWYiIGZvbnQtc2l6ZT0iMTQiIGxlbmd0aEFkanVzdD0ic3BhY2luZyIgdGV4dExlbmd0aD0iMTYyIiB4PSIyMDcuNSIgeT0iMjA4LjEwOTQiPnN0ZDo6c3RyaW5nIGluc3RyRm9ybWF0PC90ZXh0PjxlbGxpcHNlIGN4PSIxOTguNSIgY3k9IjIxOC44NTE2IiBmaWxsPSJub25lIiByeD0iMyIgcnk9IjMiIHN0eWxlPSJzdHJva2U6IzAzODA0ODtzdHJva2Utd2lkdGg6MS4wOyIvPjx0ZXh0IGZpbGw9IiMwMDAwMDAiIGZvbnQtZmFtaWx5PSJzYW5zLXNlcmlmIiBmb250LXNpemU9IjE0IiBsZW5ndGhBZGp1c3Q9InNwYWNpbmciIHRleHRMZW5ndGg9IjEyNiIgeD0iMjA3LjUiIHk9IjIyMy4wOTM4Ij51bnNpZ25lZCBpbnN0clR5cGU8L3RleHQ+PGVsbGlwc2UgY3g9IjE5OC41IiBjeT0iMjMzLjgzNTkiIGZpbGw9Im5vbmUiIHJ4PSIzIiByeT0iMyIgc3R5bGU9InN0cm9rZTojMDM4MDQ4O3N0cm9rZS13aWR0aDoxLjA7Ii8+PHRleHQgZmlsbD0iIzAwMDAwMCIgZm9udC1mYW1pbHk9InNhbnMtc2VyaWYiIGZvbnQtc2l6ZT0iMTQiIGxlbmd0aEFkanVzdD0ic3BhY2luZyIgdGV4dExlbmd0aD0iMTEyIiB4PSIyMDcuNSIgeT0iMjM4LjA3ODEiPmJvb2wgaXNMb2FkSW5zdHI8L3RleHQ+PGVsbGlwc2UgY3g9IjE5OC41IiBjeT0iMjQ4LjgyMDMiIGZpbGw9Im5vbmUiIHJ4PSIzIiByeT0iMyIgc3R5bGU9InN0cm9rZTojMDM4MDQ4O3N0cm9rZS13aWR0aDoxLjA7Ii8+PHRleHQgZmlsbD0iIzAwMDAwMCIgZm9udC1mYW1pbHk9InNhbnMtc2VyaWYiIGZvbnQtc2l6ZT0iMTQiIGxlbmd0aEFkanVzdD0ic3BhY2luZyIgdGV4dExlbmd0aD0iMTE5IiB4PSIyMDcuNSIgeT0iMjUzLjA2MjUiPmJvb2wgaXNTdG9yZUluc3RyPC90ZXh0PjxlbGxpcHNlIGN4PSIxOTguNSIgY3k9IjI2My44MDQ3IiBmaWxsPSJub25lIiByeD0iMyIgcnk9IjMiIHN0eWxlPSJzdHJva2U6IzAzODA0ODtzdHJva2Utd2lkdGg6MS4wOyIvPjx0ZXh0IGZpbGw9IiMwMDAwMDAiIGZvbnQtZmFtaWx5PSJzYW5zLXNlcmlmIiBmb250LXNpemU9IjE0IiBsZW5ndGhBZGp1c3Q9InNwYWNpbmciIHRleHRMZW5ndGg9IjEyNiIgeD0iMjA3LjUiIHk9IjI2OC4wNDY5Ij5ib29sIGlzVmVjdG9ySW5zdHI8L3RleHQ+PGVsbGlwc2UgY3g9IjE5OC41IiBjeT0iMjc4Ljc4OTEiIGZpbGw9Im5vbmUiIHJ4PSIzIiByeT0iMyIgc3R5bGU9InN0cm9rZTojMDM4MDQ4O3N0cm9rZS13aWR0aDoxLjA7Ii8+PHRleHQgZmlsbD0iIzAwMDAwMCIgZm9udC1mYW1pbHk9InNhbnMtc2VyaWYiIGZvbnQtc2l6ZT0iMTQiIGxlbmd0aEFkanVzdD0ic3BhY2luZyIgdGV4dExlbmd0aD0iMTE0IiB4PSIyMDcuNSIgeT0iMjgzLjAzMTMiPmJvb2wgaXNKdW1wSW5zdHI8L3RleHQ+PGVsbGlwc2UgY3g9IjE5OC41IiBjeT0iMjkzLjc3MzQiIGZpbGw9Im5vbmUiIHJ4PSIzIiByeT0iMyIgc3R5bGU9InN0cm9rZTojMDM4MDQ4O3N0cm9rZS13aWR0aDoxLjA7Ii8+PHRleHQgZmlsbD0iIzAwMDAwMCIgZm9udC1mYW1pbHk9InNhbnMtc2VyaWYiIGZvbnQtc2l6ZT0iMTQiIGxlbmd0aEFkanVzdD0ic3BhY2luZyIgdGV4dExlbmd0aD0iMTI2IiB4PSIyMDcuNSIgeT0iMjk4LjAxNTYiPldpbmdDR1R5cGUgKnZlY1ZUUDwvdGV4dD48dGV4dCBmaWxsPSIjMDAwMDAwIiBmb250LWZhbWlseT0ic2Fucy1zZXJpZiIgZm9udC1zaXplPSIxNCIgbGVuZ3RoQWRqdXN0PSJzcGFjaW5nIiB0ZXh0TGVuZ3RoPSI3IiB4PSIyMDcuNSIgeT0iMzEzIj4mIzE2MDs8L3RleHQ+PGVsbGlwc2UgY3g9IjE5OC41IiBjeT0iMzIzLjc0MjIiIGZpbGw9Im5vbmUiIHJ4PSIzIiByeT0iMyIgc3R5bGU9InN0cm9rZTojMDM4MDQ4O3N0cm9rZS13aWR0aDoxLjA7Ii8+PHRleHQgZmlsbD0iIzAwMDAwMCIgZm9udC1mYW1pbHk9InNhbnMtc2VyaWYiIGZvbnQtc2l6ZT0iMTQiIGxlbmd0aEFkanVzdD0ic3BhY2luZyIgdGV4dExlbmd0aD0iMzMwIiB4PSIyMDcuNSIgeT0iMzI3Ljk4NDQiPnN0YXRpYyBjb25zdCBzdGQ6OnN0cmluZyByZWdXcml0ZVJlYWROYW1lU3VmZml4PC90ZXh0PjxlbGxpcHNlIGN4PSIxOTguNSIgY3k9IjMzOC43MjY2IiBmaWxsPSJub25lIiByeD0iMyIgcnk9IjMiIHN0eWxlPSJzdHJva2U6IzAzODA0ODtzdHJva2Utd2lkdGg6MS4wOyIvPjx0ZXh0IGZpbGw9IiMwMDAwMDAiIGZvbnQtZmFtaWx5PSJzYW5zLXNlcmlmIiBmb250LXNpemU9IjE0IiBsZW5ndGhBZGp1c3Q9InNwYWNpbmciIHRleHRMZW5ndGg9IjI5NSIgeD0iMjA3LjUiIHk9IjM0Mi45Njg4Ij5zdGF0aWMgY29uc3Qgc3RkOjpzdHJpbmcgYnVpbHRpbk5hbWVTdWZmaXg8L3RleHQ+PGVsbGlwc2UgY3g9IjE5OC41IiBjeT0iMzUzLjcxMDkiIGZpbGw9Im5vbmUiIHJ4PSIzIiByeT0iMyIgc3R5bGU9InN0cm9rZTojMDM4MDQ4O3N0cm9rZS13aWR0aDoxLjA7Ii8+PHRleHQgZmlsbD0iIzAwMDAwMCIgZm9udC1mYW1pbHk9InNhbnMtc2VyaWYiIGZvbnQtc2l6ZT0iMTQiIGxlbmd0aEFkanVzdD0ic3BhY2luZyIgdGV4dExlbmd0aD0iMzA5IiB4PSIyMDcuNSIgeT0iMzU3Ljk1MzEiPnN0YXRpYyBjb25zdCBzdGQ6OnN0cmluZyBpbnRyaW5zaWNOYW1lU3VmZml4PC90ZXh0PjxsaW5lIHN0eWxlPSJzdHJva2U6IzE4MTgxODtzdHJva2Utd2lkdGg6MC41OyIgeDE9IjE4OC41IiB4Mj0iMTg0My41IiB5MT0iMzYzLjcwMzEiIHkyPSIzNjMuNzAzMSIvPjxlbGxpcHNlIGN4PSIxOTguNSIgY3k9IjM3Ni42OTUzIiBmaWxsPSIjODRCRTg0IiByeD0iMyIgcnk9IjMiIHN0eWxlPSJzdHJva2U6IzAzODA0ODtzdHJva2Utd2lkdGg6MS4wOyIvPjx0ZXh0IGZpbGw9IiMwMDAwMDAiIGZvbnQtZmFtaWx5PSJzYW5zLXNlcmlmIiBmb250LXNpemU9IjE0IiBsZW5ndGhBZGp1c3Q9InNwYWNpbmciIHRleHRMZW5ndGg9IjEyMSIgeD0iMjA3LjUiIHk9IjM4MC45Mzc1Ij5XaW5nQ0dJbnN0ckluZm8oKTwvdGV4dD48ZWxsaXBzZSBjeD0iMTk4LjUiIGN5PSIzOTEuNjc5NyIgZmlsbD0iIzg0QkU4NCIgcng9IjMiIHJ5PSIzIiBzdHlsZT0ic3Ryb2tlOiMwMzgwNDg7c3Ryb2tlLXdpZHRoOjEuMDsiLz48dGV4dCBmaWxsPSIjMDAwMDAwIiBmb250LWZhbWlseT0ic2Fucy1zZXJpZiIgZm9udC1zaXplPSIxNCIgbGVuZ3RoQWRqdXN0PSJzcGFjaW5nIiB0ZXh0TGVuZ3RoPSIxNjMxIiB4PSIyMDcuNSIgeT0iMzk1LjkyMTkiPldpbmdDR0luc3RySW5mbyhuYW1lIDogc3RkOjpzdHJpbmcsIGxlbiA6IHVuc2lnbmVkLCBzeW50YXggOiBzdGQ6OnN0cmluZywgYmluYXJ5IDogc3RkOjpzdHJpbmcsIGluc3RyUGF0dGVybiA6IGNvbnN0IHN0ZDo6c3RyaW5nLCByZWdSZWFkIDogc3RkOjp2ZWN0b3ImbHQ7UmVnT3BlcmFuZCZndDssIHJlZ1dyaXRlIDogc3RkOjp2ZWN0b3ImbHQ7UmVnT3BlcmFuZCZndDssIGltbXMgOiBzdGQ6OnZlY3RvciZsdDtJbW1PcGVyYW5kJmd0Oyk8L3RleHQ+PGVsbGlwc2UgY3g9IjE5OC41IiBjeT0iNDA2LjY2NDEiIGZpbGw9IiM4NEJFODQiIHJ4PSIzIiByeT0iMyIgc3R5bGU9InN0cm9rZTojMDM4MDQ4O3N0cm9rZS13aWR0aDoxLjA7Ii8+PHRleHQgZmlsbD0iIzAwMDAwMCIgZm9udC1mYW1pbHk9InNhbnMtc2VyaWYiIGZvbnQtc2l6ZT0iMTQiIGxlbmd0aEFkanVzdD0ic3BhY2luZyIgdGV4dExlbmd0aD0iMTA3IiB4PSIyMDcuNSIgeT0iNDEwLjkwNjMiPnZvaWQgbGVnYWxpemUoKTwvdGV4dD48ZWxsaXBzZSBjeD0iMTk4LjUiIGN5PSI0MjEuNjQ4NCIgZmlsbD0iIzg0QkU4NCIgcng9IjMiIHJ5PSIzIiBzdHlsZT0ic3Ryb2tlOiMwMzgwNDg7c3Ryb2tlLXdpZHRoOjEuMDsiLz48dGV4dCBmaWxsPSIjMDAwMDAwIiBmb250LWZhbWlseT0ic2Fucy1zZXJpZiIgZm9udC1zaXplPSIxNCIgbGVuZ3RoQWRqdXN0PSJzcGFjaW5nIiB0ZXh0TGVuZ3RoPSI4MCIgeD0iMjA3LjUiIHk9IjQyNS44OTA2Ij52b2lkIGR1bXAoKTwvdGV4dD48ZWxsaXBzZSBjeD0iMTk4LjUiIGN5PSI0MzYuNjMyOCIgZmlsbD0iIzg0QkU4NCIgcng9IjMiIHJ5PSIzIiBzdHlsZT0ic3Ryb2tlOiMwMzgwNDg7c3Ryb2tlLXdpZHRoOjEuMDsiLz48dGV4dCBmaWxsPSIjMDAwMDAwIiBmb250LWZhbWlseT0ic2Fucy1zZXJpZiIgZm9udC1zaXplPSIxNCIgbGVuZ3RoQWRqdXN0PSJzcGFjaW5nIiB0ZXh0TGVuZ3RoPSI0MTAiIHg9IjIwNy41IiB5PSI0NDAuODc1Ij5ib29sIGVtaXRJbnN0clJlY29yZEZvckZ1bGwoaW5zdHJJbmZvRmlsZSA6IHN0ZDo6b2ZzdHJlYW0pPC90ZXh0PjxlbGxpcHNlIGN4PSIxOTguNSIgY3k9IjQ1MS42MTcyIiBmaWxsPSIjODRCRTg0IiByeD0iMyIgcnk9IjMiIHN0eWxlPSJzdHJva2U6IzAzODA0ODtzdHJva2Utd2lkdGg6MS4wOyIvPjx0ZXh0IGZpbGw9IiMwMDAwMDAiIGZvbnQtZmFtaWx5PSJzYW5zLXNlcmlmIiBmb250LXNpemU9IjE0IiBsZW5ndGhBZGp1c3Q9InNwYWNpbmciIHRleHRMZW5ndGg9IjM0MCIgeD0iMjA3LjUiIHk9IjQ1NS44NTk0Ij5ib29sIGVtaXRJbnN0ck1hdGNoRm9yRnVsbChmaWxlIDogc3RkOjpvZnN0cmVhbSk8L3RleHQ+PGVsbGlwc2UgY3g9IjE5OC41IiBjeT0iNDY2LjYwMTYiIGZpbGw9IiM4NEJFODQiIHJ4PSIzIiByeT0iMyIgc3R5bGU9InN0cm9rZTojMDM4MDQ4O3N0cm9rZS13aWR0aDoxLjA7Ii8+PHRleHQgZmlsbD0iIzAwMDAwMCIgZm9udC1mYW1pbHk9InNhbnMtc2VyaWYiIGZvbnQtc2l6ZT0iMTQiIGxlbmd0aEFkanVzdD0ic3BhY2luZyIgdGV4dExlbmd0aD0iMzk2IiB4PSIyMDcuNSIgeT0iNDcwLjg0MzgiPmJvb2wgZW1pdEluc3RyTWF0Y2hGb3JTdG9yZUZvckZ1bGwoZmlsZSA6IHN0ZDo6b2ZzdHJlYW0pPC90ZXh0PjxlbGxpcHNlIGN4PSIxOTguNSIgY3k9IjQ4MS41ODU5IiBmaWxsPSIjODRCRTg0IiByeD0iMyIgcnk9IjMiIHN0eWxlPSJzdHJva2U6IzAzODA0ODtzdHJva2Utd2lkdGg6MS4wOyIvPjx0ZXh0IGZpbGw9IiMwMDAwMDAiIGZvbnQtZmFtaWx5PSJzYW5zLXNlcmlmIiBmb250LXNpemU9IjE0IiBsZW5ndGhBZGp1c3Q9InNwYWNpbmciIHRleHRMZW5ndGg9IjM2MSIgeD0iMjA3LjUiIHk9IjQ4NS44MjgxIj5ib29sIGVtaXRJbnN0clJlY29yZChpbnN0ckluZm9GaWxlIDogc3RkOjpvZnN0cmVhbSk8L3RleHQ+PGVsbGlwc2UgY3g9IjE5OC41IiBjeT0iNDk2LjU3MDMiIGZpbGw9IiM4NEJFODQiIHJ4PSIzIiByeT0iMyIgc3R5bGU9InN0cm9rZTojMDM4MDQ4O3N0cm9rZS13aWR0aDoxLjA7Ii8+PHRleHQgZmlsbD0iIzAwMDAwMCIgZm9udC1mYW1pbHk9InNhbnMtc2VyaWYiIGZvbnQtc2l6ZT0iMTQiIGxlbmd0aEFkanVzdD0ic3BhY2luZyIgdGV4dExlbmd0aD0iMzU0IiB4PSIyMDcuNSIgeT0iNTAwLjgxMjUiPmJvb2wgZW1pdEluc3RyTWF0Y2goaW5zdHJJbmZvRmlsZSA6IHN0ZDo6b2ZzdHJlYW0pPC90ZXh0PjxlbGxpcHNlIGN4PSIxOTguNSIgY3k9IjUxMS41NTQ3IiBmaWxsPSIjODRCRTg0IiByeD0iMyIgcnk9IjMiIHN0eWxlPSJzdHJva2U6IzAzODA0ODtzdHJva2Utd2lkdGg6MS4wOyIvPjx0ZXh0IGZpbGw9IiMwMDAwMDAiIGZvbnQtZmFtaWx5PSJzYW5zLXNlcmlmIiBmb250LXNpemU9IjE0IiBsZW5ndGhBZGp1c3Q9InNwYWNpbmciIHRleHRMZW5ndGg9IjM0NyIgeD0iMjA3LjUiIHk9IjUxNS43OTY5Ij5ib29sIGVtaXRJbnN0ck1hcmNoRm9yQXJpdGgoZmlsZSA6IHN0ZDo6b2ZzdHJlYW0pPC90ZXh0PjxlbGxpcHNlIGN4PSIxOTguNSIgY3k9IjUyNi41MzkxIiBmaWxsPSIjODRCRTg0IiByeD0iMyIgcnk9IjMiIHN0eWxlPSJzdHJva2U6IzAzODA0ODtzdHJva2Utd2lkdGg6MS4wOyIvPjx0ZXh0IGZpbGw9IiMwMDAwMDAiIGZvbnQtZmFtaWx5PSJzYW5zLXNlcmlmIiBmb250LXNpemU9IjE0IiBsZW5ndGhBZGp1c3Q9InNwYWNpbmciIHRleHRMZW5ndGg9IjM0MCIgeD0iMjA3LjUiIHk9IjUzMC43ODEzIj5ib29sIGVtaXRJbnN0ck1hdGNoRm9yTG9hZChmaWxlIDogc3RkOjpvZnN0cmVhbSk8L3RleHQ+PGVsbGlwc2UgY3g9IjE5OC41IiBjeT0iNTQxLjUyMzQiIGZpbGw9IiM4NEJFODQiIHJ4PSIzIiByeT0iMyIgc3R5bGU9InN0cm9rZTojMDM4MDQ4O3N0cm9rZS13aWR0aDoxLjA7Ii8+PHRleHQgZmlsbD0iIzAwMDAwMCIgZm9udC1mYW1pbHk9InNhbnMtc2VyaWYiIGZvbnQtc2l6ZT0iMTQiIGxlbmd0aEFkanVzdD0ic3BhY2luZyIgdGV4dExlbmd0aD0iMzQ3IiB4PSIyMDcuNSIgeT0iNTQ1Ljc2NTYiPmJvb2wgZW1pdEluc3RyTWF0Y2hGb3JTdG9yZShmaWxlIDogc3RkOjpvZnN0cmVhbSk8L3RleHQ+PGVsbGlwc2UgY3g9IjE5OC41IiBjeT0iNTU2LjUwNzgiIGZpbGw9IiM4NEJFODQiIHJ4PSIzIiByeT0iMyIgc3R5bGU9InN0cm9rZTojMDM4MDQ4O3N0cm9rZS13aWR0aDoxLjA7Ii8+PHRleHQgZmlsbD0iIzAwMDAwMCIgZm9udC1mYW1pbHk9InNhbnMtc2VyaWYiIGZvbnQtc2l6ZT0iMTQiIGxlbmd0aEFkanVzdD0ic3BhY2luZyIgdGV4dExlbmd0aD0iMzgyIiB4PSIyMDcuNSIgeT0iNTYwLjc1Ij5ib29sIGVtaXRJbnN0ck1hdGNoRm9ySW5zdHJpbnNpYyhmaWxlIDogc3RkOjpvZnN0cmVhbSk8L3RleHQ+PGVsbGlwc2UgY3g9IjE5OC41IiBjeT0iNTcxLjQ5MjIiIGZpbGw9IiM4NEJFODQiIHJ4PSIzIiByeT0iMyIgc3R5bGU9InN0cm9rZTojMDM4MDQ4O3N0cm9rZS13aWR0aDoxLjA7Ii8+PHRleHQgZmlsbD0iIzAwMDAwMCIgZm9udC1mYW1pbHk9InNhbnMtc2VyaWYiIGZvbnQtc2l6ZT0iMTQiIGxlbmd0aEFkanVzdD0ic3BhY2luZyIgdGV4dExlbmd0aD0iMzYxIiB4PSIyMDcuNSIgeT0iNTc1LjczNDQiPmJvb2wgZW1pdEJ1aWx0aW5IZWFkZXIoYnVpbHRpbkZpbGUgOiBzdGQ6Om9mc3RyZWFtKTwvdGV4dD48ZWxsaXBzZSBjeD0iMTk4LjUiIGN5PSI1ODYuNDc2NiIgZmlsbD0iIzg0QkU4NCIgcng9IjMiIHJ5PSIzIiBzdHlsZT0ic3Ryb2tlOiMwMzgwNDg7c3Ryb2tlLXdpZHRoOjEuMDsiLz48dGV4dCBmaWxsPSIjMDAwMDAwIiBmb250LWZhbWlseT0ic2Fucy1zZXJpZiIgZm9udC1zaXplPSIxNCIgbGVuZ3RoQWRqdXN0PSJzcGFjaW5nIiB0ZXh0TGVuZ3RoPSIzMTEiIHg9IjIwNy41IiB5PSI1OTAuNzE4OCI+dm9pZCBnZW5CdWlsdGluRnVuY0FQSShmaWxlIDogc3RkOjpvZnN0cmVhbSk8L3RleHQ+PGVsbGlwc2UgY3g9IjE5OC41IiBjeT0iNjAxLjQ2MDkiIGZpbGw9IiM4NEJFODQiIHJ4PSIzIiByeT0iMyIgc3R5bGU9InN0cm9rZTojMDM4MDQ4O3N0cm9rZS13aWR0aDoxLjA7Ii8+PHRleHQgZmlsbD0iIzAwMDAwMCIgZm9udC1mYW1pbHk9InNhbnMtc2VyaWYiIGZvbnQtc2l6ZT0iMTQiIGxlbmd0aEFkanVzdD0ic3BhY2luZyIgdGV4dExlbmd0aD0iMzc1IiB4PSIyMDcuNSIgeT0iNjA1LjcwMzEiPmJvb2wgZW1pdEJ1aWx0aW5UZXN0RmlsZShidWlsdGluRmlsZSA6IHN0ZDo6b2ZzdHJlYW0pPC90ZXh0PjxlbGxpcHNlIGN4PSIxOTguNSIgY3k9IjYxNi40NDUzIiBmaWxsPSIjODRCRTg0IiByeD0iMyIgcnk9IjMiIHN0eWxlPSJzdHJva2U6IzAzODA0ODtzdHJva2Utd2lkdGg6MS4wOyIvPjx0ZXh0IGZpbGw9IiMwMDAwMDAiIGZvbnQtZmFtaWx5PSJzYW5zLXNlcmlmIiBmb250LXNpemU9IjE0IiBsZW5ndGhBZGp1c3Q9InNwYWNpbmciIHRleHRMZW5ndGg9Ijk2MyIgeD0iMjA3LjUiIHk9IjYyMC42ODc1Ij52b2lkIGdlbkxvYWRDb25Gb3JUZXN0RmlsZShmaWxlIDogc3RkOjpvZnN0cmVhbSwgaW5zdHJSZWdPcGVyYW5kIDogV2luZ0NHSW5zdHJJbmZvOjpSZWdPcGVyYW5kLCBsb2FkSW5zdHJCdWlsdGluTmFtZSA6IGNvbnN0IHN0ZDo6c3RyaW5nKTwvdGV4dD48ZWxsaXBzZSBjeD0iMTk4LjUiIGN5PSI2MzEuNDI5NyIgZmlsbD0iIzg0QkU4NCIgcng9IjMiIHJ5PSIzIiBzdHlsZT0ic3Ryb2tlOiMwMzgwNDg7c3Ryb2tlLXdpZHRoOjEuMDsiLz48dGV4dCBmaWxsPSIjMDAwMDAwIiBmb250LWZhbWlseT0ic2Fucy1zZXJpZiIgZm9udC1zaXplPSIxNCIgbGVuZ3RoQWRqdXN0PSJzcGFjaW5nIiB0ZXh0TGVuZ3RoPSI4NTgiIHg9IjIwNy41IiB5PSI2MzUuNjcxOSI+dm9pZCBnZW5TdG9yZUNvbkZvclRlc3RGaWxlKGZpbGUgOiBzdGQ6Om9mc3RyZWFtLCBpbnN0clJlZ09wZXJhbmQgOiBSZWdPcGVyYW5kLCBzdG9yZUluc3RyQnVpbHRpbk5hbWUgOiBjb25zdCBzdGQ6OnN0cmluZyk8L3RleHQ+PGVsbGlwc2UgY3g9IjE5OC41IiBjeT0iNjQ2LjQxNDEiIGZpbGw9IiM4NEJFODQiIHJ4PSIzIiByeT0iMyIgc3R5bGU9InN0cm9rZTojMDM4MDQ4O3N0cm9rZS13aWR0aDoxLjA7Ii8+PHRleHQgZmlsbD0iIzAwMDAwMCIgZm9udC1mYW1pbHk9InNhbnMtc2VyaWYiIGZvbnQtc2l6ZT0iMTQiIGxlbmd0aEFkanVzdD0ic3BhY2luZyIgdGV4dExlbmd0aD0iNDEwIiB4PSIyMDcuNSIgeT0iNjUwLjY1NjMiPmJvb2wgZW1pdEJ1aWx0aW5UZXN0RmlsZU5vR1BSKGJ1aWx0aW5GaWxlIDogc3RkOjpvZnN0cmVhbSk8L3RleHQ+PGVsbGlwc2UgY3g9IjE5OC41IiBjeT0iNjYxLjM5ODQiIGZpbGw9IiM4NEJFODQiIHJ4PSIzIiByeT0iMyIgc3R5bGU9InN0cm9rZTojMDM4MDQ4O3N0cm9rZS13aWR0aDoxLjA7Ii8+PHRleHQgZmlsbD0iIzAwMDAwMCIgZm9udC1mYW1pbHk9InNhbnMtc2VyaWYiIGZvbnQtc2l6ZT0iMTQiIGxlbmd0aEFkanVzdD0ic3BhY2luZyIgdGV4dExlbmd0aD0iNDE3IiB4PSIyMDcuNSIgeT0iNjY1LjY0MDYiPmJvb2wgZW1pdEJ1aWx0aW5UZXN0RmlsZUZvckdQUihidWlsdGluRmlsZSA6IHN0ZDo6b2ZzdHJlYW0pPC90ZXh0PjxlbGxpcHNlIGN4PSIxOTguNSIgY3k9IjY3Ni4zODI4IiBmaWxsPSIjODRCRTg0IiByeD0iMyIgcnk9IjMiIHN0eWxlPSJzdHJva2U6IzAzODA0ODtzdHJva2Utd2lkdGg6MS4wOyIvPjx0ZXh0IGZpbGw9IiMwMDAwMDAiIGZvbnQtZmFtaWx5PSJzYW5zLXNlcmlmIiBmb250LXNpemU9IjE0IiBsZW5ndGhBZGp1c3Q9InNwYWNpbmciIHRleHRMZW5ndGg9IjM2OCIgeD0iMjA3LjUiIHk9IjY4MC42MjUiPmJvb2wgZW1pdEJ1aWx0aW5EZWYoYnVpbHRpbkluZm9GaWxlIDogc3RkOjpvZnN0cmVhbSk8L3RleHQ+PGVsbGlwc2UgY3g9IjE5OC41IiBjeT0iNjkxLjM2NzIiIGZpbGw9IiM4NEJFODQiIHJ4PSIzIiByeT0iMyIgc3R5bGU9InN0cm9rZTojMDM4MDQ4O3N0cm9rZS13aWR0aDoxLjA7Ii8+PHRleHQgZmlsbD0iIzAwMDAwMCIgZm9udC1mYW1pbHk9InNhbnMtc2VyaWYiIGZvbnQtc2l6ZT0iMTQiIGxlbmd0aEFkanVzdD0ic3BhY2luZyIgdGV4dExlbmd0aD0iNDEwIiB4PSIyMDcuNSIgeT0iNjk1LjYwOTQiPmJvb2wgZW1pdEJ1aWx0aW5JbnRyaW5zaWMoYnVpbHRpbkluZm9GaWxlIDogc3RkOjpvZnN0cmVhbSk8L3RleHQ+PGVsbGlwc2UgY3g9IjE5OC41IiBjeT0iNzA2LjM1MTYiIGZpbGw9IiM4NEJFODQiIHJ4PSIzIiByeT0iMyIgc3R5bGU9InN0cm9rZTojMDM4MDQ4O3N0cm9rZS13aWR0aDoxLjA7Ii8+PHRleHQgZmlsbD0iIzAwMDAwMCIgZm9udC1mYW1pbHk9InNhbnMtc2VyaWYiIGZvbnQtc2l6ZT0iMTQiIGxlbmd0aEFkanVzdD0ic3BhY2luZyIgdGV4dExlbmd0aD0iNDI0IiB4PSIyMDcuNSIgeT0iNzEwLjU5MzgiPmJvb2wgZW1pdEJ1aWx0aW5JUkZvck11bFJlcyhidWlsdGluSW5mb0ZpbGUgOiBzdGQ6Om9mc3RyZWFtKTwvdGV4dD48ZWxsaXBzZSBjeD0iMTk4LjUiIGN5PSI3MjEuMzM1OSIgZmlsbD0iIzg0QkU4NCIgcng9IjMiIHJ5PSIzIiBzdHlsZT0ic3Ryb2tlOiMwMzgwNDg7c3Ryb2tlLXdpZHRoOjEuMDsiLz48dGV4dCBmaWxsPSIjMDAwMDAwIiBmb250LWZhbWlseT0ic2Fucy1zZXJpZiIgZm9udC1zaXplPSIxNCIgbGVuZ3RoQWRqdXN0PSJzcGFjaW5nIiB0ZXh0TGVuZ3RoPSIxNTYiIHg9IjIwNy41IiB5PSI3MjUuNTc4MSI+c3RkOjpzdHJpbmcgZ2V0SW5EQUcoKTwvdGV4dD48ZWxsaXBzZSBjeD0iMTk4LjUiIGN5PSI3MzYuMzIwMyIgZmlsbD0iIzg0QkU4NCIgcng9IjMiIHJ5PSIzIiBzdHlsZT0ic3Ryb2tlOiMwMzgwNDg7c3Ryb2tlLXdpZHRoOjEuMDsiLz48dGV4dCBmaWxsPSIjMDAwMDAwIiBmb250LWZhbWlseT0ic2Fucy1zZXJpZiIgZm9udC1zaXplPSIxNCIgbGVuZ3RoQWRqdXN0PSJzcGFjaW5nIiB0ZXh0TGVuZ3RoPSIxOTgiIHg9IjIwNy41IiB5PSI3NDAuNTYyNSI+c3RkOjpzdHJpbmcgZ2V0SW5EQUdGb3JEQUcoKTwvdGV4dD48ZWxsaXBzZSBjeD0iMTk4LjUiIGN5PSI3NTEuMzA0NyIgZmlsbD0iIzg0QkU4NCIgcng9IjMiIHJ5PSIzIiBzdHlsZT0ic3Ryb2tlOiMwMzgwNDg7c3Ryb2tlLXdpZHRoOjEuMDsiLz48dGV4dCBmaWxsPSIjMDAwMDAwIiBmb250LWZhbWlseT0ic2Fucy1zZXJpZiIgZm9udC1zaXplPSIxNCIgbGVuZ3RoQWRqdXN0PSJzcGFjaW5nIiB0ZXh0TGVuZ3RoPSIyNDciIHg9IjIwNy41IiB5PSI3NTUuNTQ2OSI+c3RkOjpzdHJpbmcgZ2V0SW5EQUdGb3JJbnN0cmluc2ljKCk8L3RleHQ+PGVsbGlwc2UgY3g9IjE5OC41IiBjeT0iNzY2LjI4OTEiIGZpbGw9IiM4NEJFODQiIHJ4PSIzIiByeT0iMyIgc3R5bGU9InN0cm9rZTojMDM4MDQ4O3N0cm9rZS13aWR0aDoxLjA7Ii8+PHRleHQgZmlsbD0iIzAwMDAwMCIgZm9udC1mYW1pbHk9InNhbnMtc2VyaWYiIGZvbnQtc2l6ZT0iMTQiIGxlbmd0aEFkanVzdD0ic3BhY2luZyIgdGV4dExlbmd0aD0iMjgzIiB4PSIyMDcuNSIgeT0iNzcwLjUzMTMiPnN0ZDo6c3RyaW5nIGdldEluREFHRm9yQ29tcHJlc3NlZEluc3RyKCk8L3RleHQ+PGVsbGlwc2UgY3g9IjE5OC41IiBjeT0iNzgxLjI3MzQiIGZpbGw9IiM4NEJFODQiIHJ4PSIzIiByeT0iMyIgc3R5bGU9InN0cm9rZTojMDM4MDQ4O3N0cm9rZS13aWR0aDoxLjA7Ii8+PHRleHQgZmlsbD0iIzAwMDAwMCIgZm9udC1mYW1pbHk9InNhbnMtc2VyaWYiIGZvbnQtc2l6ZT0iMTQiIGxlbmd0aEFkanVzdD0ic3BhY2luZyIgdGV4dExlbmd0aD0iMTYzIiB4PSIyMDcuNSIgeT0iNzg1LjUxNTYiPnN0ZDo6c3RyaW5nIGdldE91dERBRygpPC90ZXh0PjxlbGxpcHNlIGN4PSIxOTguNSIgY3k9Ijc5Ni4yNTc4IiBmaWxsPSIjODRCRTg0IiByeD0iMyIgcnk9IjMiIHN0eWxlPSJzdHJva2U6IzAzODA0ODtzdHJva2Utd2lkdGg6MS4wOyIvPjx0ZXh0IGZpbGw9IiMwMDAwMDAiIGZvbnQtZmFtaWx5PSJzYW5zLXNlcmlmIiBmb250LXNpemU9IjE0IiBsZW5ndGhBZGp1c3Q9InNwYWNpbmciIHRleHRMZW5ndGg9IjM4MCIgeD0iMjA3LjUiIHk9IjgwMC41Ij5zdGQ6OnN0cmluZyB0b0RBR1N0cmluZyh2ZWMgOiBzdGQ6OnZlY3RvciZsdDtSZWdPcGVyYW5kJmd0Oyk8L3RleHQ+PGVsbGlwc2UgY3g9IjE5OC41IiBjeT0iODExLjI0MjIiIGZpbGw9IiM4NEJFODQiIHJ4PSIzIiByeT0iMyIgc3R5bGU9InN0cm9rZTojMDM4MDQ4O3N0cm9rZS13aWR0aDoxLjA7Ii8+PHRleHQgZmlsbD0iIzAwMDAwMCIgZm9udC1mYW1pbHk9InNhbnMtc2VyaWYiIGZvbnQtc2l6ZT0iMTQiIGxlbmd0aEFkanVzdD0ic3BhY2luZyIgdGV4dExlbmd0aD0iMTk5IiB4PSIyMDcuNSIgeT0iODE1LjQ4NDQiPnN0ZDo6c3RyaW5nIGdldEluc3RyRm9ybWF0KCk8L3RleHQ+PGVsbGlwc2UgY3g9IjE5OC41IiBjeT0iODI2LjIyNjYiIGZpbGw9IiM4NEJFODQiIHJ4PSIzIiByeT0iMyIgc3R5bGU9InN0cm9rZTojMDM4MDQ4O3N0cm9rZS13aWR0aDoxLjA7Ii8+PHRleHQgZmlsbD0iIzAwMDAwMCIgZm9udC1mYW1pbHk9InNhbnMtc2VyaWYiIGZvbnQtc2l6ZT0iMTQiIGxlbmd0aEFkanVzdD0ic3BhY2luZyIgdGV4dExlbmd0aD0iMTk5IiB4PSIyMDcuNSIgeT0iODMwLjQ2ODgiPnN0ZDo6c3RyaW5nIGdldEJ1aWx0aW5OYW1lKCk8L3RleHQ+PGVsbGlwc2UgY3g9IjE5OC41IiBjeT0iODQxLjIxMDkiIGZpbGw9IiM4NEJFODQiIHJ4PSIzIiByeT0iMyIgc3R5bGU9InN0cm9rZTojMDM4MDQ4O3N0cm9rZS13aWR0aDoxLjA7Ii8+PHRleHQgZmlsbD0iIzAwMDAwMCIgZm9udC1mYW1pbHk9InNhbnMtc2VyaWYiIGZvbnQtc2l6ZT0iMTQiIGxlbmd0aEFkanVzdD0ic3BhY2luZyIgdGV4dExlbmd0aD0iMjIwIiB4PSIyMDcuNSIgeT0iODQ1LjQ1MzEiPnN0ZDo6c3RyaW5nIGdldEluc3RyaW5zaWNOYW1lKCk8L3RleHQ+PGVsbGlwc2UgY3g9IjE5OC41IiBjeT0iODU2LjE5NTMiIGZpbGw9IiM4NEJFODQiIHJ4PSIzIiByeT0iMyIgc3R5bGU9InN0cm9rZTojMDM4MDQ4O3N0cm9rZS13aWR0aDoxLjA7Ii8+PHRleHQgZmlsbD0iIzAwMDAwMCIgZm9udC1mYW1pbHk9InNhbnMtc2VyaWYiIGZvbnQtc2l6ZT0iMTQiIGxlbmd0aEFkanVzdD0ic3BhY2luZyIgdGV4dExlbmd0aD0iMTg1IiB4PSIyMDcuNSIgeT0iODYwLjQzNzUiPnN0ZDo6c3RyaW5nIGdldEluc3RyTmFtZSgpPC90ZXh0PjxlbGxpcHNlIGN4PSIxOTguNSIgY3k9Ijg3MS4xNzk3IiBmaWxsPSIjODRCRTg0IiByeD0iMyIgcnk9IjMiIHN0eWxlPSJzdHJva2U6IzAzODA0ODtzdHJva2Utd2lkdGg6MS4wOyIvPjx0ZXh0IGZpbGw9IiMwMDAwMDAiIGZvbnQtZmFtaWx5PSJzYW5zLXNlcmlmIiBmb250LXNpemU9IjE0IiBsZW5ndGhBZGp1c3Q9InNwYWNpbmciIHRleHRMZW5ndGg9IjE1NiIgeD0iMjA3LjUiIHk9Ijg3NS40MjE5Ij51bnNpZ25lZCBnZXRJbnN0ckxlbigpPC90ZXh0PjxlbGxpcHNlIGN4PSIxOTguNSIgY3k9Ijg4Ni4xNjQxIiBmaWxsPSIjODRCRTg0IiByeD0iMyIgcnk9IjMiIHN0eWxlPSJzdHJva2U6IzAzODA0ODtzdHJva2Utd2lkdGg6MS4wOyIvPjx0ZXh0IGZpbGw9IiMwMDAwMDAiIGZvbnQtZmFtaWx5PSJzYW5zLXNlcmlmIiBmb250LXNpemU9IjE0IiBsZW5ndGhBZGp1c3Q9InNwYWNpbmciIHRleHRMZW5ndGg9IjIwNSIgeD0iMjA3LjUiIHk9Ijg5MC40MDYzIj5zdGQ6OnN0cmluZyBnZXRCaW5hcnlTdHJpbmcoKTwvdGV4dD48ZWxsaXBzZSBjeD0iMTk4LjUiIGN5PSI5MDEuMTQ4NCIgZmlsbD0iIzg0QkU4NCIgcng9IjMiIHJ5PSIzIiBzdHlsZT0ic3Ryb2tlOiMwMzgwNDg7c3Ryb2tlLXdpZHRoOjEuMDsiLz48dGV4dCBmaWxsPSIjMDAwMDAwIiBmb250LWZhbWlseT0ic2Fucy1zZXJpZiIgZm9udC1zaXplPSIxNCIgbGVuZ3RoQWRqdXN0PSJzcGFjaW5nIiB0ZXh0TGVuZ3RoPSIyMDUiIHg9IjIwNy41IiB5PSI5MDUuMzkwNiI+c3RkOjpzdHJpbmcgZ2V0U3ludGF4U3RyaW5nKCk8L3RleHQ+PGVsbGlwc2UgY3g9IjE5OC41IiBjeT0iOTE2LjEzMjgiIGZpbGw9IiM4NEJFODQiIHJ4PSIzIiByeT0iMyIgc3R5bGU9InN0cm9rZTojMDM4MDQ4O3N0cm9rZS13aWR0aDoxLjA7Ii8+PHRleHQgZmlsbD0iIzAwMDAwMCIgZm9udC1mYW1pbHk9InNhbnMtc2VyaWYiIGZvbnQtc2l6ZT0iMTQiIGxlbmd0aEFkanVzdD0ic3BhY2luZyIgdGV4dExlbmd0aD0iMjM0IiB4PSIyMDcuNSIgeT0iOTIwLjM3NSI+c3RkOjpzdHJpbmcgZ2V0SW5zdHJGb3JtYXRGb3JURCgpPC90ZXh0PjxlbGxpcHNlIGN4PSIxOTguNSIgY3k9IjkzMS4xMTcyIiBmaWxsPSIjODRCRTg0IiByeD0iMyIgcnk9IjMiIHN0eWxlPSJzdHJva2U6IzAzODA0ODtzdHJva2Utd2lkdGg6MS4wOyIvPjx0ZXh0IGZpbGw9IiMwMDAwMDAiIGZvbnQtZmFtaWx5PSJzYW5zLXNlcmlmIiBmb250LXNpemU9IjE0IiBsZW5ndGhBZGp1c3Q9InNwYWNpbmciIHRleHRMZW5ndGg9IjE2MyIgeD0iMjA3LjUiIHk9IjkzNS4zNTk0Ij51bnNpZ25lZCBnZXRJbnN0clR5cGUoKTwvdGV4dD48ZWxsaXBzZSBjeD0iMTk4LjUiIGN5PSI5NDYuMTAxNiIgZmlsbD0iIzg0QkU4NCIgcng9IjMiIHJ5PSIzIiBzdHlsZT0ic3Ryb2tlOiMwMzgwNDg7c3Ryb2tlLXdpZHRoOjEuMDsiLz48dGV4dCBmaWxsPSIjMDAwMDAwIiBmb250LWZhbWlseT0ic2Fucy1zZXJpZiIgZm9udC1zaXplPSIxNCIgbGVuZ3RoQWRqdXN0PSJzcGFjaW5nIiB0ZXh0TGVuZ3RoPSIyMDUiIHg9IjIwNy41IiB5PSI5NTAuMzQzOCI+c3RkOjpzdHJpbmcgZ2V0SW5zdHJQYXR0ZXJuKCk8L3RleHQ+PGVsbGlwc2UgY3g9IjE5OC41IiBjeT0iOTYxLjA4NTkiIGZpbGw9IiM4NEJFODQiIHJ4PSIzIiByeT0iMyIgc3R5bGU9InN0cm9rZTojMDM4MDQ4O3N0cm9rZS13aWR0aDoxLjA7Ii8+PHRleHQgZmlsbD0iIzAwMDAwMCIgZm9udC1mYW1pbHk9InNhbnMtc2VyaWYiIGZvbnQtc2l6ZT0iMTQiIGxlbmd0aEFkanVzdD0ic3BhY2luZyIgdGV4dExlbmd0aD0iMTc3IiB4PSIyMDcuNSIgeT0iOTY1LjMyODEiPldpbmdDR1R5cGUqIGdldFZlY3RvclZUKCk8L3RleHQ+PGVsbGlwc2UgY3g9IjE5OC41IiBjeT0iOTc2LjA3MDMiIGZpbGw9IiM4NEJFODQiIHJ4PSIzIiByeT0iMyIgc3R5bGU9InN0cm9rZTojMDM4MDQ4O3N0cm9rZS13aWR0aDoxLjA7Ii8+PHRleHQgZmlsbD0iIzAwMDAwMCIgZm9udC1mYW1pbHk9InNhbnMtc2VyaWYiIGZvbnQtc2l6ZT0iMTQiIGxlbmd0aEFkanVzdD0ic3BhY2luZyIgdGV4dExlbmd0aD0iMTI4IiB4PSIyMDcuNSIgeT0iOTgwLjMxMjUiPmF1dG8mYW1wOyBnZXRSZWdSZWFkKCk8L3RleHQ+PGVsbGlwc2UgY3g9IjE5OC41IiBjeT0iOTkxLjA1NDciIGZpbGw9IiM4NEJFODQiIHJ4PSIzIiByeT0iMyIgc3R5bGU9InN0cm9rZTojMDM4MDQ4O3N0cm9rZS13aWR0aDoxLjA7Ii8+PHRleHQgZmlsbD0iIzAwMDAwMCIgZm9udC1mYW1pbHk9InNhbnMtc2VyaWYiIGZvbnQtc2l6ZT0iMTQiIGxlbmd0aEFkanVzdD0ic3BhY2luZyIgdGV4dExlbmd0aD0iMTM1IiB4PSIyMDcuNSIgeT0iOTk1LjI5NjkiPmF1dG8mYW1wOyBnZXRSZWdXcml0ZSgpPC90ZXh0PjxlbGxpcHNlIGN4PSIxOTguNSIgY3k9IjEwMDYuMDM5MSIgZmlsbD0iIzg0QkU4NCIgcng9IjMiIHJ5PSIzIiBzdHlsZT0ic3Ryb2tlOiMwMzgwNDg7c3Ryb2tlLXdpZHRoOjEuMDsiLz48dGV4dCBmaWxsPSIjMDAwMDAwIiBmb250LWZhbWlseT0ic2Fucy1zZXJpZiIgZm9udC1zaXplPSIxNCIgbGVuZ3RoQWRqdXN0PSJzcGFjaW5nIiB0ZXh0TGVuZ3RoPSIxMDkiIHg9IjIwNy41IiB5PSIxMDEwLjI4MTMiPmF1dG8mYW1wOyBnZXRJbW1zKCk8L3RleHQ+PGVsbGlwc2UgY3g9IjE5OC41IiBjeT0iMTAyMS4wMjM0IiBmaWxsPSIjODRCRTg0IiByeD0iMyIgcnk9IjMiIHN0eWxlPSJzdHJva2U6IzAzODA0ODtzdHJva2Utd2lkdGg6MS4wOyIvPjx0ZXh0IGZpbGw9IiMwMDAwMDAiIGZvbnQtZmFtaWx5PSJzYW5zLXNlcmlmIiBmb250LXNpemU9IjE0IiBsZW5ndGhBZGp1c3Q9InNwYWNpbmciIHRleHRMZW5ndGg9IjE1MSIgeD0iMjA3LjUiIHk9IjEwMjUuMjY1NiI+dm9pZCBzZXRJc0p1bXBJbnN0cigpPC90ZXh0PjxlbGxpcHNlIGN4PSIxOTguNSIgY3k9IjEwMzYuMDA3OCIgZmlsbD0iIzg0QkU4NCIgcng9IjMiIHJ5PSIzIiBzdHlsZT0ic3Ryb2tlOiMwMzgwNDg7c3Ryb2tlLXdpZHRoOjEuMDsiLz48dGV4dCBmaWxsPSIjMDAwMDAwIiBmb250LWZhbWlseT0ic2Fucy1zZXJpZiIgZm9udC1zaXplPSIxNCIgbGVuZ3RoQWRqdXN0PSJzcGFjaW5nIiB0ZXh0TGVuZ3RoPSIxMTQiIHg9IjIwNy41IiB5PSIxMDQwLjI1Ij52b2lkIHNldElzTG9hZCgpPC90ZXh0PjxlbGxpcHNlIGN4PSIxOTguNSIgY3k9IjEwNTAuOTkyMiIgZmlsbD0iIzg0QkU4NCIgcng9IjMiIHJ5PSIzIiBzdHlsZT0ic3Ryb2tlOiMwMzgwNDg7c3Ryb2tlLXdpZHRoOjEuMDsiLz48dGV4dCBmaWxsPSIjMDAwMDAwIiBmb250LWZhbWlseT0ic2Fucy1zZXJpZiIgZm9udC1zaXplPSIxNCIgbGVuZ3RoQWRqdXN0PSJzcGFjaW5nIiB0ZXh0TGVuZ3RoPSIxMjEiIHg9IjIwNy41IiB5PSIxMDU1LjIzNDQiPnZvaWQgc2V0SXNTdG9yZSgpPC90ZXh0PjxlbGxpcHNlIGN4PSIxOTguNSIgY3k9IjEwNjUuOTc2NiIgZmlsbD0iIzg0QkU4NCIgcng9IjMiIHJ5PSIzIiBzdHlsZT0ic3Ryb2tlOiMwMzgwNDg7c3Ryb2tlLXdpZHRoOjEuMDsiLz48dGV4dCBmaWxsPSIjMDAwMDAwIiBmb250LWZhbWlseT0ic2Fucy1zZXJpZiIgZm9udC1zaXplPSIxNCIgbGVuZ3RoQWRqdXN0PSJzcGFjaW5nIiB0ZXh0TGVuZ3RoPSI5MyIgeD0iMjA3LjUiIHk9IjEwNzAuMjE4OCI+Ym9vbCBpc0xvYWQoKTwvdGV4dD48ZWxsaXBzZSBjeD0iMTk4LjUiIGN5PSIxMDgwLjk2MDkiIGZpbGw9IiM4NEJFODQiIHJ4PSIzIiByeT0iMyIgc3R5bGU9InN0cm9rZTojMDM4MDQ4O3N0cm9rZS13aWR0aDoxLjA7Ii8+PHRleHQgZmlsbD0iIzAwMDAwMCIgZm9udC1mYW1pbHk9InNhbnMtc2VyaWYiIGZvbnQtc2l6ZT0iMTQiIGxlbmd0aEFkanVzdD0ic3BhY2luZyIgdGV4dExlbmd0aD0iMTAwIiB4PSIyMDcuNSIgeT0iMTA4NS4yMDMxIj5ib29sIGlzU3RvcmUoKTwvdGV4dD48ZWxsaXBzZSBjeD0iMTk4LjUiIGN5PSIxMDk1Ljk0NTMiIGZpbGw9IiM4NEJFODQiIHJ4PSIzIiByeT0iMyIgc3R5bGU9InN0cm9rZTojMDM4MDQ4O3N0cm9rZS13aWR0aDoxLjA7Ii8+PHRleHQgZmlsbD0iIzAwMDAwMCIgZm9udC1mYW1pbHk9InNhbnMtc2VyaWYiIGZvbnQtc2l6ZT0iMTQiIGxlbmd0aEFkanVzdD0ic3BhY2luZyIgdGV4dExlbmd0aD0iMTA3IiB4PSIyMDcuNSIgeT0iMTEwMC4xODc1Ij5ib29sIGlzVmVjdG9yKCk8L3RleHQ+PGVsbGlwc2UgY3g9IjE5OC41IiBjeT0iMTExMC45Mjk3IiBmaWxsPSIjODRCRTg0IiByeD0iMyIgcnk9IjMiIHN0eWxlPSJzdHJva2U6IzAzODA0ODtzdHJva2Utd2lkdGg6MS4wOyIvPjx0ZXh0IGZpbGw9IiMwMDAwMDAiIGZvbnQtZmFtaWx5PSJzYW5zLXNlcmlmIiBmb250LXNpemU9IjE0IiBsZW5ndGhBZGp1c3Q9InNwYWNpbmciIHRleHRMZW5ndGg9IjE3MSIgeD0iMjA3LjUiIHk9IjExMTUuMTcxOSI+Ym9vbCBpc0NvbXByZXNzZWRJbnN0cigpPC90ZXh0PjxlbGxpcHNlIGN4PSIxOTguNSIgY3k9IjExMjUuOTE0MSIgZmlsbD0iIzg0QkU4NCIgcng9IjMiIHJ5PSIzIiBzdHlsZT0ic3Ryb2tlOiMwMzgwNDg7c3Ryb2tlLXdpZHRoOjEuMDsiLz48dGV4dCBmaWxsPSIjMDAwMDAwIiBmb250LWZhbWlseT0ic2Fucy1zZXJpZiIgZm9udC1zaXplPSIxNCIgbGVuZ3RoQWRqdXN0PSJzcGFjaW5nIiB0ZXh0TGVuZ3RoPSIyODMiIHg9IjIwNy41IiB5PSIxMTMwLjE1NjMiPnN0ZDo6c3RyaW5nIGdldEluc3RyRm9yQ29tcHJlc3NlZEluc3RyKCk8L3RleHQ+PC9nPjwhLS1jbGFzcyBSZWdPcGVyYW5kLS0+PGcgaWQ9ImVsZW1fUmVnT3BlcmFuZCI+PHJlY3QgY29kZUxpbmU9Ijc2IiBmaWxsPSIjRjFGMUYxIiBoZWlnaHQ9IjI4Ny43NSIgaWQ9IlJlZ09wZXJhbmQiIHJ4PSIyLjUiIHJ5PSIyLjUiIHN0eWxlPSJzdHJva2U6IzE4MTgxODtzdHJva2Utd2lkdGg6MC41OyIgd2lkdGg9IjgxNCIgeD0iMjEyIiB5PSIxMjExIi8+PGVsbGlwc2UgY3g9IjU3OS43NSIgY3k9IjEyMjciIGZpbGw9IiNBREQxQjIiIHJ4PSIxMSIgcnk9IjExIiBzdHlsZT0ic3Ryb2tlOiMxODE4MTg7c3Ryb2tlLXdpZHRoOjEuMDsiLz48cGF0aCBkPSJNNTc3LjM3NSwxMjMxLjI1IEw1NzcuMzc1LDEyMzMgTDU4Mi4zMTI1LDEyMzMgTDU4Mi4zMTI1LDEyMzEuMjUgTDU3Ny4zNzUsMTIzMS4yNSBaIE01NzguMDYyNSwxMjMxLjkzNzUgUTU3OC4wNjI1LDEyMzEuOTM3NSA1NzguMDYyNSwxMjIyLjc1IEw1NzYuMzEyNSwxMjIyLjc1IFE1NzYuMzEyNSwxMjIyLjc1IDU3Ni4zMTI1LDEyMzEuOTM3NSBMNTc4LjA2MjUsMTIzMS45Mzc1IFogTTU4MS42MjUsMTIzMS45Mzc1IEw1ODMuMzc1LDEyMzEuOTM3NSBRNTgzLjM3NSwxMjMxLjkzNzUgNTgzLjM3NSwxMjI5LjEyNSBMNTgxLjYyNSwxMjI5LjEyNSBRNTgxLjYyNSwxMjI5LjEyNSA1ODEuNjI1LDEyMzEuOTM3NSBaIE01ODEuNjI1LDEyMjIuNzUgUTU4MS42MjUsMTIyMi43NSA1ODEuNjI1LDEyMjUuNTYyNSBMNTgzLjM3NSwxMjI1LjU2MjUgUTU4My4zNzUsMTIyNS41NjI1IDU4My4zNzUsMTIyMi43NSBMNTgxLjYyNSwxMjIyLjc1IFogTTU3Ny4zNzUsMTIyMy40Mzc1IEw1ODIuMzEyNSwxMjIzLjQzNzUgTDU4Mi4zMTI1LDEyMjEuNjg3NSBMNTc3LjM3NSwxMjIxLjY4NzUgTDU3Ny4zNzUsMTIyMy40Mzc1IFogIiBmaWxsPSIjMDAwMDAwIi8+PHRleHQgZmlsbD0iIzAwMDAwMCIgZm9udC1mYW1pbHk9InNhbnMtc2VyaWYiIGZvbnQtc2l6ZT0iMTQiIGxlbmd0aEFkanVzdD0ic3BhY2luZyIgdGV4dExlbmd0aD0iNzAiIHg9IjYwMC4yNSIgeT0iMTIzMi43NDIyIj5SZWdPcGVyYW5kPC90ZXh0PjxsaW5lIHN0eWxlPSJzdHJva2U6IzE4MTgxODtzdHJva2Utd2lkdGg6MC41OyIgeDE9IjIxMyIgeDI9IjEwMjUiIHkxPSIxMjQzIiB5Mj0iMTI0MyIvPjxlbGxpcHNlIGN4PSIyMjMiIGN5PSIxMjU1Ljk5MjIiIGZpbGw9Im5vbmUiIHJ4PSIzIiByeT0iMyIgc3R5bGU9InN0cm9rZTojMDM4MDQ4O3N0cm9rZS13aWR0aDoxLjA7Ii8+PHRleHQgZmlsbD0iIzAwMDAwMCIgZm9udC1mYW1pbHk9InNhbnMtc2VyaWYiIGZvbnQtc2l6ZT0iMTQiIGxlbmd0aEFkanVzdD0ic3BhY2luZyIgdGV4dExlbmd0aD0iMTQ4IiB4PSIyMzIiIHk9IjEyNjAuMjM0NCI+c3RkOjpzdHJpbmcgbG9jYWxOYW1lPC90ZXh0PjxlbGxpcHNlIGN4PSIyMjMiIGN5PSIxMjcwLjk3NjYiIGZpbGw9Im5vbmUiIHJ4PSIzIiByeT0iMyIgc3R5bGU9InN0cm9rZTojMDM4MDQ4O3N0cm9rZS13aWR0aDoxLjA7Ii8+PHRleHQgZmlsbD0iIzAwMDAwMCIgZm9udC1mYW1pbHk9InNhbnMtc2VyaWYiIGZvbnQtc2l6ZT0iMTQiIGxlbmd0aEFkanVzdD0ic3BhY2luZyIgdGV4dExlbmd0aD0iMTgzIiB4PSIyMzIiIHk9IjEyNzUuMjE4OCI+c3RkOjpzdHJpbmcgcmVnT3BlcmFuZE5hbWU8L3RleHQ+PGVsbGlwc2UgY3g9IjIyMyIgY3k9IjEyODUuOTYwOSIgZmlsbD0ibm9uZSIgcng9IjMiIHJ5PSIzIiBzdHlsZT0ic3Ryb2tlOiMwMzgwNDg7c3Ryb2tlLXdpZHRoOjEuMDsiLz48dGV4dCBmaWxsPSIjMDAwMDAwIiBmb250LWZhbWlseT0ic2Fucy1zZXJpZiIgZm9udC1zaXplPSIxNCIgbGVuZ3RoQWRqdXN0PSJzcGFjaW5nIiB0ZXh0TGVuZ3RoPSIxMzMiIHg9IjIzMiIgeT0iMTI5MC4yMDMxIj5SZWdPcGVyYW5kVHlwZSB0eXBlPC90ZXh0PjxlbGxpcHNlIGN4PSIyMjMiIGN5PSIxMzAwLjk0NTMiIGZpbGw9Im5vbmUiIHJ4PSIzIiByeT0iMyIgc3R5bGU9InN0cm9rZTojMDM4MDQ4O3N0cm9rZS13aWR0aDoxLjA7Ii8+PHRleHQgZmlsbD0iIzAwMDAwMCIgZm9udC1mYW1pbHk9InNhbnMtc2VyaWYiIGZvbnQtc2l6ZT0iMTQiIGxlbmd0aEFkanVzdD0ic3BhY2luZyIgdGV4dExlbmd0aD0iMTgzIiB4PSIyMzIiIHk9IjEzMDUuMTg3NSI+c3RkOjpzdHJpbmcgbG9jYWxOYW1lV3JpdGU8L3RleHQ+PGVsbGlwc2UgY3g9IjIyMyIgY3k9IjEzMTUuOTI5NyIgZmlsbD0ibm9uZSIgcng9IjMiIHJ5PSIzIiBzdHlsZT0ic3Ryb2tlOiMwMzgwNDg7c3Ryb2tlLXdpZHRoOjEuMDsiLz48dGV4dCBmaWxsPSIjMDAwMDAwIiBmb250LWZhbWlseT0ic2Fucy1zZXJpZiIgZm9udC1zaXplPSIxNCIgbGVuZ3RoQWRqdXN0PSJzcGFjaW5nIiB0ZXh0TGVuZ3RoPSIxNDAiIHg9IjIzMiIgeT0iMTMyMC4xNzE5Ij5XaW5nQ0dUeXBlIHZhbHVlVHlwZTwvdGV4dD48bGluZSBzdHlsZT0ic3Ryb2tlOiMxODE4MTg7c3Ryb2tlLXdpZHRoOjAuNTsiIHgxPSIyMTMiIHgyPSIxMDI1IiB5MT0iMTMyNS45MjE5IiB5Mj0iMTMyNS45MjE5Ii8+PGVsbGlwc2UgY3g9IjIyMyIgY3k9IjEzMzguOTE0MSIgZmlsbD0iIzg0QkU4NCIgcng9IjMiIHJ5PSIzIiBzdHlsZT0ic3Ryb2tlOiMwMzgwNDg7c3Ryb2tlLXdpZHRoOjEuMDsiLz48dGV4dCBmaWxsPSIjMDAwMDAwIiBmb250LWZhbWlseT0ic2Fucy1zZXJpZiIgZm9udC1zaXplPSIxNCIgbGVuZ3RoQWRqdXN0PSJzcGFjaW5nIiB0ZXh0TGVuZ3RoPSI3ODgiIHg9IjIzMiIgeT0iMTM0My4xNTYzIj5SZWdPcGVyYW5kKGxvY2FsTmFtZSA6IHN0ZDo6c3RyaW5nLCByZWdPcGVyYW5kTmFtZSA6IHN0ZDo6c3RyaW5nLCB0eXBlIDogUmVnT3BlcmFuZFR5cGUsIHZhbHVlVHlwZSA6IFdpbmdDR1R5cGUpPC90ZXh0PjxlbGxpcHNlIGN4PSIyMjMiIGN5PSIxMzUzLjg5ODQiIGZpbGw9IiM4NEJFODQiIHJ4PSIzIiByeT0iMyIgc3R5bGU9InN0cm9rZTojMDM4MDQ4O3N0cm9rZS13aWR0aDoxLjA7Ii8+PHRleHQgZmlsbD0iIzAwMDAwMCIgZm9udC1mYW1pbHk9InNhbnMtc2VyaWYiIGZvbnQtc2l6ZT0iMTQiIGxlbmd0aEFkanVzdD0ic3BhY2luZyIgdGV4dExlbmd0aD0iMjQ3IiB4PSIyMzIiIHk9IjEzNTguMTQwNiI+Ym9vbCBvcGVyYXRvcj09KG90aGVyIDogUmVnT3BlcmFuZCk8L3RleHQ+PGVsbGlwc2UgY3g9IjIyMyIgY3k9IjEzNjguODgyOCIgZmlsbD0iIzg0QkU4NCIgcng9IjMiIHJ5PSIzIiBzdHlsZT0ic3Ryb2tlOiMwMzgwNDg7c3Ryb2tlLXdpZHRoOjEuMDsiLz48dGV4dCBmaWxsPSIjMDAwMDAwIiBmb250LWZhbWlseT0ic2Fucy1zZXJpZiIgZm9udC1zaXplPSIxNCIgbGVuZ3RoQWRqdXN0PSJzcGFjaW5nIiB0ZXh0TGVuZ3RoPSIyNDAiIHg9IjIzMiIgeT0iMTM3My4xMjUiPmJvb2wgb3BlcmF0b3ImbHQ7KG90aGVyIDogUmVnT3BlcmFuZCk8L3RleHQ+PGVsbGlwc2UgY3g9IjIyMyIgY3k9IjEzODMuODY3MiIgZmlsbD0iIzg0QkU4NCIgcng9IjMiIHJ5PSIzIiBzdHlsZT0ic3Ryb2tlOiMwMzgwNDg7c3Ryb2tlLXdpZHRoOjEuMDsiLz48dGV4dCBmaWxsPSIjMDAwMDAwIiBmb250LWZhbWlseT0ic2Fucy1zZXJpZiIgZm9udC1zaXplPSIxNCIgbGVuZ3RoQWRqdXN0PSJzcGFjaW5nIiB0ZXh0TGVuZ3RoPSIyNDAiIHg9IjIzMiIgeT0iMTM4OC4xMDk0Ij5XaW5nQ0dSZWdPcGVyYW5kKiBnZXRSZWdPcGVyYW5kUCgpPC90ZXh0PjxlbGxpcHNlIGN4PSIyMjMiIGN5PSIxMzk4Ljg1MTYiIGZpbGw9IiM4NEJFODQiIHJ4PSIzIiByeT0iMyIgc3R5bGU9InN0cm9rZTojMDM4MDQ4O3N0cm9rZS13aWR0aDoxLjA7Ii8+PHRleHQgZmlsbD0iIzAwMDAwMCIgZm9udC1mYW1pbHk9InNhbnMtc2VyaWYiIGZvbnQtc2l6ZT0iMTQiIGxlbmd0aEFkanVzdD0ic3BhY2luZyIgdGV4dExlbmd0aD0iMzI0IiB4PSIyMzIiIHk9IjE0MDMuMDkzOCI+c3RkOjp2ZWN0b3ImbHQ7V2luZ0NHSW5zdHJJbmZvKiZndDsgJmFtcDtnZXRMb2FkSW5zdHJzKCk8L3RleHQ+PGVsbGlwc2UgY3g9IjIyMyIgY3k9IjE0MTMuODM1OSIgZmlsbD0iIzg0QkU4NCIgcng9IjMiIHJ5PSIzIiBzdHlsZT0ic3Ryb2tlOiMwMzgwNDg7c3Ryb2tlLXdpZHRoOjEuMDsiLz48dGV4dCBmaWxsPSIjMDAwMDAwIiBmb250LWZhbWlseT0ic2Fucy1zZXJpZiIgZm9udC1zaXplPSIxNCIgbGVuZ3RoQWRqdXN0PSJzcGFjaW5nIiB0ZXh0TGVuZ3RoPSIzMzEiIHg9IjIzMiIgeT0iMTQxOC4wNzgxIj5zdGQ6OnZlY3RvciZsdDtXaW5nQ0dJbnN0ckluZm8qJmd0OyAmYW1wO2dldFN0b3JlSW5zdHJzKCk8L3RleHQ+PGVsbGlwc2UgY3g9IjIyMyIgY3k9IjE0MjguODIwMyIgZmlsbD0iIzg0QkU4NCIgcng9IjMiIHJ5PSIzIiBzdHlsZT0ic3Ryb2tlOiMwMzgwNDg7c3Ryb2tlLXdpZHRoOjEuMDsiLz48dGV4dCBmaWxsPSIjMDAwMDAwIiBmb250LWZhbWlseT0ic2Fucy1zZXJpZiIgZm9udC1zaXplPSIxNCIgbGVuZ3RoQWRqdXN0PSJzcGFjaW5nIiB0ZXh0TGVuZ3RoPSI4NiIgeD0iMjMyIiB5PSIxNDMzLjA2MjUiPmJvb2wgaXNHUFIoKTwvdGV4dD48ZWxsaXBzZSBjeD0iMjIzIiBjeT0iMTQ0My44MDQ3IiBmaWxsPSIjODRCRTg0IiByeD0iMyIgcnk9IjMiIHN0eWxlPSJzdHJva2U6IzAzODA0ODtzdHJva2Utd2lkdGg6MS4wOyIvPjx0ZXh0IGZpbGw9IiMwMDAwMDAiIGZvbnQtZmFtaWx5PSJzYW5zLXNlcmlmIiBmb250LXNpemU9IjE0IiBsZW5ndGhBZGp1c3Q9InNwYWNpbmciIHRleHRMZW5ndGg9IjEwNyIgeD0iMjMyIiB5PSIxNDQ4LjA0NjkiPmJvb2wgaXNWZWN0b3IoKTwvdGV4dD48ZWxsaXBzZSBjeD0iMjIzIiBjeT0iMTQ1OC43ODkxIiBmaWxsPSIjODRCRTg0IiByeD0iMyIgcnk9IjMiIHN0eWxlPSJzdHJva2U6IzAzODA0ODtzdHJva2Utd2lkdGg6MS4wOyIvPjx0ZXh0IGZpbGw9IiMwMDAwMDAiIGZvbnQtZmFtaWx5PSJzYW5zLXNlcmlmIiBmb250LXNpemU9IjE0IiBsZW5ndGhBZGp1c3Q9InNwYWNpbmciIHRleHRMZW5ndGg9IjE0MiIgeD0iMjMyIiB5PSIxNDYzLjAzMTMiPnZvaWQgZ2VuVmVjdG9ySW5mbygpPC90ZXh0PjxlbGxpcHNlIGN4PSIyMjMiIGN5PSIxNDczLjc3MzQiIGZpbGw9IiM4NEJFODQiIHJ4PSIzIiByeT0iMyIgc3R5bGU9InN0cm9rZTojMDM4MDQ4O3N0cm9rZS13aWR0aDoxLjA7Ii8+PHRleHQgZmlsbD0iIzAwMDAwMCIgZm9udC1mYW1pbHk9InNhbnMtc2VyaWYiIGZvbnQtc2l6ZT0iMTQiIGxlbmd0aEFkanVzdD0ic3BhY2luZyIgdGV4dExlbmd0aD0iMTM1IiB4PSIyMzIiIHk9IjE0NzguMDE1NiI+c3RkOjpzdHJpbmcgZ2V0VlQoKTwvdGV4dD48ZWxsaXBzZSBjeD0iMjIzIiBjeT0iMTQ4OC43NTc4IiBmaWxsPSIjODRCRTg0IiByeD0iMyIgcnk9IjMiIHN0eWxlPSJzdHJva2U6IzAzODA0ODtzdHJva2Utd2lkdGg6MS4wOyIvPjx0ZXh0IGZpbGw9IiMwMDAwMDAiIGZvbnQtZmFtaWx5PSJzYW5zLXNlcmlmIiBmb250LXNpemU9IjE0IiBsZW5ndGhBZGp1c3Q9InNwYWNpbmciIHRleHRMZW5ndGg9IjIzNCIgeD0iMjMyIiB5PSIxNDkzIj5zdGQ6OnN0cmluZyBnZXRSZWdPcGVyYW5kVEROYW1lKCk8L3RleHQ+PC9nPjwhLS1jbGFzcyBJbW1PcGVyYW5kLS0+PGcgaWQ9ImVsZW1fSW1tT3BlcmFuZCI+PHJlY3QgY29kZUxpbmU9Ijk2IiBmaWxsPSIjRjFGMUYxIiBoZWlnaHQ9IjE2Ny44NzUiIGlkPSJJbW1PcGVyYW5kIiByeD0iMi41IiByeT0iMi41IiBzdHlsZT0ic3Ryb2tlOiMxODE4MTg7c3Ryb2tlLXdpZHRoOjAuNTsiIHdpZHRoPSI1OTQiIHg9IjEwNjEiIHk9IjEyNzEiLz48ZWxsaXBzZSBjeD0iMTMxNy43NSIgY3k9IjEyODciIGZpbGw9IiNBREQxQjIiIHJ4PSIxMSIgcnk9IjExIiBzdHlsZT0ic3Ryb2tlOiMxODE4MTg7c3Ryb2tlLXdpZHRoOjEuMDsiLz48cGF0aCBkPSJNMTMxNS4zNzUsMTI5MS4yNSBMMTMxNS4zNzUsMTI5MyBMMTMyMC4zMTI1LDEyOTMgTDEzMjAuMzEyNSwxMjkxLjI1IEwxMzE1LjM3NSwxMjkxLjI1IFogTTEzMTYuMDYyNSwxMjkxLjkzNzUgUTEzMTYuMDYyNSwxMjkxLjkzNzUgMTMxNi4wNjI1LDEyODIuNzUgTDEzMTQuMzEyNSwxMjgyLjc1IFExMzE0LjMxMjUsMTI4Mi43NSAxMzE0LjMxMjUsMTI5MS45Mzc1IEwxMzE2LjA2MjUsMTI5MS45Mzc1IFogTTEzMTkuNjI1LDEyOTEuOTM3NSBMMTMyMS4zNzUsMTI5MS45Mzc1IFExMzIxLjM3NSwxMjkxLjkzNzUgMTMyMS4zNzUsMTI4OS4xMjUgTDEzMTkuNjI1LDEyODkuMTI1IFExMzE5LjYyNSwxMjg5LjEyNSAxMzE5LjYyNSwxMjkxLjkzNzUgWiBNMTMxOS42MjUsMTI4Mi43NSBRMTMxOS42MjUsMTI4Mi43NSAxMzE5LjYyNSwxMjg1LjU2MjUgTDEzMjEuMzc1LDEyODUuNTYyNSBRMTMyMS4zNzUsMTI4NS41NjI1IDEzMjEuMzc1LDEyODIuNzUgTDEzMTkuNjI1LDEyODIuNzUgWiBNMTMxNS4zNzUsMTI4My40Mzc1IEwxMzIwLjMxMjUsMTI4My40Mzc1IEwxMzIwLjMxMjUsMTI4MS42ODc1IEwxMzE1LjM3NSwxMjgxLjY4NzUgTDEzMTUuMzc1LDEyODMuNDM3NSBaICIgZmlsbD0iIzAwMDAwMCIvPjx0ZXh0IGZpbGw9IiMwMDAwMDAiIGZvbnQtZmFtaWx5PSJzYW5zLXNlcmlmIiBmb250LXNpemU9IjE0IiBsZW5ndGhBZGp1c3Q9InNwYWNpbmciIHRleHRMZW5ndGg9IjcyIiB4PSIxMzM4LjI1IiB5PSIxMjkyLjc0MjIiPkltbU9wZXJhbmQ8L3RleHQ+PGxpbmUgc3R5bGU9InN0cm9rZTojMTgxODE4O3N0cm9rZS13aWR0aDowLjU7IiB4MT0iMTA2MiIgeDI9IjE2NTQiIHkxPSIxMzAzIiB5Mj0iMTMwMyIvPjxlbGxpcHNlIGN4PSIxMDcyIiBjeT0iMTMxNS45OTIyIiBmaWxsPSJub25lIiByeD0iMyIgcnk9IjMiIHN0eWxlPSJzdHJva2U6IzAzODA0ODtzdHJva2Utd2lkdGg6MS4wOyIvPjx0ZXh0IGZpbGw9IiMwMDAwMDAiIGZvbnQtZmFtaWx5PSJzYW5zLXNlcmlmIiBmb250LXNpemU9IjE0IiBsZW5ndGhBZGp1c3Q9InNwYWNpbmciIHRleHRMZW5ndGg9IjE0OCIgeD0iMTA4MSIgeT0iMTMyMC4yMzQ0Ij5zdGQ6OnN0cmluZyBsb2NhbE5hbWU8L3RleHQ+PGVsbGlwc2UgY3g9IjEwNzIiIGN5PSIxMzMwLjk3NjYiIGZpbGw9Im5vbmUiIHJ4PSIzIiByeT0iMyIgc3R5bGU9InN0cm9rZTojMDM4MDQ4O3N0cm9rZS13aWR0aDoxLjA7Ii8+PHRleHQgZmlsbD0iIzAwMDAwMCIgZm9udC1mYW1pbHk9InNhbnMtc2VyaWYiIGZvbnQtc2l6ZT0iMTQiIGxlbmd0aEFkanVzdD0ic3BhY2luZyIgdGV4dExlbmd0aD0iMTg1IiB4PSIxMDgxIiB5PSIxMzM1LjIxODgiPnN0ZDo6c3RyaW5nIGltbU9wZXJhbmROYW1lPC90ZXh0PjxlbGxpcHNlIGN4PSIxMDcyIiBjeT0iMTM0NS45NjA5IiBmaWxsPSJub25lIiByeD0iMyIgcnk9IjMiIHN0eWxlPSJzdHJva2U6IzAzODA0ODtzdHJva2Utd2lkdGg6MS4wOyIvPjx0ZXh0IGZpbGw9IiMwMDAwMDAiIGZvbnQtZmFtaWx5PSJzYW5zLXNlcmlmIiBmb250LXNpemU9IjE0IiBsZW5ndGhBZGp1c3Q9InNwYWNpbmciIHRleHRMZW5ndGg9Ijc3IiB4PSIxMDgxIiB5PSIxMzUwLjIwMzEiPmJvb2wgaXNTaWduPC90ZXh0PjxlbGxpcHNlIGN4PSIxMDcyIiBjeT0iMTM2MC45NDUzIiBmaWxsPSJub25lIiByeD0iMyIgcnk9IjMiIHN0eWxlPSJzdHJva2U6IzAzODA0ODtzdHJva2Utd2lkdGg6MS4wOyIvPjx0ZXh0IGZpbGw9IiMwMDAwMDAiIGZvbnQtZmFtaWx5PSJzYW5zLXNlcmlmIiBmb250LXNpemU9IjE0IiBsZW5ndGhBZGp1c3Q9InNwYWNpbmciIHRleHRMZW5ndGg9IjE0MCIgeD0iMTA4MSIgeT0iMTM2NS4xODc1Ij5XaW5nQ0dUeXBlIHZhbHVlVHlwZTwvdGV4dD48bGluZSBzdHlsZT0ic3Ryb2tlOiMxODE4MTg7c3Ryb2tlLXdpZHRoOjAuNTsiIHgxPSIxMDYyIiB4Mj0iMTY1NCIgeTE9IjEzNzAuOTM3NSIgeTI9IjEzNzAuOTM3NSIvPjxlbGxpcHNlIGN4PSIxMDcyIiBjeT0iMTM4My45Mjk3IiBmaWxsPSIjODRCRTg0IiByeD0iMyIgcnk9IjMiIHN0eWxlPSJzdHJva2U6IzAzODA0ODtzdHJva2Utd2lkdGg6MS4wOyIvPjx0ZXh0IGZpbGw9IiMwMDAwMDAiIGZvbnQtZmFtaWx5PSJzYW5zLXNlcmlmIiBmb250LXNpemU9IjE0IiBsZW5ndGhBZGp1c3Q9InNwYWNpbmciIHRleHRMZW5ndGg9IjU2OCIgeD0iMTA4MSIgeT0iMTM4OC4xNzE5Ij5JbW1PcGVyYW5kKGltbU9wZXJhbmROYW1lIDogc3RkOjpzdHJpbmcsIGxvY2FsTmFtZSA6IHN0ZDo6c3RyaW5nLCBpc1NpZ24gOiBib29sKTwvdGV4dD48ZWxsaXBzZSBjeD0iMTA3MiIgY3k9IjEzOTguOTE0MSIgZmlsbD0iIzg0QkU4NCIgcng9IjMiIHJ5PSIzIiBzdHlsZT0ic3Ryb2tlOiMwMzgwNDg7c3Ryb2tlLXdpZHRoOjEuMDsiLz48dGV4dCBmaWxsPSIjMDAwMDAwIiBmb250LWZhbWlseT0ic2Fucy1zZXJpZiIgZm9udC1zaXplPSIxNCIgbGVuZ3RoQWRqdXN0PSJzcGFjaW5nIiB0ZXh0TGVuZ3RoPSIyNDQiIHg9IjEwODEiIHk9IjE0MDMuMTU2MyI+V2luZ0NHSW1tT3BlcmFuZCogZ2V0SW1tT3BlcmFuZFAoKTwvdGV4dD48ZWxsaXBzZSBjeD0iMTA3MiIgY3k9IjE0MTMuODk4NCIgZmlsbD0iIzg0QkU4NCIgcng9IjMiIHJ5PSIzIiBzdHlsZT0ic3Ryb2tlOiMwMzgwNDg7c3Ryb2tlLXdpZHRoOjEuMDsiLz48dGV4dCBmaWxsPSIjMDAwMDAwIiBmb250LWZhbWlseT0ic2Fucy1zZXJpZiIgZm9udC1zaXplPSIxNCIgbGVuZ3RoQWRqdXN0PSJzcGFjaW5nIiB0ZXh0TGVuZ3RoPSIyMzYiIHg9IjEwODEiIHk9IjE0MTguMTQwNiI+c3RkOjpzdHJpbmcgZ2V0SW1tT3BlcmFuZFRETmFtZSgpPC90ZXh0PjxlbGxpcHNlIGN4PSIxMDcyIiBjeT0iMTQyOC44ODI4IiBmaWxsPSIjODRCRTg0IiByeD0iMyIgcnk9IjMiIHN0eWxlPSJzdHJva2U6IzAzODA0ODtzdHJva2Utd2lkdGg6MS4wOyIvPjx0ZXh0IGZpbGw9IiMwMDAwMDAiIGZvbnQtZmFtaWx5PSJzYW5zLXNlcmlmIiBmb250LXNpemU9IjE0IiBsZW5ndGhBZGp1c3Q9InNwYWNpbmciIHRleHRMZW5ndGg9IjE1OCIgeD0iMTA4MSIgeT0iMTQzMy4xMjUiPnVuc2lnbmVkIGdldEltbVdpZHRoKCk8L3RleHQ+PC9nPjwhLS1jbGFzcyBSZWdPcGVyYW5kVHlwZS0tPjxnIGlkPSJlbGVtX1JlZ09wZXJhbmRUeXBlIj48cmVjdCBjb2RlTGluZT0iMTA4IiBmaWxsPSIjRjFGMUYxIiBoZWlnaHQ9IjkyLjk1MzEiIGlkPSJSZWdPcGVyYW5kVHlwZSIgcng9IjIuNSIgcnk9IjIuNSIgc3R5bGU9InN0cm9rZTojMTgxODE4O3N0cm9rZS13aWR0aDowLjU7IiB3aWR0aD0iMTMwIiB4PSIyMiIgeT0iNTQxIi8+PGVsbGlwc2UgY3g9IjM3IiBjeT0iNTU3IiBmaWxsPSIjRUI5MzdGIiByeD0iMTEiIHJ5PSIxMSIgc3R5bGU9InN0cm9rZTojMTgxODE4O3N0cm9rZS13aWR0aDoxLjA7Ii8+PHBhdGggZD0iTTQwLjYyNSw1NjMgTDQwLjYyNSw1NjEuMjUgTDM1LjMxMjUsNTYxLjI1IFEzNS4zMTI1LDU2MS4yNSAzNS4zMTI1LDU1Ny42ODc1IEwzOS41NjI1LDU1Ny42ODc1IEwzOS41NjI1LDU1NS45Mzc1IEwzNS4zMTI1LDU1NS45Mzc1IEwzNS4zMTI1LDU1My40Mzc1IEw0MC42MjUsNTUzLjQzNzUgTDQwLjYyNSw1NTEuNjg3NSBMMzMuNTYyNSw1NTEuNjg3NSBRMzMuNTYyNSw1NTEuNjg3NSAzMy41NjI1LDU2MyBMNDAuNjI1LDU2MyBaICIgZmlsbD0iIzAwMDAwMCIvPjx0ZXh0IGZpbGw9IiMwMDAwMDAiIGZvbnQtZmFtaWx5PSJzYW5zLXNlcmlmIiBmb250LXNpemU9IjE0IiBsZW5ndGhBZGp1c3Q9InNwYWNpbmciIHRleHRMZW5ndGg9Ijk4IiB4PSI1MSIgeT0iNTYyLjc0MjIiPlJlZ09wZXJhbmRUeXBlPC90ZXh0PjxsaW5lIHN0eWxlPSJzdHJva2U6IzE4MTgxODtzdHJva2Utd2lkdGg6MC41OyIgeDE9IjIzIiB4Mj0iMTUxIiB5MT0iNTczIiB5Mj0iNTczIi8+PHRleHQgZmlsbD0iIzAwMDAwMCIgZm9udC1mYW1pbHk9InNhbnMtc2VyaWYiIGZvbnQtc2l6ZT0iMTQiIGxlbmd0aEFkanVzdD0ic3BhY2luZyIgdGV4dExlbmd0aD0iMjgiIHg9IjI4IiB5PSI1OTAuMjM0NCI+UmVhZDwvdGV4dD48dGV4dCBmaWxsPSIjMDAwMDAwIiBmb250LWZhbWlseT0ic2Fucy1zZXJpZiIgZm9udC1zaXplPSIxNCIgbGVuZ3RoQWRqdXN0PSJzcGFjaW5nIiB0ZXh0TGVuZ3RoPSIzNSIgeD0iMjgiIHk9IjYwNS4yMTg4Ij5Xcml0ZTwvdGV4dD48dGV4dCBmaWxsPSIjMDAwMDAwIiBmb250LWZhbWlseT0ic2Fucy1zZXJpZiIgZm9udC1zaXplPSIxNCIgbGVuZ3RoQWRqdXN0PSJzcGFjaW5nIiB0ZXh0TGVuZ3RoPSI4NCIgeD0iMjgiIHk9IjYyMC4yMDMxIj5Xcml0ZUFuZFJlYWQ8L3RleHQ+PGxpbmUgc3R5bGU9InN0cm9rZTojMTgxODE4O3N0cm9rZS13aWR0aDowLjU7IiB4MT0iMjMiIHgyPSIxNTEiIHkxPSI2MjUuOTUzMSIgeTI9IjYyNS45NTMxIi8+PC9nPjwhLS1yZXZlcnNlIGxpbmsgV2luZ0NHSW5zdHJJbmZvIHRvIFJlZ09wZXJhbmQtLT48ZyBpZD0ibGlua19XaW5nQ0dJbnN0ckluZm9fUmVnT3BlcmFuZCI+PHBhdGggY29kZUxpbmU9IjExNCIgZD0iTTcyNi40NDYsMTE0Ni44MjI5IEM3MTIuNzQ2LDExNzMuMjQyOSA3MDUuMjQsMTE4Ny43MSA2OTMuMjMsMTIxMC44NyAiIGZpbGw9Im5vbmUiIGlkPSJXaW5nQ0dJbnN0ckluZm8tYmFja3RvLVJlZ09wZXJhbmQiIHN0eWxlPSJzdHJva2U6IzE4MTgxODtzdHJva2Utd2lkdGg6MS4wOyIvPjxwb2x5Z29uIGZpbGw9IiMxODE4MTgiIHBvaW50cz0iNzMxLjk3LDExMzYuMTcsNzI1LjY1NywxMTM5LjY1NTEsNzI2LjQ0NiwxMTQ2LjgyMjksNzMyLjc1OSwxMTQzLjMzNzgsNzMxLjk3LDExMzYuMTciIHN0eWxlPSJzdHJva2U6IzE4MTgxODtzdHJva2Utd2lkdGg6MS4wOyIvPjx0ZXh0IGZpbGw9IiMwMDAwMDAiIGZvbnQtZmFtaWx5PSJzYW5zLXNlcmlmIiBmb250LXNpemU9IjEzIiBsZW5ndGhBZGp1c3Q9InNwYWNpbmciIHRleHRMZW5ndGg9IjU0IiB4PSI3MTUiIHk9IjExNzkuMjg5MSI+Y29udGFpbnM8L3RleHQ+PHRleHQgZmlsbD0iIzAwMDAwMCIgZm9udC1mYW1pbHk9InNhbnMtc2VyaWYiIGZvbnQtc2l6ZT0iMTMiIGxlbmd0aEFkanVzdD0ic3BhY2luZyIgdGV4dExlbmd0aD0iNyIgeD0iNzIwLjkyNjYiIHk9IjExNTYuMjczMiI+MTwvdGV4dD48dGV4dCBmaWxsPSIjMDAwMDAwIiBmb250LWZhbWlseT0ic2Fucy1zZXJpZiIgZm9udC1zaXplPSIxMyIgbGVuZ3RoQWRqdXN0PSJzcGFjaW5nIiB0ZXh0TGVuZ3RoPSIyNSIgeD0iNjcxLjc5ODgiIHk9IjEyMDEuNDg0NCI+MC4uKjwvdGV4dD48L2c+PCEtLXJldmVyc2UgbGluayBXaW5nQ0dJbnN0ckluZm8gdG8gSW1tT3BlcmFuZC0tPjxnIGlkPSJsaW5rX1dpbmdDR0luc3RySW5mb19JbW1PcGVyYW5kIj48cGF0aCBjb2RlTGluZT0iMTE1IiBkPSJNMTI2NS41NzUsMTE0Ny4xMjYyIEMxMjg4LjUzNSwxMTk4LjUxNjIgMTMwNC40MSwxMjM0LjA1IDEzMjAuODEsMTI3MC43NSAiIGZpbGw9Im5vbmUiIGlkPSJXaW5nQ0dJbnN0ckluZm8tYmFja3RvLUltbU9wZXJhbmQiIHN0eWxlPSJzdHJva2U6IzE4MTgxODtzdHJva2Utd2lkdGg6MS4wOyIvPjxwb2x5Z29uIGZpbGw9IiMxODE4MTgiIHBvaW50cz0iMTI2MC42OCwxMTM2LjE3LDEyNTkuNDc1NCwxMTQzLjI3OTgsMTI2NS41NzUsMTE0Ny4xMjYyLDEyNjYuNzc5NiwxMTQwLjAxNjQsMTI2MC42OCwxMTM2LjE3IiBzdHlsZT0ic3Ryb2tlOiMxODE4MTg7c3Ryb2tlLXdpZHRoOjEuMDsiLz48dGV4dCBmaWxsPSIjMDAwMDAwIiBmb250LWZhbWlseT0ic2Fucy1zZXJpZiIgZm9udC1zaXplPSIxMyIgbGVuZ3RoQWRqdXN0PSJzcGFjaW5nIiB0ZXh0TGVuZ3RoPSI1NCIgeD0iMTI3NiIgeT0iMTE3OS4yODkxIj5jb250YWluczwvdGV4dD48dGV4dCBmaWxsPSIjMDAwMDAwIiBmb250LWZhbWlseT0ic2Fucy1zZXJpZiIgZm9udC1zaXplPSIxMyIgbGVuZ3RoQWRqdXN0PSJzcGFjaW5nIiB0ZXh0TGVuZ3RoPSI3IiB4PSIxMjU3LjA3MTYiIHk9IjExNTYuMjczMiI+MTwvdGV4dD48dGV4dCBmaWxsPSIjMDAwMDAwIiBmb250LWZhbWlseT0ic2Fucy1zZXJpZiIgZm9udC1zaXplPSIxMyIgbGVuZ3RoQWRqdXN0PSJzcGFjaW5nIiB0ZXh0TGVuZ3RoPSIyNSIgeD0iMTI5MS4wNzM5IiB5PSIxMjYxLjQzOSI+MC4uKjwvdGV4dD48L2c+PCEtLVNSQz1bZkxYQkotQ200QnhwQXc4VUtFV01qN2tqNWdIMkxST2g3YkxSbVRhYVJoNktzNU5paUIwaF9sa0VkU0luN0lURDJuVThsc3lVemVwN0NyMktPaHYzNEd4LTRCZ0RqaTZfYW0xLWVXSG43WnAzcWl0amQ3QUhwVWM2YlBaeS1TUDVGMXgzRVowMjhXYUZlQVk2U3loOWJrQXVtRXVtektsbzNvaEdrbnp4OEhIYjducU01cVc4ZEJjUXR0MGFNRlBwWVJVRkV2bVg2Ynk1NlR1a0NPZng0UHlwOGgyVkVLekpwSUhmb1pqU2N4NGlIUUJqRURPVkV5RjQyc0Q5R0ZXVEd4NHd3R1FvMGtGTzNwcWZwX3BPeHBwVEVLV0hKc2EtNkNBY2RqT0JaUmFhN1ZKbWgxc1k0RkRXNzFaUjdtSzlmaDFLUk5YS1hqWGI1UzVyTHlzbTBYT24tQk9QUElXaG1NT0NIcGc4TkhtUEZXU3RlZGpjSFhPOTRaS3pxTFFhRHBCckxfYmNHenZ4MkJ4YTkxNjQ3WUgzZ0ZwRElVSUhnaU5WNjhkWC1CU2U4Ti1uNkpPNW45MEV2Z0JBNGZtSWVTQXZuMTdCT2FaUk1QdWE4UWFZRjJFOUZhVXNXS01DcWJPVHpxWDRodk1BcEo2SUFqRUZxYjN1X25ON1p2UkRiRWlKSThSTnV0T2pSX3VOcGtpdUtWTVhTZ2d0XzdNSGtSeVd1dDRNYmRjeXZ4MUt3Y3FuQk1MZEVPcWNZX2NYOWpVTzJzZGVHQUZvTzZ5T1hUcmcxSngzUFRzZjJtR0dkNGV0N2pTZWJCWWdMNV9OVHpiTmhabWtnT1dUd1BGZjBqVGxHZHlWc2F4cldUcWtiWnNGamFxN3hFVHU5TEV5Z0lHRmtOX05iS1lMbzVfR2lPR0R0RVY5NGxDM2o5V2JVZWxYVmFxZGotNFU3RXBxT25hTlQzX3ZYZ014MzdFRVl4cGlhN1pDSE9Uem1HMVNnUnozVTFWUmR6MGtidEpfcS02NmFSTlg3YnR3dVRqN1QzY3d3UWU4cThQc2tRSFFhZEJweFJJTHdjVnNxZW5aYTdUenNrY094Q1pzd0loUmVjT3g5ZU03YWJPcVdxemhhdTlvbUt1YmsybVFmcFBDeko5VTRGZVl0Y1djRUFwTjNRT1ZMaS1RNW9jVWhKRGwyLW5QUmdDTi1fSzBfTXozNUlNX25FVTlDR2lQZlJYYjM0Zk9YMTl4Mzc4d25iQTFwUWFMZ3lQU01DRTFMeHlwZW5YVF9IakFTZ3A2MnZfLUs2am02c19SRG5VTEJiZGxaeEdtZ2V0ZnpyOS1rRTVXS1dKWVQ3YVBDbDZBQ3FqSDZfYmREeFVtTGFGM0NlbEJwcUtadWNLMVNyeHJ1TExtMmU5d3lrQTdvVExwNlZTYWVObUUtIC1IaXJIYktldm16U0pkdlFiemsxcEpZQ3BMZ2VQTjV6UEhwUDFPSmhTM2NMN1NMMmJsbHBBb1QyTXNyWlBjb0JNeUJXeDBncEpTN0xRcnFNNVFvcldHbkllOWNNUVZPQkRuZi1hbll3RmNqS3lPcUp2c0JPWG9xekx5OC1uUWhobWNERFFMS3dGdUJQbDFaNDBwRnB1RjF6dWtCdUkybTZhSGVfV0kydnhBRmU5NDhYazNkVm0wMF0tLT48L2c+PC9zdmc+;" vertex="1" parent="WIyWlLk6GJQsqaUBKTNV-1">
            <mxGeometry x="-340" y="-20" width="1868" height="1522" as="geometry" />
          </mxCell>
        </UserObject>
        <UserObject label="" plantUmlData="{&#xa;  &quot;data&quot;: &quot;@startuml\n\nnamespace wingcg {\n    class WingCGInstrInfo {\n        + enum RegOperandType { Read, Write, WriteAndRead }\n        + WingCGInstrInfo()\n        + WingCGInstrInfo(\\nname : std::string, \\nlen : unsigned, syntax : std::string, \\nbinary : std::string, \\ninstrPattern : const std::string, \\nregRead : std::vector&lt;RegOperand&gt;, \\nregWrite : std::vector&lt;RegOperand&gt;, \\nimms : std::vector&lt;ImmOperand&gt;)\n        + static const std::string regWriteReadNameSuffix\n        + static const std::string builtinNameSuffix\n        + static const std::string intrinsicNameSuffix\n        + void legalize()\n        + void dump()\n        + bool emitInstrRecordForFull(std::ofstream &amp;instrInfoFile)\n        + bool emitInstrMatchForFull(std::ofstream &amp;file)\n        + bool emitInstrMatchForStoreForFull(std::ofstream &amp;file)\n        + bool emitInstrRecord(std::ofstream &amp;instrInfoFile)\n        + bool emitInstrMatch(std::ofstream &amp;instrInfoFile)\n        + bool emitInstrMarchForArith(std::ofstream &amp;file)\n        + bool emitInstrMatchForLoad(std::ofstream &amp;instrInfoFile)\n        + bool emitInstrMatchForStore(std::ofstream &amp;file)\n        + bool emitInstrMatchForInstrinsic(std::ofstream &amp;instrInfoFile)\n        + bool emitBuiltinHeader(std::ofstream &amp;builtinFile)\n        + void genBuiltinFuncAPI(std::ofstream &amp;file)\n        + bool emitBuiltinTestFile(std::ofstream &amp;builtinFile)\n        + void genLoadConForTestFile(std::ofstream &amp;file, WingCGInstrInfo::RegOperand &amp;instrRegOperand, const std::string &amp;loadInstrBuiltinName)\n        + void genStoreConForTestFile(std::ofstream &amp;file, WingCGInstrInfo::RegOperand &amp;instrRegOperand, const std::string &amp;storeInstrBuiltinName)\n        + bool emitBuiltinTestFileNoGPR(std::ofstream &amp;builtinFile)\n        + bool emitBuiltinTestFileForGPR(std::ofstream &amp;builtinFile)\n        + bool emitBuiltinDef(std::ofstream &amp;builtinInfoFile)\n        + bool emitBuiltinIntrinsic(std::ofstream &amp;builtinInfoFile)\n        + bool emitBuiltinIRForMulRes(std::ofstream &amp;builtinInfoFile)\n        + std::string getInDAG()\n        + std::string getInDAGForDAG()\n        + std::string getInDAGForInstrinsic()\n        + std::string getInDAGForCompressedInstr()\n        + std::string getOutDAG()\n        + std::string toDAGString(std::vector&lt;RegOperand&gt; &amp;vec)\n        + std::string getInstrFormat()\n        + std::string getBuiltinName() : std::string\n        + std::string getInstrinsicName()\n        + std::string getInstrName() : std::string\n        + unsigned getInstrLen() : unsigned\n        + std::string getBinaryString() : std::string\n        + std::string getSyntaxString() : std::string\n        + std::string getInstrFormatForTD() : std::string\n        + unsigned getInstrType() : unsigned\n        + std::string getInstrPattern() : std::string\n        + WingCGType* getVectorVT() : WingCGType*\n        + auto&amp; getRegRead() : std::vector&lt;RegOperand&gt;\n        + auto&amp; getRegWrite() : std::vector&lt;RegOperand&gt;\n        + auto&amp; getImms() : std::vector&lt;ImmOperand&gt;\n        + void setIsJumpInstr()\n        + void setIsLoad()\n        + void setIsStore()\n        + bool isLoad() : bool\n        + bool isStore() : bool\n        + bool isVector() : bool\n        + bool isCompressedInstr() : bool\n        + std::string getInstrForCompressedInstr() : std::string\n\n        private\n        - std::string instrName\n        - unsigned instrLen\n        - std::string syntax\n        - std::string binary\n        - std::string instrPattern\n        - std::vector&lt;RegOperand&gt; regRead\n        - std::vector&lt;RegOperand&gt; regWrite\n        - std::vector&lt;ImmOperand&gt; imms\n        - std::string instrFormat\n        - unsigned instrType\n        - bool isLoadInstr\n        - bool isStoreInstr\n        - bool isVectorInstr\n        - bool isJumpInstr\n        - WingCGType* vecVTP\n    }\n\n    struct WingCGInstrInfo::RegOperand {\n        + RegOperand(localName : std::string, \\nregOperandName : std::string, \\ntype : RegOperandType, \\nvalueType : WingCGType)\n        + bool operator==(other : RegOperand) : bool\n        + bool operator&lt;(other : RegOperand) : bool\n        + WingCGRegOperand* getRegOperandP() : WingCGRegOperand*\n        + auto&amp; getLoadInstrs() : std::vector&lt;WingCGInstrInfo*&gt;\n        + auto&amp; getStoreInstrs() : std::vector&lt;WingCGInstrInfo*&gt;\n        + bool isGPR() : bool\n        + bool isVector() : bool\n        + void genVectorInfo()\n        + std::string getVT() : std::string\n        + std::string getRegOperandTDName() : std::string\n\n        - std::string localName\n        - std::string regOperandName\n        - RegOperandType type\n        - std::string localNameWrite\n        - WingCGType valueType\n    }\n\n    struct WingCGInstrInfo::ImmOperand {\n        + ImmOperand(immOperandName : std::string, \\nlocalName : std::string, \\nisSign : bool)\n        + WingCGImmOperand* getImmOperandP() : WingCGImmOperand*\n        + std::string getImmOperandTDName() : std::string\n        + unsigned getImmWidth() : unsigned\n\n        - std::string localName\n        - std::string immOperandName\n        - bool isSign\n        - WingCGType valueType\n    }\n\n    class WingCGRegOperand {\n        - // 假设这里有一些成员...\n    }\n\n    class WingCGType {\n        - // 假设这里有一些成员...\n    }\n\n    class WingCGImmOperand {\n        - // 假设这里有一些成员...\n    }\n}\n\n@enduml\n&quot;,&#xa;  &quot;format&quot;: &quot;svg&quot;&#xa;}" id="iErG82ORrNlGhsyNsSDk-6">
          <mxCell style="shape=image;noLabel=1;verticalAlign=top;aspect=fixed;imageAspect=0;image=data:image/svg+xml,PD94bWwgdmVyc2lvbj0iMS4wIiBlbmNvZGluZz0idXMtYXNjaWkiIHN0YW5kYWxvbmU9Im5vIj8+PHN2ZyB4bWxucz0iaHR0cDovL3d3dy53My5vcmcvMjAwMC9zdmciIHhtbG5zOnhsaW5rPSJodHRwOi8vd3d3LnczLm9yZy8xOTk5L3hsaW5rIiBjb250ZW50U3R5bGVUeXBlPSJ0ZXh0L2NzcyIgaGVpZ2h0PSIxNDE3cHgiIHByZXNlcnZlQXNwZWN0UmF0aW89Im5vbmUiIHN0eWxlPSJ3aWR0aDoxOTE1cHg7aGVpZ2h0OjE0MTdweDtiYWNrZ3JvdW5kOiNGRkZGRkY7IiB2ZXJzaW9uPSIxLjEiIHZpZXdCb3g9IjAgMCAxOTE1IDE0MTciIHdpZHRoPSIxOTE1cHgiIHpvb21BbmRQYW49Im1hZ25pZnkiPjxkZWZzLz48Zz48IS0tY2x1c3RlciB3aW5nY2ctLT48ZyBpZD0iY2x1c3Rlcl93aW5nY2ciPjxwYXRoIGQ9Ik04LjUsNiBMNTIuNSw2IEEzLjc1LDMuNzUgMCAwIDEgNTUsOC41IEw2MiwyNi45ODQ0IEwxOTA1LjUsMjYuOTg0NCBBMi41LDIuNSAwIDAgMSAxOTA4LDI5LjQ4NDQgTDE5MDgsMTQwNy41IEEyLjUsMi41IDAgMCAxIDE5MDUuNSwxNDEwIEw4LjUsMTQxMCBBMi41LDIuNSAwIDAgMSA2LDE0MDcuNSBMNiw4LjUgQTIuNSwyLjUgMCAwIDEgOC41LDYgIiBmaWxsPSJub25lIiBzdHlsZT0ic3Ryb2tlOiMwMDAwMDA7c3Ryb2tlLXdpZHRoOjEuNTsiLz48bGluZSBzdHlsZT0ic3Ryb2tlOiMwMDAwMDA7c3Ryb2tlLXdpZHRoOjEuNTsiIHgxPSI2IiB4Mj0iNjIiIHkxPSIyNi45ODQ0IiB5Mj0iMjYuOTg0NCIvPjx0ZXh0IGZpbGw9IiMwMDAwMDAiIGZvbnQtZmFtaWx5PSJzYW5zLXNlcmlmIiBmb250LXNpemU9IjE0IiBmb250LXdlaWdodD0iYm9sZCIgbGVuZ3RoQWRqdXN0PSJzcGFjaW5nIiB0ZXh0TGVuZ3RoPSI0MyIgeD0iMTAiIHk9IjIxLjIzNDQiPndpbmdjZzwvdGV4dD48L2c+PCEtLWNsYXNzIFdpbmdDR0luc3RySW5mby0tPjxnIGlkPSJlbGVtX1dpbmdDR0luc3RySW5mbyI+PHJlY3QgY29kZUxpbmU9IjIiIGZpbGw9IiNGMUYxRjEiIGhlaWdodD0iMTIzMS43NjU2IiBpZD0iV2luZ0NHSW5zdHJJbmZvIiByeD0iMi41IiByeT0iMi41IiBzdHlsZT0ic3Ryb2tlOiMxODE4MTg7c3Ryb2tlLXdpZHRoOjAuNTsiIHdpZHRoPSI5ODIiIHg9IjIyIiB5PSIzOSIvPjxlbGxpcHNlIGN4PSI0NTYuMjUiIGN5PSI1NSIgZmlsbD0iI0FERDFCMiIgcng9IjExIiByeT0iMTEiIHN0eWxlPSJzdHJva2U6IzE4MTgxODtzdHJva2Utd2lkdGg6MS4wOyIvPjxwYXRoIGQ9Ik00NTMuODc1LDU5LjI1IEw0NTMuODc1LDYxIEw0NTguODEyNSw2MSBMNDU4LjgxMjUsNTkuMjUgTDQ1My44NzUsNTkuMjUgWiBNNDU0LjU2MjUsNTkuOTM3NSBRNDU0LjU2MjUsNTkuOTM3NSA0NTQuNTYyNSw1MC43NSBMNDUyLjgxMjUsNTAuNzUgUTQ1Mi44MTI1LDUwLjc1IDQ1Mi44MTI1LDU5LjkzNzUgTDQ1NC41NjI1LDU5LjkzNzUgWiBNNDU4LjEyNSw1OS45Mzc1IEw0NTkuODc1LDU5LjkzNzUgUTQ1OS44NzUsNTkuOTM3NSA0NTkuODc1LDU3LjEyNSBMNDU4LjEyNSw1Ny4xMjUgUTQ1OC4xMjUsNTcuMTI1IDQ1OC4xMjUsNTkuOTM3NSBaIE00NTguMTI1LDUwLjc1IFE0NTguMTI1LDUwLjc1IDQ1OC4xMjUsNTMuNTYyNSBMNDU5Ljg3NSw1My41NjI1IFE0NTkuODc1LDUzLjU2MjUgNDU5Ljg3NSw1MC43NSBMNDU4LjEyNSw1MC43NSBaIE00NTMuODc1LDUxLjQzNzUgTDQ1OC44MTI1LDUxLjQzNzUgTDQ1OC44MTI1LDQ5LjY4NzUgTDQ1My44NzUsNDkuNjg3NSBMNDUzLjg3NSw1MS40Mzc1IFogIiBmaWxsPSIjMDAwMDAwIi8+PHRleHQgZmlsbD0iIzAwMDAwMCIgZm9udC1mYW1pbHk9InNhbnMtc2VyaWYiIGZvbnQtc2l6ZT0iMTQiIGxlbmd0aEFkanVzdD0ic3BhY2luZyIgdGV4dExlbmd0aD0iMTA1IiB4PSI0NzYuNzUiIHk9IjYwLjc0MjIiPldpbmdDR0luc3RySW5mbzwvdGV4dD48bGluZSBzdHlsZT0ic3Ryb2tlOiMxODE4MTg7c3Ryb2tlLXdpZHRoOjAuNTsiIHgxPSIyMyIgeDI9IjEwMDMiIHkxPSI3MSIgeTI9IjcxIi8+PGVsbGlwc2UgY3g9IjMzIiBjeT0iODMuOTkyMiIgZmlsbD0ibm9uZSIgcng9IjMiIHJ5PSIzIiBzdHlsZT0ic3Ryb2tlOiMwMzgwNDg7c3Ryb2tlLXdpZHRoOjEuMDsiLz48dGV4dCBmaWxsPSIjMDAwMDAwIiBmb250LWZhbWlseT0ic2Fucy1zZXJpZiIgZm9udC1zaXplPSIxNCIgbGVuZ3RoQWRqdXN0PSJzcGFjaW5nIiB0ZXh0TGVuZ3RoPSIzNDYiIHg9IjQyIiB5PSI4OC4yMzQ0Ij5lbnVtIFJlZ09wZXJhbmRUeXBlIHsgUmVhZCwgV3JpdGUsIFdyaXRlQW5kUmVhZCB9PC90ZXh0PjxlbGxpcHNlIGN4PSIzMyIgY3k9Ijk4Ljk3NjYiIGZpbGw9Im5vbmUiIHJ4PSIzIiByeT0iMyIgc3R5bGU9InN0cm9rZTojMDM4MDQ4O3N0cm9rZS13aWR0aDoxLjA7Ii8+PHRleHQgZmlsbD0iIzAwMDAwMCIgZm9udC1mYW1pbHk9InNhbnMtc2VyaWYiIGZvbnQtc2l6ZT0iMTQiIGxlbmd0aEFkanVzdD0ic3BhY2luZyIgdGV4dExlbmd0aD0iMzMwIiB4PSI0MiIgeT0iMTAzLjIxODgiPnN0YXRpYyBjb25zdCBzdGQ6OnN0cmluZyByZWdXcml0ZVJlYWROYW1lU3VmZml4PC90ZXh0PjxlbGxpcHNlIGN4PSIzMyIgY3k9IjExMy45NjA5IiBmaWxsPSJub25lIiByeD0iMyIgcnk9IjMiIHN0eWxlPSJzdHJva2U6IzAzODA0ODtzdHJva2Utd2lkdGg6MS4wOyIvPjx0ZXh0IGZpbGw9IiMwMDAwMDAiIGZvbnQtZmFtaWx5PSJzYW5zLXNlcmlmIiBmb250LXNpemU9IjE0IiBsZW5ndGhBZGp1c3Q9InNwYWNpbmciIHRleHRMZW5ndGg9IjI5NSIgeD0iNDIiIHk9IjExOC4yMDMxIj5zdGF0aWMgY29uc3Qgc3RkOjpzdHJpbmcgYnVpbHRpbk5hbWVTdWZmaXg8L3RleHQ+PGVsbGlwc2UgY3g9IjMzIiBjeT0iMTI4Ljk0NTMiIGZpbGw9Im5vbmUiIHJ4PSIzIiByeT0iMyIgc3R5bGU9InN0cm9rZTojMDM4MDQ4O3N0cm9rZS13aWR0aDoxLjA7Ii8+PHRleHQgZmlsbD0iIzAwMDAwMCIgZm9udC1mYW1pbHk9InNhbnMtc2VyaWYiIGZvbnQtc2l6ZT0iMTQiIGxlbmd0aEFkanVzdD0ic3BhY2luZyIgdGV4dExlbmd0aD0iMzA5IiB4PSI0MiIgeT0iMTMzLjE4NzUiPnN0YXRpYyBjb25zdCBzdGQ6OnN0cmluZyBpbnRyaW5zaWNOYW1lU3VmZml4PC90ZXh0Pjx0ZXh0IGZpbGw9IiMwMDAwMDAiIGZvbnQtZmFtaWx5PSJzYW5zLXNlcmlmIiBmb250LXNpemU9IjE0IiBsZW5ndGhBZGp1c3Q9InNwYWNpbmciIHRleHRMZW5ndGg9IjciIHg9IjQyIiB5PSIxNDguMTcxOSI+JiMxNjA7PC90ZXh0Pjx0ZXh0IGZpbGw9IiMwMDAwMDAiIGZvbnQtZmFtaWx5PSJzYW5zLXNlcmlmIiBmb250LXNpemU9IjE0IiBsZW5ndGhBZGp1c3Q9InNwYWNpbmciIHRleHRMZW5ndGg9IjQ5IiB4PSI0MiIgeT0iMTYzLjE1NjMiPnByaXZhdGU8L3RleHQ+PHJlY3QgZmlsbD0ibm9uZSIgaGVpZ2h0PSI2IiBzdHlsZT0ic3Ryb2tlOiNDODI5MzA7c3Ryb2tlLXdpZHRoOjEuMDsiIHdpZHRoPSI2IiB4PSIzMCIgeT0iMTcwLjg5ODQiLz48dGV4dCBmaWxsPSIjMDAwMDAwIiBmb250LWZhbWlseT0ic2Fucy1zZXJpZiIgZm9udC1zaXplPSIxNCIgbGVuZ3RoQWRqdXN0PSJzcGFjaW5nIiB0ZXh0TGVuZ3RoPSIxNDgiIHg9IjQyIiB5PSIxNzguMTQwNiI+c3RkOjpzdHJpbmcgaW5zdHJOYW1lPC90ZXh0PjxyZWN0IGZpbGw9Im5vbmUiIGhlaWdodD0iNiIgc3R5bGU9InN0cm9rZTojQzgyOTMwO3N0cm9rZS13aWR0aDoxLjA7IiB3aWR0aD0iNiIgeD0iMzAiIHk9IjE4NS44ODI4Ii8+PHRleHQgZmlsbD0iIzAwMDAwMCIgZm9udC1mYW1pbHk9InNhbnMtc2VyaWYiIGZvbnQtc2l6ZT0iMTQiIGxlbmd0aEFkanVzdD0ic3BhY2luZyIgdGV4dExlbmd0aD0iMTE5IiB4PSI0MiIgeT0iMTkzLjEyNSI+dW5zaWduZWQgaW5zdHJMZW48L3RleHQ+PHJlY3QgZmlsbD0ibm9uZSIgaGVpZ2h0PSI2IiBzdHlsZT0ic3Ryb2tlOiNDODI5MzA7c3Ryb2tlLXdpZHRoOjEuMDsiIHdpZHRoPSI2IiB4PSIzMCIgeT0iMjAwLjg2NzIiLz48dGV4dCBmaWxsPSIjMDAwMDAwIiBmb250LWZhbWlseT0ic2Fucy1zZXJpZiIgZm9udC1zaXplPSIxNCIgbGVuZ3RoQWRqdXN0PSJzcGFjaW5nIiB0ZXh0TGVuZ3RoPSIxMjYiIHg9IjQyIiB5PSIyMDguMTA5NCI+c3RkOjpzdHJpbmcgc3ludGF4PC90ZXh0PjxyZWN0IGZpbGw9Im5vbmUiIGhlaWdodD0iNiIgc3R5bGU9InN0cm9rZTojQzgyOTMwO3N0cm9rZS13aWR0aDoxLjA7IiB3aWR0aD0iNiIgeD0iMzAiIHk9IjIxNS44NTE2Ii8+PHRleHQgZmlsbD0iIzAwMDAwMCIgZm9udC1mYW1pbHk9InNhbnMtc2VyaWYiIGZvbnQtc2l6ZT0iMTQiIGxlbmd0aEFkanVzdD0ic3BhY2luZyIgdGV4dExlbmd0aD0iMTI2IiB4PSI0MiIgeT0iMjIzLjA5MzgiPnN0ZDo6c3RyaW5nIGJpbmFyeTwvdGV4dD48cmVjdCBmaWxsPSJub25lIiBoZWlnaHQ9IjYiIHN0eWxlPSJzdHJva2U6I0M4MjkzMDtzdHJva2Utd2lkdGg6MS4wOyIgd2lkdGg9IjYiIHg9IjMwIiB5PSIyMzAuODM1OSIvPjx0ZXh0IGZpbGw9IiMwMDAwMDAiIGZvbnQtZmFtaWx5PSJzYW5zLXNlcmlmIiBmb250LXNpemU9IjE0IiBsZW5ndGhBZGp1c3Q9InNwYWNpbmciIHRleHRMZW5ndGg9IjE2OCIgeD0iNDIiIHk9IjIzOC4wNzgxIj5zdGQ6OnN0cmluZyBpbnN0clBhdHRlcm48L3RleHQ+PHJlY3QgZmlsbD0ibm9uZSIgaGVpZ2h0PSI2IiBzdHlsZT0ic3Ryb2tlOiNDODI5MzA7c3Ryb2tlLXdpZHRoOjEuMDsiIHdpZHRoPSI2IiB4PSIzMCIgeT0iMjQ1LjgyMDMiLz48dGV4dCBmaWxsPSIjMDAwMDAwIiBmb250LWZhbWlseT0ic2Fucy1zZXJpZiIgZm9udC1zaXplPSIxNCIgbGVuZ3RoQWRqdXN0PSJzcGFjaW5nIiB0ZXh0TGVuZ3RoPSIyMTciIHg9IjQyIiB5PSIyNTMuMDYyNSI+c3RkOjp2ZWN0b3ImbHQ7UmVnT3BlcmFuZCZndDsgcmVnUmVhZDwvdGV4dD48cmVjdCBmaWxsPSJub25lIiBoZWlnaHQ9IjYiIHN0eWxlPSJzdHJva2U6I0M4MjkzMDtzdHJva2Utd2lkdGg6MS4wOyIgd2lkdGg9IjYiIHg9IjMwIiB5PSIyNjAuODA0NyIvPjx0ZXh0IGZpbGw9IiMwMDAwMDAiIGZvbnQtZmFtaWx5PSJzYW5zLXNlcmlmIiBmb250LXNpemU9IjE0IiBsZW5ndGhBZGp1c3Q9InNwYWNpbmciIHRleHRMZW5ndGg9IjIyNCIgeD0iNDIiIHk9IjI2OC4wNDY5Ij5zdGQ6OnZlY3RvciZsdDtSZWdPcGVyYW5kJmd0OyByZWdXcml0ZTwvdGV4dD48cmVjdCBmaWxsPSJub25lIiBoZWlnaHQ9IjYiIHN0eWxlPSJzdHJva2U6I0M4MjkzMDtzdHJva2Utd2lkdGg6MS4wOyIgd2lkdGg9IjYiIHg9IjMwIiB5PSIyNzUuNzg5MSIvPjx0ZXh0IGZpbGw9IiMwMDAwMDAiIGZvbnQtZmFtaWx5PSJzYW5zLXNlcmlmIiBmb250LXNpemU9IjE0IiBsZW5ndGhBZGp1c3Q9InNwYWNpbmciIHRleHRMZW5ndGg9IjIwMCIgeD0iNDIiIHk9IjI4My4wMzEzIj5zdGQ6OnZlY3RvciZsdDtJbW1PcGVyYW5kJmd0OyBpbW1zPC90ZXh0PjxyZWN0IGZpbGw9Im5vbmUiIGhlaWdodD0iNiIgc3R5bGU9InN0cm9rZTojQzgyOTMwO3N0cm9rZS13aWR0aDoxLjA7IiB3aWR0aD0iNiIgeD0iMzAiIHk9IjI5MC43NzM0Ii8+PHRleHQgZmlsbD0iIzAwMDAwMCIgZm9udC1mYW1pbHk9InNhbnMtc2VyaWYiIGZvbnQtc2l6ZT0iMTQiIGxlbmd0aEFkanVzdD0ic3BhY2luZyIgdGV4dExlbmd0aD0iMTYyIiB4PSI0MiIgeT0iMjk4LjAxNTYiPnN0ZDo6c3RyaW5nIGluc3RyRm9ybWF0PC90ZXh0PjxyZWN0IGZpbGw9Im5vbmUiIGhlaWdodD0iNiIgc3R5bGU9InN0cm9rZTojQzgyOTMwO3N0cm9rZS13aWR0aDoxLjA7IiB3aWR0aD0iNiIgeD0iMzAiIHk9IjMwNS43NTc4Ii8+PHRleHQgZmlsbD0iIzAwMDAwMCIgZm9udC1mYW1pbHk9InNhbnMtc2VyaWYiIGZvbnQtc2l6ZT0iMTQiIGxlbmd0aEFkanVzdD0ic3BhY2luZyIgdGV4dExlbmd0aD0iMTI2IiB4PSI0MiIgeT0iMzEzIj51bnNpZ25lZCBpbnN0clR5cGU8L3RleHQ+PHJlY3QgZmlsbD0ibm9uZSIgaGVpZ2h0PSI2IiBzdHlsZT0ic3Ryb2tlOiNDODI5MzA7c3Ryb2tlLXdpZHRoOjEuMDsiIHdpZHRoPSI2IiB4PSIzMCIgeT0iMzIwLjc0MjIiLz48dGV4dCBmaWxsPSIjMDAwMDAwIiBmb250LWZhbWlseT0ic2Fucy1zZXJpZiIgZm9udC1zaXplPSIxNCIgbGVuZ3RoQWRqdXN0PSJzcGFjaW5nIiB0ZXh0TGVuZ3RoPSIxMTIiIHg9IjQyIiB5PSIzMjcuOTg0NCI+Ym9vbCBpc0xvYWRJbnN0cjwvdGV4dD48cmVjdCBmaWxsPSJub25lIiBoZWlnaHQ9IjYiIHN0eWxlPSJzdHJva2U6I0M4MjkzMDtzdHJva2Utd2lkdGg6MS4wOyIgd2lkdGg9IjYiIHg9IjMwIiB5PSIzMzUuNzI2NiIvPjx0ZXh0IGZpbGw9IiMwMDAwMDAiIGZvbnQtZmFtaWx5PSJzYW5zLXNlcmlmIiBmb250LXNpemU9IjE0IiBsZW5ndGhBZGp1c3Q9InNwYWNpbmciIHRleHRMZW5ndGg9IjExOSIgeD0iNDIiIHk9IjM0Mi45Njg4Ij5ib29sIGlzU3RvcmVJbnN0cjwvdGV4dD48cmVjdCBmaWxsPSJub25lIiBoZWlnaHQ9IjYiIHN0eWxlPSJzdHJva2U6I0M4MjkzMDtzdHJva2Utd2lkdGg6MS4wOyIgd2lkdGg9IjYiIHg9IjMwIiB5PSIzNTAuNzEwOSIvPjx0ZXh0IGZpbGw9IiMwMDAwMDAiIGZvbnQtZmFtaWx5PSJzYW5zLXNlcmlmIiBmb250LXNpemU9IjE0IiBsZW5ndGhBZGp1c3Q9InNwYWNpbmciIHRleHRMZW5ndGg9IjEyNiIgeD0iNDIiIHk9IjM1Ny45NTMxIj5ib29sIGlzVmVjdG9ySW5zdHI8L3RleHQ+PHJlY3QgZmlsbD0ibm9uZSIgaGVpZ2h0PSI2IiBzdHlsZT0ic3Ryb2tlOiNDODI5MzA7c3Ryb2tlLXdpZHRoOjEuMDsiIHdpZHRoPSI2IiB4PSIzMCIgeT0iMzY1LjY5NTMiLz48dGV4dCBmaWxsPSIjMDAwMDAwIiBmb250LWZhbWlseT0ic2Fucy1zZXJpZiIgZm9udC1zaXplPSIxNCIgbGVuZ3RoQWRqdXN0PSJzcGFjaW5nIiB0ZXh0TGVuZ3RoPSIxMTQiIHg9IjQyIiB5PSIzNzIuOTM3NSI+Ym9vbCBpc0p1bXBJbnN0cjwvdGV4dD48cmVjdCBmaWxsPSJub25lIiBoZWlnaHQ9IjYiIHN0eWxlPSJzdHJva2U6I0M4MjkzMDtzdHJva2Utd2lkdGg6MS4wOyIgd2lkdGg9IjYiIHg9IjMwIiB5PSIzODAuNjc5NyIvPjx0ZXh0IGZpbGw9IiMwMDAwMDAiIGZvbnQtZmFtaWx5PSJzYW5zLXNlcmlmIiBmb250LXNpemU9IjE0IiBsZW5ndGhBZGp1c3Q9InNwYWNpbmciIHRleHRMZW5ndGg9IjEyNiIgeD0iNDIiIHk9IjM4Ny45MjE5Ij5XaW5nQ0dUeXBlKiB2ZWNWVFA8L3RleHQ+PGxpbmUgc3R5bGU9InN0cm9rZTojMTgxODE4O3N0cm9rZS13aWR0aDowLjU7IiB4MT0iMjMiIHgyPSIxMDAzIiB5MT0iMzkzLjY3MTkiIHkyPSIzOTMuNjcxOSIvPjxlbGxpcHNlIGN4PSIzMyIgY3k9IjQwNi42NjQxIiBmaWxsPSIjODRCRTg0IiByeD0iMyIgcnk9IjMiIHN0eWxlPSJzdHJva2U6IzAzODA0ODtzdHJva2Utd2lkdGg6MS4wOyIvPjx0ZXh0IGZpbGw9IiMwMDAwMDAiIGZvbnQtZmFtaWx5PSJzYW5zLXNlcmlmIiBmb250LXNpemU9IjE0IiBsZW5ndGhBZGp1c3Q9InNwYWNpbmciIHRleHRMZW5ndGg9IjEyMSIgeD0iNDIiIHk9IjQxMC45MDYzIj5XaW5nQ0dJbnN0ckluZm8oKTwvdGV4dD48ZWxsaXBzZSBjeD0iMzMiIGN5PSI0NzQuMDkzOCIgZmlsbD0iIzg0QkU4NCIgcng9IjMiIHJ5PSIzIiBzdHlsZT0ic3Ryb2tlOiMwMzgwNDg7c3Ryb2tlLXdpZHRoOjEuMDsiLz48dGV4dCBmaWxsPSIjMDAwMDAwIiBmb250LWZhbWlseT0ic2Fucy1zZXJpZiIgZm9udC1zaXplPSIxNCIgbGVuZ3RoQWRqdXN0PSJzcGFjaW5nIiB0ZXh0TGVuZ3RoPSIxMTMiIHg9IjQyIiB5PSI0MjUuODkwNiI+V2luZ0NHSW5zdHJJbmZvKDwvdGV4dD48dGV4dCBmaWxsPSIjMDAwMDAwIiBmb250LWZhbWlseT0ic2Fucy1zZXJpZiIgZm9udC1zaXplPSIxNCIgbGVuZ3RoQWRqdXN0PSJzcGFjaW5nIiB0ZXh0TGVuZ3RoPSIxMzQiIHg9IjQyIiB5PSI0NDAuODc1Ij5uYW1lIDogc3RkOjpzdHJpbmcsPC90ZXh0Pjx0ZXh0IGZpbGw9IiMwMDAwMDAiIGZvbnQtZmFtaWx5PSJzYW5zLXNlcmlmIiBmb250LXNpemU9IjE0IiBsZW5ndGhBZGp1c3Q9InNwYWNpbmciIHRleHRMZW5ndGg9IjI1OSIgeD0iNDIiIHk9IjQ1NS44NTk0Ij5sZW4gOiB1bnNpZ25lZCwgc3ludGF4IDogc3RkOjpzdHJpbmcsPC90ZXh0Pjx0ZXh0IGZpbGw9IiMwMDAwMDAiIGZvbnQtZmFtaWx5PSJzYW5zLXNlcmlmIiBmb250LXNpemU9IjE0IiBsZW5ndGhBZGp1c3Q9InNwYWNpbmciIHRleHRMZW5ndGg9IjE0NyIgeD0iNDIiIHk9IjQ3MC44NDM4Ij5iaW5hcnkgOiBzdGQ6OnN0cmluZyw8L3RleHQ+PHRleHQgZmlsbD0iIzAwMDAwMCIgZm9udC1mYW1pbHk9InNhbnMtc2VyaWYiIGZvbnQtc2l6ZT0iMTQiIGxlbmd0aEFkanVzdD0ic3BhY2luZyIgdGV4dExlbmd0aD0iMjMxIiB4PSI0MiIgeT0iNDg1LjgyODEiPmluc3RyUGF0dGVybiA6IGNvbnN0IHN0ZDo6c3RyaW5nLDwvdGV4dD48dGV4dCBmaWxsPSIjMDAwMDAwIiBmb250LWZhbWlseT0ic2Fucy1zZXJpZiIgZm9udC1zaXplPSIxNCIgbGVuZ3RoQWRqdXN0PSJzcGFjaW5nIiB0ZXh0TGVuZ3RoPSIyMzgiIHg9IjQyIiB5PSI1MDAuODEyNSI+cmVnUmVhZCA6IHN0ZDo6dmVjdG9yJmx0O1JlZ09wZXJhbmQmZ3Q7LDwvdGV4dD48dGV4dCBmaWxsPSIjMDAwMDAwIiBmb250LWZhbWlseT0ic2Fucy1zZXJpZiIgZm9udC1zaXplPSIxNCIgbGVuZ3RoQWRqdXN0PSJzcGFjaW5nIiB0ZXh0TGVuZ3RoPSIyNDUiIHg9IjQyIiB5PSI1MTUuNzk2OSI+cmVnV3JpdGUgOiBzdGQ6OnZlY3RvciZsdDtSZWdPcGVyYW5kJmd0Oyw8L3RleHQ+PHRleHQgZmlsbD0iIzAwMDAwMCIgZm9udC1mYW1pbHk9InNhbnMtc2VyaWYiIGZvbnQtc2l6ZT0iMTQiIGxlbmd0aEFkanVzdD0ic3BhY2luZyIgdGV4dExlbmd0aD0iMjIyIiB4PSI0MiIgeT0iNTMwLjc4MTMiPmltbXMgOiBzdGQ6OnZlY3RvciZsdDtJbW1PcGVyYW5kJmd0Oyk8L3RleHQ+PGVsbGlwc2UgY3g9IjMzIiBjeT0iNTQxLjUyMzQiIGZpbGw9IiM4NEJFODQiIHJ4PSIzIiByeT0iMyIgc3R5bGU9InN0cm9rZTojMDM4MDQ4O3N0cm9rZS13aWR0aDoxLjA7Ii8+PHRleHQgZmlsbD0iIzAwMDAwMCIgZm9udC1mYW1pbHk9InNhbnMtc2VyaWYiIGZvbnQtc2l6ZT0iMTQiIGxlbmd0aEFkanVzdD0ic3BhY2luZyIgdGV4dExlbmd0aD0iMTA3IiB4PSI0MiIgeT0iNTQ1Ljc2NTYiPnZvaWQgbGVnYWxpemUoKTwvdGV4dD48ZWxsaXBzZSBjeD0iMzMiIGN5PSI1NTYuNTA3OCIgZmlsbD0iIzg0QkU4NCIgcng9IjMiIHJ5PSIzIiBzdHlsZT0ic3Ryb2tlOiMwMzgwNDg7c3Ryb2tlLXdpZHRoOjEuMDsiLz48dGV4dCBmaWxsPSIjMDAwMDAwIiBmb250LWZhbWlseT0ic2Fucy1zZXJpZiIgZm9udC1zaXplPSIxNCIgbGVuZ3RoQWRqdXN0PSJzcGFjaW5nIiB0ZXh0TGVuZ3RoPSI4MCIgeD0iNDIiIHk9IjU2MC43NSI+dm9pZCBkdW1wKCk8L3RleHQ+PGVsbGlwc2UgY3g9IjMzIiBjeT0iNTcxLjQ5MjIiIGZpbGw9IiM4NEJFODQiIHJ4PSIzIiByeT0iMyIgc3R5bGU9InN0cm9rZTojMDM4MDQ4O3N0cm9rZS13aWR0aDoxLjA7Ii8+PHRleHQgZmlsbD0iIzAwMDAwMCIgZm9udC1mYW1pbHk9InNhbnMtc2VyaWYiIGZvbnQtc2l6ZT0iMTQiIGxlbmd0aEFkanVzdD0ic3BhY2luZyIgdGV4dExlbmd0aD0iNDAzIiB4PSI0MiIgeT0iNTc1LjczNDQiPmJvb2wgZW1pdEluc3RyUmVjb3JkRm9yRnVsbChzdGQ6Om9mc3RyZWFtICZhbXA7aW5zdHJJbmZvRmlsZSk8L3RleHQ+PGVsbGlwc2UgY3g9IjMzIiBjeT0iNTg2LjQ3NjYiIGZpbGw9IiM4NEJFODQiIHJ4PSIzIiByeT0iMyIgc3R5bGU9InN0cm9rZTojMDM4MDQ4O3N0cm9rZS13aWR0aDoxLjA7Ii8+PHRleHQgZmlsbD0iIzAwMDAwMCIgZm9udC1mYW1pbHk9InNhbnMtc2VyaWYiIGZvbnQtc2l6ZT0iMTQiIGxlbmd0aEFkanVzdD0ic3BhY2luZyIgdGV4dExlbmd0aD0iMzMzIiB4PSI0MiIgeT0iNTkwLjcxODgiPmJvb2wgZW1pdEluc3RyTWF0Y2hGb3JGdWxsKHN0ZDo6b2ZzdHJlYW0gJmFtcDtmaWxlKTwvdGV4dD48ZWxsaXBzZSBjeD0iMzMiIGN5PSI2MDEuNDYwOSIgZmlsbD0iIzg0QkU4NCIgcng9IjMiIHJ5PSIzIiBzdHlsZT0ic3Ryb2tlOiMwMzgwNDg7c3Ryb2tlLXdpZHRoOjEuMDsiLz48dGV4dCBmaWxsPSIjMDAwMDAwIiBmb250LWZhbWlseT0ic2Fucy1zZXJpZiIgZm9udC1zaXplPSIxNCIgbGVuZ3RoQWRqdXN0PSJzcGFjaW5nIiB0ZXh0TGVuZ3RoPSIzODkiIHg9IjQyIiB5PSI2MDUuNzAzMSI+Ym9vbCBlbWl0SW5zdHJNYXRjaEZvclN0b3JlRm9yRnVsbChzdGQ6Om9mc3RyZWFtICZhbXA7ZmlsZSk8L3RleHQ+PGVsbGlwc2UgY3g9IjMzIiBjeT0iNjE2LjQ0NTMiIGZpbGw9IiM4NEJFODQiIHJ4PSIzIiByeT0iMyIgc3R5bGU9InN0cm9rZTojMDM4MDQ4O3N0cm9rZS13aWR0aDoxLjA7Ii8+PHRleHQgZmlsbD0iIzAwMDAwMCIgZm9udC1mYW1pbHk9InNhbnMtc2VyaWYiIGZvbnQtc2l6ZT0iMTQiIGxlbmd0aEFkanVzdD0ic3BhY2luZyIgdGV4dExlbmd0aD0iMzU0IiB4PSI0MiIgeT0iNjIwLjY4NzUiPmJvb2wgZW1pdEluc3RyUmVjb3JkKHN0ZDo6b2ZzdHJlYW0gJmFtcDtpbnN0ckluZm9GaWxlKTwvdGV4dD48ZWxsaXBzZSBjeD0iMzMiIGN5PSI2MzEuNDI5NyIgZmlsbD0iIzg0QkU4NCIgcng9IjMiIHJ5PSIzIiBzdHlsZT0ic3Ryb2tlOiMwMzgwNDg7c3Ryb2tlLXdpZHRoOjEuMDsiLz48dGV4dCBmaWxsPSIjMDAwMDAwIiBmb250LWZhbWlseT0ic2Fucy1zZXJpZiIgZm9udC1zaXplPSIxNCIgbGVuZ3RoQWRqdXN0PSJzcGFjaW5nIiB0ZXh0TGVuZ3RoPSIzNDciIHg9IjQyIiB5PSI2MzUuNjcxOSI+Ym9vbCBlbWl0SW5zdHJNYXRjaChzdGQ6Om9mc3RyZWFtICZhbXA7aW5zdHJJbmZvRmlsZSk8L3RleHQ+PGVsbGlwc2UgY3g9IjMzIiBjeT0iNjQ2LjQxNDEiIGZpbGw9IiM4NEJFODQiIHJ4PSIzIiByeT0iMyIgc3R5bGU9InN0cm9rZTojMDM4MDQ4O3N0cm9rZS13aWR0aDoxLjA7Ii8+PHRleHQgZmlsbD0iIzAwMDAwMCIgZm9udC1mYW1pbHk9InNhbnMtc2VyaWYiIGZvbnQtc2l6ZT0iMTQiIGxlbmd0aEFkanVzdD0ic3BhY2luZyIgdGV4dExlbmd0aD0iMzQwIiB4PSI0MiIgeT0iNjUwLjY1NjMiPmJvb2wgZW1pdEluc3RyTWFyY2hGb3JBcml0aChzdGQ6Om9mc3RyZWFtICZhbXA7ZmlsZSk8L3RleHQ+PGVsbGlwc2UgY3g9IjMzIiBjeT0iNjYxLjM5ODQiIGZpbGw9IiM4NEJFODQiIHJ4PSIzIiByeT0iMyIgc3R5bGU9InN0cm9rZTojMDM4MDQ4O3N0cm9rZS13aWR0aDoxLjA7Ii8+PHRleHQgZmlsbD0iIzAwMDAwMCIgZm9udC1mYW1pbHk9InNhbnMtc2VyaWYiIGZvbnQtc2l6ZT0iMTQiIGxlbmd0aEFkanVzdD0ic3BhY2luZyIgdGV4dExlbmd0aD0iMzk2IiB4PSI0MiIgeT0iNjY1LjY0MDYiPmJvb2wgZW1pdEluc3RyTWF0Y2hGb3JMb2FkKHN0ZDo6b2ZzdHJlYW0gJmFtcDtpbnN0ckluZm9GaWxlKTwvdGV4dD48ZWxsaXBzZSBjeD0iMzMiIGN5PSI2NzYuMzgyOCIgZmlsbD0iIzg0QkU4NCIgcng9IjMiIHJ5PSIzIiBzdHlsZT0ic3Ryb2tlOiMwMzgwNDg7c3Ryb2tlLXdpZHRoOjEuMDsiLz48dGV4dCBmaWxsPSIjMDAwMDAwIiBmb250LWZhbWlseT0ic2Fucy1zZXJpZiIgZm9udC1zaXplPSIxNCIgbGVuZ3RoQWRqdXN0PSJzcGFjaW5nIiB0ZXh0TGVuZ3RoPSIzNDAiIHg9IjQyIiB5PSI2ODAuNjI1Ij5ib29sIGVtaXRJbnN0ck1hdGNoRm9yU3RvcmUoc3RkOjpvZnN0cmVhbSAmYW1wO2ZpbGUpPC90ZXh0PjxlbGxpcHNlIGN4PSIzMyIgY3k9IjY5MS4zNjcyIiBmaWxsPSIjODRCRTg0IiByeD0iMyIgcnk9IjMiIHN0eWxlPSJzdHJva2U6IzAzODA0ODtzdHJva2Utd2lkdGg6MS4wOyIvPjx0ZXh0IGZpbGw9IiMwMDAwMDAiIGZvbnQtZmFtaWx5PSJzYW5zLXNlcmlmIiBmb250LXNpemU9IjE0IiBsZW5ndGhBZGp1c3Q9InNwYWNpbmciIHRleHRMZW5ndGg9IjQzOCIgeD0iNDIiIHk9IjY5NS42MDk0Ij5ib29sIGVtaXRJbnN0ck1hdGNoRm9ySW5zdHJpbnNpYyhzdGQ6Om9mc3RyZWFtICZhbXA7aW5zdHJJbmZvRmlsZSk8L3RleHQ+PGVsbGlwc2UgY3g9IjMzIiBjeT0iNzA2LjM1MTYiIGZpbGw9IiM4NEJFODQiIHJ4PSIzIiByeT0iMyIgc3R5bGU9InN0cm9rZTojMDM4MDQ4O3N0cm9rZS13aWR0aDoxLjA7Ii8+PHRleHQgZmlsbD0iIzAwMDAwMCIgZm9udC1mYW1pbHk9InNhbnMtc2VyaWYiIGZvbnQtc2l6ZT0iMTQiIGxlbmd0aEFkanVzdD0ic3BhY2luZyIgdGV4dExlbmd0aD0iMzU0IiB4PSI0MiIgeT0iNzEwLjU5MzgiPmJvb2wgZW1pdEJ1aWx0aW5IZWFkZXIoc3RkOjpvZnN0cmVhbSAmYW1wO2J1aWx0aW5GaWxlKTwvdGV4dD48ZWxsaXBzZSBjeD0iMzMiIGN5PSI3MjEuMzM1OSIgZmlsbD0iIzg0QkU4NCIgcng9IjMiIHJ5PSIzIiBzdHlsZT0ic3Ryb2tlOiMwMzgwNDg7c3Ryb2tlLXdpZHRoOjEuMDsiLz48dGV4dCBmaWxsPSIjMDAwMDAwIiBmb250LWZhbWlseT0ic2Fucy1zZXJpZiIgZm9udC1zaXplPSIxNCIgbGVuZ3RoQWRqdXN0PSJzcGFjaW5nIiB0ZXh0TGVuZ3RoPSIzMDQiIHg9IjQyIiB5PSI3MjUuNTc4MSI+dm9pZCBnZW5CdWlsdGluRnVuY0FQSShzdGQ6Om9mc3RyZWFtICZhbXA7ZmlsZSk8L3RleHQ+PGVsbGlwc2UgY3g9IjMzIiBjeT0iNzM2LjMyMDMiIGZpbGw9IiM4NEJFODQiIHJ4PSIzIiByeT0iMyIgc3R5bGU9InN0cm9rZTojMDM4MDQ4O3N0cm9rZS13aWR0aDoxLjA7Ii8+PHRleHQgZmlsbD0iIzAwMDAwMCIgZm9udC1mYW1pbHk9InNhbnMtc2VyaWYiIGZvbnQtc2l6ZT0iMTQiIGxlbmd0aEFkanVzdD0ic3BhY2luZyIgdGV4dExlbmd0aD0iMzY4IiB4PSI0MiIgeT0iNzQwLjU2MjUiPmJvb2wgZW1pdEJ1aWx0aW5UZXN0RmlsZShzdGQ6Om9mc3RyZWFtICZhbXA7YnVpbHRpbkZpbGUpPC90ZXh0PjxlbGxpcHNlIGN4PSIzMyIgY3k9Ijc1MS4zMDQ3IiBmaWxsPSIjODRCRTg0IiByeD0iMyIgcnk9IjMiIHN0eWxlPSJzdHJva2U6IzAzODA0ODtzdHJva2Utd2lkdGg6MS4wOyIvPjx0ZXh0IGZpbGw9IiMwMDAwMDAiIGZvbnQtZmFtaWx5PSJzYW5zLXNlcmlmIiBmb250LXNpemU9IjE0IiBsZW5ndGhBZGp1c3Q9InNwYWNpbmciIHRleHRMZW5ndGg9Ijk0MiIgeD0iNDIiIHk9Ijc1NS41NDY5Ij52b2lkIGdlbkxvYWRDb25Gb3JUZXN0RmlsZShzdGQ6Om9mc3RyZWFtICZhbXA7ZmlsZSwgV2luZ0NHSW5zdHJJbmZvOjpSZWdPcGVyYW5kICZhbXA7aW5zdHJSZWdPcGVyYW5kLCBjb25zdCBzdGQ6OnN0cmluZyAmYW1wO2xvYWRJbnN0ckJ1aWx0aW5OYW1lKTwvdGV4dD48ZWxsaXBzZSBjeD0iMzMiIGN5PSI3NjYuMjg5MSIgZmlsbD0iIzg0QkU4NCIgcng9IjMiIHJ5PSIzIiBzdHlsZT0ic3Ryb2tlOiMwMzgwNDg7c3Ryb2tlLXdpZHRoOjEuMDsiLz48dGV4dCBmaWxsPSIjMDAwMDAwIiBmb250LWZhbWlseT0ic2Fucy1zZXJpZiIgZm9udC1zaXplPSIxNCIgbGVuZ3RoQWRqdXN0PSJzcGFjaW5nIiB0ZXh0TGVuZ3RoPSI5NTYiIHg9IjQyIiB5PSI3NzAuNTMxMyI+dm9pZCBnZW5TdG9yZUNvbkZvclRlc3RGaWxlKHN0ZDo6b2ZzdHJlYW0gJmFtcDtmaWxlLCBXaW5nQ0dJbnN0ckluZm86OlJlZ09wZXJhbmQgJmFtcDtpbnN0clJlZ09wZXJhbmQsIGNvbnN0IHN0ZDo6c3RyaW5nICZhbXA7c3RvcmVJbnN0ckJ1aWx0aW5OYW1lKTwvdGV4dD48ZWxsaXBzZSBjeD0iMzMiIGN5PSI3ODEuMjczNCIgZmlsbD0iIzg0QkU4NCIgcng9IjMiIHJ5PSIzIiBzdHlsZT0ic3Ryb2tlOiMwMzgwNDg7c3Ryb2tlLXdpZHRoOjEuMDsiLz48dGV4dCBmaWxsPSIjMDAwMDAwIiBmb250LWZhbWlseT0ic2Fucy1zZXJpZiIgZm9udC1zaXplPSIxNCIgbGVuZ3RoQWRqdXN0PSJzcGFjaW5nIiB0ZXh0TGVuZ3RoPSI0MDMiIHg9IjQyIiB5PSI3ODUuNTE1NiI+Ym9vbCBlbWl0QnVpbHRpblRlc3RGaWxlTm9HUFIoc3RkOjpvZnN0cmVhbSAmYW1wO2J1aWx0aW5GaWxlKTwvdGV4dD48ZWxsaXBzZSBjeD0iMzMiIGN5PSI3OTYuMjU3OCIgZmlsbD0iIzg0QkU4NCIgcng9IjMiIHJ5PSIzIiBzdHlsZT0ic3Ryb2tlOiMwMzgwNDg7c3Ryb2tlLXdpZHRoOjEuMDsiLz48dGV4dCBmaWxsPSIjMDAwMDAwIiBmb250LWZhbWlseT0ic2Fucy1zZXJpZiIgZm9udC1zaXplPSIxNCIgbGVuZ3RoQWRqdXN0PSJzcGFjaW5nIiB0ZXh0TGVuZ3RoPSI0MTAiIHg9IjQyIiB5PSI4MDAuNSI+Ym9vbCBlbWl0QnVpbHRpblRlc3RGaWxlRm9yR1BSKHN0ZDo6b2ZzdHJlYW0gJmFtcDtidWlsdGluRmlsZSk8L3RleHQ+PGVsbGlwc2UgY3g9IjMzIiBjeT0iODExLjI0MjIiIGZpbGw9IiM4NEJFODQiIHJ4PSIzIiByeT0iMyIgc3R5bGU9InN0cm9rZTojMDM4MDQ4O3N0cm9rZS13aWR0aDoxLjA7Ii8+PHRleHQgZmlsbD0iIzAwMDAwMCIgZm9udC1mYW1pbHk9InNhbnMtc2VyaWYiIGZvbnQtc2l6ZT0iMTQiIGxlbmd0aEFkanVzdD0ic3BhY2luZyIgdGV4dExlbmd0aD0iMzYxIiB4PSI0MiIgeT0iODE1LjQ4NDQiPmJvb2wgZW1pdEJ1aWx0aW5EZWYoc3RkOjpvZnN0cmVhbSAmYW1wO2J1aWx0aW5JbmZvRmlsZSk8L3RleHQ+PGVsbGlwc2UgY3g9IjMzIiBjeT0iODI2LjIyNjYiIGZpbGw9IiM4NEJFODQiIHJ4PSIzIiByeT0iMyIgc3R5bGU9InN0cm9rZTojMDM4MDQ4O3N0cm9rZS13aWR0aDoxLjA7Ii8+PHRleHQgZmlsbD0iIzAwMDAwMCIgZm9udC1mYW1pbHk9InNhbnMtc2VyaWYiIGZvbnQtc2l6ZT0iMTQiIGxlbmd0aEFkanVzdD0ic3BhY2luZyIgdGV4dExlbmd0aD0iNDAzIiB4PSI0MiIgeT0iODMwLjQ2ODgiPmJvb2wgZW1pdEJ1aWx0aW5JbnRyaW5zaWMoc3RkOjpvZnN0cmVhbSAmYW1wO2J1aWx0aW5JbmZvRmlsZSk8L3RleHQ+PGVsbGlwc2UgY3g9IjMzIiBjeT0iODQxLjIxMDkiIGZpbGw9IiM4NEJFODQiIHJ4PSIzIiByeT0iMyIgc3R5bGU9InN0cm9rZTojMDM4MDQ4O3N0cm9rZS13aWR0aDoxLjA7Ii8+PHRleHQgZmlsbD0iIzAwMDAwMCIgZm9udC1mYW1pbHk9InNhbnMtc2VyaWYiIGZvbnQtc2l6ZT0iMTQiIGxlbmd0aEFkanVzdD0ic3BhY2luZyIgdGV4dExlbmd0aD0iNDE3IiB4PSI0MiIgeT0iODQ1LjQ1MzEiPmJvb2wgZW1pdEJ1aWx0aW5JUkZvck11bFJlcyhzdGQ6Om9mc3RyZWFtICZhbXA7YnVpbHRpbkluZm9GaWxlKTwvdGV4dD48ZWxsaXBzZSBjeD0iMzMiIGN5PSI4NTYuMTk1MyIgZmlsbD0iIzg0QkU4NCIgcng9IjMiIHJ5PSIzIiBzdHlsZT0ic3Ryb2tlOiMwMzgwNDg7c3Ryb2tlLXdpZHRoOjEuMDsiLz48dGV4dCBmaWxsPSIjMDAwMDAwIiBmb250LWZhbWlseT0ic2Fucy1zZXJpZiIgZm9udC1zaXplPSIxNCIgbGVuZ3RoQWRqdXN0PSJzcGFjaW5nIiB0ZXh0TGVuZ3RoPSIxNTYiIHg9IjQyIiB5PSI4NjAuNDM3NSI+c3RkOjpzdHJpbmcgZ2V0SW5EQUcoKTwvdGV4dD48ZWxsaXBzZSBjeD0iMzMiIGN5PSI4NzEuMTc5NyIgZmlsbD0iIzg0QkU4NCIgcng9IjMiIHJ5PSIzIiBzdHlsZT0ic3Ryb2tlOiMwMzgwNDg7c3Ryb2tlLXdpZHRoOjEuMDsiLz48dGV4dCBmaWxsPSIjMDAwMDAwIiBmb250LWZhbWlseT0ic2Fucy1zZXJpZiIgZm9udC1zaXplPSIxNCIgbGVuZ3RoQWRqdXN0PSJzcGFjaW5nIiB0ZXh0TGVuZ3RoPSIxOTgiIHg9IjQyIiB5PSI4NzUuNDIxOSI+c3RkOjpzdHJpbmcgZ2V0SW5EQUdGb3JEQUcoKTwvdGV4dD48ZWxsaXBzZSBjeD0iMzMiIGN5PSI4ODYuMTY0MSIgZmlsbD0iIzg0QkU4NCIgcng9IjMiIHJ5PSIzIiBzdHlsZT0ic3Ryb2tlOiMwMzgwNDg7c3Ryb2tlLXdpZHRoOjEuMDsiLz48dGV4dCBmaWxsPSIjMDAwMDAwIiBmb250LWZhbWlseT0ic2Fucy1zZXJpZiIgZm9udC1zaXplPSIxNCIgbGVuZ3RoQWRqdXN0PSJzcGFjaW5nIiB0ZXh0TGVuZ3RoPSIyNDciIHg9IjQyIiB5PSI4OTAuNDA2MyI+c3RkOjpzdHJpbmcgZ2V0SW5EQUdGb3JJbnN0cmluc2ljKCk8L3RleHQ+PGVsbGlwc2UgY3g9IjMzIiBjeT0iOTAxLjE0ODQiIGZpbGw9IiM4NEJFODQiIHJ4PSIzIiByeT0iMyIgc3R5bGU9InN0cm9rZTojMDM4MDQ4O3N0cm9rZS13aWR0aDoxLjA7Ii8+PHRleHQgZmlsbD0iIzAwMDAwMCIgZm9udC1mYW1pbHk9InNhbnMtc2VyaWYiIGZvbnQtc2l6ZT0iMTQiIGxlbmd0aEFkanVzdD0ic3BhY2luZyIgdGV4dExlbmd0aD0iMjgzIiB4PSI0MiIgeT0iOTA1LjM5MDYiPnN0ZDo6c3RyaW5nIGdldEluREFHRm9yQ29tcHJlc3NlZEluc3RyKCk8L3RleHQ+PGVsbGlwc2UgY3g9IjMzIiBjeT0iOTE2LjEzMjgiIGZpbGw9IiM4NEJFODQiIHJ4PSIzIiByeT0iMyIgc3R5bGU9InN0cm9rZTojMDM4MDQ4O3N0cm9rZS13aWR0aDoxLjA7Ii8+PHRleHQgZmlsbD0iIzAwMDAwMCIgZm9udC1mYW1pbHk9InNhbnMtc2VyaWYiIGZvbnQtc2l6ZT0iMTQiIGxlbmd0aEFkanVzdD0ic3BhY2luZyIgdGV4dExlbmd0aD0iMTYzIiB4PSI0MiIgeT0iOTIwLjM3NSI+c3RkOjpzdHJpbmcgZ2V0T3V0REFHKCk8L3RleHQ+PGVsbGlwc2UgY3g9IjMzIiBjeT0iOTMxLjExNzIiIGZpbGw9IiM4NEJFODQiIHJ4PSIzIiByeT0iMyIgc3R5bGU9InN0cm9rZTojMDM4MDQ4O3N0cm9rZS13aWR0aDoxLjA7Ii8+PHRleHQgZmlsbD0iIzAwMDAwMCIgZm9udC1mYW1pbHk9InNhbnMtc2VyaWYiIGZvbnQtc2l6ZT0iMTQiIGxlbmd0aEFkanVzdD0ic3BhY2luZyIgdGV4dExlbmd0aD0iMzczIiB4PSI0MiIgeT0iOTM1LjM1OTQiPnN0ZDo6c3RyaW5nIHRvREFHU3RyaW5nKHN0ZDo6dmVjdG9yJmx0O1JlZ09wZXJhbmQmZ3Q7ICZhbXA7dmVjKTwvdGV4dD48ZWxsaXBzZSBjeD0iMzMiIGN5PSI5NDYuMTAxNiIgZmlsbD0iIzg0QkU4NCIgcng9IjMiIHJ5PSIzIiBzdHlsZT0ic3Ryb2tlOiMwMzgwNDg7c3Ryb2tlLXdpZHRoOjEuMDsiLz48dGV4dCBmaWxsPSIjMDAwMDAwIiBmb250LWZhbWlseT0ic2Fucy1zZXJpZiIgZm9udC1zaXplPSIxNCIgbGVuZ3RoQWRqdXN0PSJzcGFjaW5nIiB0ZXh0TGVuZ3RoPSIxOTkiIHg9IjQyIiB5PSI5NTAuMzQzOCI+c3RkOjpzdHJpbmcgZ2V0SW5zdHJGb3JtYXQoKTwvdGV4dD48ZWxsaXBzZSBjeD0iMzMiIGN5PSI5NjEuMDg1OSIgZmlsbD0iIzg0QkU4NCIgcng9IjMiIHJ5PSIzIiBzdHlsZT0ic3Ryb2tlOiMwMzgwNDg7c3Ryb2tlLXdpZHRoOjEuMDsiLz48dGV4dCBmaWxsPSIjMDAwMDAwIiBmb250LWZhbWlseT0ic2Fucy1zZXJpZiIgZm9udC1zaXplPSIxNCIgbGVuZ3RoQWRqdXN0PSJzcGFjaW5nIiB0ZXh0TGVuZ3RoPSIyOTciIHg9IjQyIiB5PSI5NjUuMzI4MSI+c3RkOjpzdHJpbmcgZ2V0QnVpbHRpbk5hbWUoKSA6IHN0ZDo6c3RyaW5nPC90ZXh0PjxlbGxpcHNlIGN4PSIzMyIgY3k9Ijk3Ni4wNzAzIiBmaWxsPSIjODRCRTg0IiByeD0iMyIgcnk9IjMiIHN0eWxlPSJzdHJva2U6IzAzODA0ODtzdHJva2Utd2lkdGg6MS4wOyIvPjx0ZXh0IGZpbGw9IiMwMDAwMDAiIGZvbnQtZmFtaWx5PSJzYW5zLXNlcmlmIiBmb250LXNpemU9IjE0IiBsZW5ndGhBZGp1c3Q9InNwYWNpbmciIHRleHRMZW5ndGg9IjIyMCIgeD0iNDIiIHk9Ijk4MC4zMTI1Ij5zdGQ6OnN0cmluZyBnZXRJbnN0cmluc2ljTmFtZSgpPC90ZXh0PjxlbGxpcHNlIGN4PSIzMyIgY3k9Ijk5MS4wNTQ3IiBmaWxsPSIjODRCRTg0IiByeD0iMyIgcnk9IjMiIHN0eWxlPSJzdHJva2U6IzAzODA0ODtzdHJva2Utd2lkdGg6MS4wOyIvPjx0ZXh0IGZpbGw9IiMwMDAwMDAiIGZvbnQtZmFtaWx5PSJzYW5zLXNlcmlmIiBmb250LXNpemU9IjE0IiBsZW5ndGhBZGp1c3Q9InNwYWNpbmciIHRleHRMZW5ndGg9IjI4MyIgeD0iNDIiIHk9Ijk5NS4yOTY5Ij5zdGQ6OnN0cmluZyBnZXRJbnN0ck5hbWUoKSA6IHN0ZDo6c3RyaW5nPC90ZXh0PjxlbGxpcHNlIGN4PSIzMyIgY3k9IjEwMDYuMDM5MSIgZmlsbD0iIzg0QkU4NCIgcng9IjMiIHJ5PSIzIiBzdHlsZT0ic3Ryb2tlOiMwMzgwNDg7c3Ryb2tlLXdpZHRoOjEuMDsiLz48dGV4dCBmaWxsPSIjMDAwMDAwIiBmb250LWZhbWlseT0ic2Fucy1zZXJpZiIgZm9udC1zaXplPSIxNCIgbGVuZ3RoQWRqdXN0PSJzcGFjaW5nIiB0ZXh0TGVuZ3RoPSIyMzMiIHg9IjQyIiB5PSIxMDEwLjI4MTMiPnVuc2lnbmVkIGdldEluc3RyTGVuKCkgOiB1bnNpZ25lZDwvdGV4dD48ZWxsaXBzZSBjeD0iMzMiIGN5PSIxMDIxLjAyMzQiIGZpbGw9IiM4NEJFODQiIHJ4PSIzIiByeT0iMyIgc3R5bGU9InN0cm9rZTojMDM4MDQ4O3N0cm9rZS13aWR0aDoxLjA7Ii8+PHRleHQgZmlsbD0iIzAwMDAwMCIgZm9udC1mYW1pbHk9InNhbnMtc2VyaWYiIGZvbnQtc2l6ZT0iMTQiIGxlbmd0aEFkanVzdD0ic3BhY2luZyIgdGV4dExlbmd0aD0iMzAzIiB4PSI0MiIgeT0iMTAyNS4yNjU2Ij5zdGQ6OnN0cmluZyBnZXRCaW5hcnlTdHJpbmcoKSA6IHN0ZDo6c3RyaW5nPC90ZXh0PjxlbGxpcHNlIGN4PSIzMyIgY3k9IjEwMzYuMDA3OCIgZmlsbD0iIzg0QkU4NCIgcng9IjMiIHJ5PSIzIiBzdHlsZT0ic3Ryb2tlOiMwMzgwNDg7c3Ryb2tlLXdpZHRoOjEuMDsiLz48dGV4dCBmaWxsPSIjMDAwMDAwIiBmb250LWZhbWlseT0ic2Fucy1zZXJpZiIgZm9udC1zaXplPSIxNCIgbGVuZ3RoQWRqdXN0PSJzcGFjaW5nIiB0ZXh0TGVuZ3RoPSIzMDMiIHg9IjQyIiB5PSIxMDQwLjI1Ij5zdGQ6OnN0cmluZyBnZXRTeW50YXhTdHJpbmcoKSA6IHN0ZDo6c3RyaW5nPC90ZXh0PjxlbGxpcHNlIGN4PSIzMyIgY3k9IjEwNTAuOTkyMiIgZmlsbD0iIzg0QkU4NCIgcng9IjMiIHJ5PSIzIiBzdHlsZT0ic3Ryb2tlOiMwMzgwNDg7c3Ryb2tlLXdpZHRoOjEuMDsiLz48dGV4dCBmaWxsPSIjMDAwMDAwIiBmb250LWZhbWlseT0ic2Fucy1zZXJpZiIgZm9udC1zaXplPSIxNCIgbGVuZ3RoQWRqdXN0PSJzcGFjaW5nIiB0ZXh0TGVuZ3RoPSIzMzIiIHg9IjQyIiB5PSIxMDU1LjIzNDQiPnN0ZDo6c3RyaW5nIGdldEluc3RyRm9ybWF0Rm9yVEQoKSA6IHN0ZDo6c3RyaW5nPC90ZXh0PjxlbGxpcHNlIGN4PSIzMyIgY3k9IjEwNjUuOTc2NiIgZmlsbD0iIzg0QkU4NCIgcng9IjMiIHJ5PSIzIiBzdHlsZT0ic3Ryb2tlOiMwMzgwNDg7c3Ryb2tlLXdpZHRoOjEuMDsiLz48dGV4dCBmaWxsPSIjMDAwMDAwIiBmb250LWZhbWlseT0ic2Fucy1zZXJpZiIgZm9udC1zaXplPSIxNCIgbGVuZ3RoQWRqdXN0PSJzcGFjaW5nIiB0ZXh0TGVuZ3RoPSIyNDAiIHg9IjQyIiB5PSIxMDcwLjIxODgiPnVuc2lnbmVkIGdldEluc3RyVHlwZSgpIDogdW5zaWduZWQ8L3RleHQ+PGVsbGlwc2UgY3g9IjMzIiBjeT0iMTA4MC45NjA5IiBmaWxsPSIjODRCRTg0IiByeD0iMyIgcnk9IjMiIHN0eWxlPSJzdHJva2U6IzAzODA0ODtzdHJva2Utd2lkdGg6MS4wOyIvPjx0ZXh0IGZpbGw9IiMwMDAwMDAiIGZvbnQtZmFtaWx5PSJzYW5zLXNlcmlmIiBmb250LXNpemU9IjE0IiBsZW5ndGhBZGp1c3Q9InNwYWNpbmciIHRleHRMZW5ndGg9IjMwMyIgeD0iNDIiIHk9IjEwODUuMjAzMSI+c3RkOjpzdHJpbmcgZ2V0SW5zdHJQYXR0ZXJuKCkgOiBzdGQ6OnN0cmluZzwvdGV4dD48ZWxsaXBzZSBjeD0iMzMiIGN5PSIxMDk1Ljk0NTMiIGZpbGw9IiM4NEJFODQiIHJ4PSIzIiByeT0iMyIgc3R5bGU9InN0cm9rZTojMDM4MDQ4O3N0cm9rZS13aWR0aDoxLjA7Ii8+PHRleHQgZmlsbD0iIzAwMDAwMCIgZm9udC1mYW1pbHk9InNhbnMtc2VyaWYiIGZvbnQtc2l6ZT0iMTQiIGxlbmd0aEFkanVzdD0ic3BhY2luZyIgdGV4dExlbmd0aD0iMjc1IiB4PSI0MiIgeT0iMTEwMC4xODc1Ij5XaW5nQ0dUeXBlKiBnZXRWZWN0b3JWVCgpIDogV2luZ0NHVHlwZSo8L3RleHQ+PGVsbGlwc2UgY3g9IjMzIiBjeT0iMTExMC45Mjk3IiBmaWxsPSIjODRCRTg0IiByeD0iMyIgcnk9IjMiIHN0eWxlPSJzdHJva2U6IzAzODA0ODtzdHJva2Utd2lkdGg6MS4wOyIvPjx0ZXh0IGZpbGw9IiMwMDAwMDAiIGZvbnQtZmFtaWx5PSJzYW5zLXNlcmlmIiBmb250LXNpemU9IjE0IiBsZW5ndGhBZGp1c3Q9InNwYWNpbmciIHRleHRMZW5ndGg9IjMxMCIgeD0iNDIiIHk9IjExMTUuMTcxOSI+YXV0byZhbXA7IGdldFJlZ1JlYWQoKSA6IHN0ZDo6dmVjdG9yJmx0O1JlZ09wZXJhbmQmZ3Q7PC90ZXh0PjxlbGxpcHNlIGN4PSIzMyIgY3k9IjExMjUuOTE0MSIgZmlsbD0iIzg0QkU4NCIgcng9IjMiIHJ5PSIzIiBzdHlsZT0ic3Ryb2tlOiMwMzgwNDg7c3Ryb2tlLXdpZHRoOjEuMDsiLz48dGV4dCBmaWxsPSIjMDAwMDAwIiBmb250LWZhbWlseT0ic2Fucy1zZXJpZiIgZm9udC1zaXplPSIxNCIgbGVuZ3RoQWRqdXN0PSJzcGFjaW5nIiB0ZXh0TGVuZ3RoPSIzMTciIHg9IjQyIiB5PSIxMTMwLjE1NjMiPmF1dG8mYW1wOyBnZXRSZWdXcml0ZSgpIDogc3RkOjp2ZWN0b3ImbHQ7UmVnT3BlcmFuZCZndDs8L3RleHQ+PGVsbGlwc2UgY3g9IjMzIiBjeT0iMTE0MC44OTg0IiBmaWxsPSIjODRCRTg0IiByeD0iMyIgcnk9IjMiIHN0eWxlPSJzdHJva2U6IzAzODA0ODtzdHJva2Utd2lkdGg6MS4wOyIvPjx0ZXh0IGZpbGw9IiMwMDAwMDAiIGZvbnQtZmFtaWx5PSJzYW5zLXNlcmlmIiBmb250LXNpemU9IjE0IiBsZW5ndGhBZGp1c3Q9InNwYWNpbmciIHRleHRMZW5ndGg9IjI5MyIgeD0iNDIiIHk9IjExNDUuMTQwNiI+YXV0byZhbXA7IGdldEltbXMoKSA6IHN0ZDo6dmVjdG9yJmx0O0ltbU9wZXJhbmQmZ3Q7PC90ZXh0PjxlbGxpcHNlIGN4PSIzMyIgY3k9IjExNTUuODgyOCIgZmlsbD0iIzg0QkU4NCIgcng9IjMiIHJ5PSIzIiBzdHlsZT0ic3Ryb2tlOiMwMzgwNDg7c3Ryb2tlLXdpZHRoOjEuMDsiLz48dGV4dCBmaWxsPSIjMDAwMDAwIiBmb250LWZhbWlseT0ic2Fucy1zZXJpZiIgZm9udC1zaXplPSIxNCIgbGVuZ3RoQWRqdXN0PSJzcGFjaW5nIiB0ZXh0TGVuZ3RoPSIxNTEiIHg9IjQyIiB5PSIxMTYwLjEyNSI+dm9pZCBzZXRJc0p1bXBJbnN0cigpPC90ZXh0PjxlbGxpcHNlIGN4PSIzMyIgY3k9IjExNzAuODY3MiIgZmlsbD0iIzg0QkU4NCIgcng9IjMiIHJ5PSIzIiBzdHlsZT0ic3Ryb2tlOiMwMzgwNDg7c3Ryb2tlLXdpZHRoOjEuMDsiLz48dGV4dCBmaWxsPSIjMDAwMDAwIiBmb250LWZhbWlseT0ic2Fucy1zZXJpZiIgZm9udC1zaXplPSIxNCIgbGVuZ3RoQWRqdXN0PSJzcGFjaW5nIiB0ZXh0TGVuZ3RoPSIxMTQiIHg9IjQyIiB5PSIxMTc1LjEwOTQiPnZvaWQgc2V0SXNMb2FkKCk8L3RleHQ+PGVsbGlwc2UgY3g9IjMzIiBjeT0iMTE4NS44NTE2IiBmaWxsPSIjODRCRTg0IiByeD0iMyIgcnk9IjMiIHN0eWxlPSJzdHJva2U6IzAzODA0ODtzdHJva2Utd2lkdGg6MS4wOyIvPjx0ZXh0IGZpbGw9IiMwMDAwMDAiIGZvbnQtZmFtaWx5PSJzYW5zLXNlcmlmIiBmb250LXNpemU9IjE0IiBsZW5ndGhBZGp1c3Q9InNwYWNpbmciIHRleHRMZW5ndGg9IjEyMSIgeD0iNDIiIHk9IjExOTAuMDkzOCI+dm9pZCBzZXRJc1N0b3JlKCk8L3RleHQ+PGVsbGlwc2UgY3g9IjMzIiBjeT0iMTIwMC44MzU5IiBmaWxsPSIjODRCRTg0IiByeD0iMyIgcnk9IjMiIHN0eWxlPSJzdHJva2U6IzAzODA0ODtzdHJva2Utd2lkdGg6MS4wOyIvPjx0ZXh0IGZpbGw9IiMwMDAwMDAiIGZvbnQtZmFtaWx5PSJzYW5zLXNlcmlmIiBmb250LXNpemU9IjE0IiBsZW5ndGhBZGp1c3Q9InNwYWNpbmciIHRleHRMZW5ndGg9IjE0MiIgeD0iNDIiIHk9IjEyMDUuMDc4MSI+Ym9vbCBpc0xvYWQoKSA6IGJvb2w8L3RleHQ+PGVsbGlwc2UgY3g9IjMzIiBjeT0iMTIxNS44MjAzIiBmaWxsPSIjODRCRTg0IiByeD0iMyIgcnk9IjMiIHN0eWxlPSJzdHJva2U6IzAzODA0ODtzdHJva2Utd2lkdGg6MS4wOyIvPjx0ZXh0IGZpbGw9IiMwMDAwMDAiIGZvbnQtZmFtaWx5PSJzYW5zLXNlcmlmIiBmb250LXNpemU9IjE0IiBsZW5ndGhBZGp1c3Q9InNwYWNpbmciIHRleHRMZW5ndGg9IjE0OSIgeD0iNDIiIHk9IjEyMjAuMDYyNSI+Ym9vbCBpc1N0b3JlKCkgOiBib29sPC90ZXh0PjxlbGxpcHNlIGN4PSIzMyIgY3k9IjEyMzAuODA0NyIgZmlsbD0iIzg0QkU4NCIgcng9IjMiIHJ5PSIzIiBzdHlsZT0ic3Ryb2tlOiMwMzgwNDg7c3Ryb2tlLXdpZHRoOjEuMDsiLz48dGV4dCBmaWxsPSIjMDAwMDAwIiBmb250LWZhbWlseT0ic2Fucy1zZXJpZiIgZm9udC1zaXplPSIxNCIgbGVuZ3RoQWRqdXN0PSJzcGFjaW5nIiB0ZXh0TGVuZ3RoPSIxNTYiIHg9IjQyIiB5PSIxMjM1LjA0NjkiPmJvb2wgaXNWZWN0b3IoKSA6IGJvb2w8L3RleHQ+PGVsbGlwc2UgY3g9IjMzIiBjeT0iMTI0NS43ODkxIiBmaWxsPSIjODRCRTg0IiByeD0iMyIgcnk9IjMiIHN0eWxlPSJzdHJva2U6IzAzODA0ODtzdHJva2Utd2lkdGg6MS4wOyIvPjx0ZXh0IGZpbGw9IiMwMDAwMDAiIGZvbnQtZmFtaWx5PSJzYW5zLXNlcmlmIiBmb250LXNpemU9IjE0IiBsZW5ndGhBZGp1c3Q9InNwYWNpbmciIHRleHRMZW5ndGg9IjIyMCIgeD0iNDIiIHk9IjEyNTAuMDMxMyI+Ym9vbCBpc0NvbXByZXNzZWRJbnN0cigpIDogYm9vbDwvdGV4dD48ZWxsaXBzZSBjeD0iMzMiIGN5PSIxMjYwLjc3MzQiIGZpbGw9IiM4NEJFODQiIHJ4PSIzIiByeT0iMyIgc3R5bGU9InN0cm9rZTojMDM4MDQ4O3N0cm9rZS13aWR0aDoxLjA7Ii8+PHRleHQgZmlsbD0iIzAwMDAwMCIgZm9udC1mYW1pbHk9InNhbnMtc2VyaWYiIGZvbnQtc2l6ZT0iMTQiIGxlbmd0aEFkanVzdD0ic3BhY2luZyIgdGV4dExlbmd0aD0iMzgxIiB4PSI0MiIgeT0iMTI2NS4wMTU2Ij5zdGQ6OnN0cmluZyBnZXRJbnN0ckZvckNvbXByZXNzZWRJbnN0cigpIDogc3RkOjpzdHJpbmc8L3RleHQ+PC9nPjwhLS1jbGFzcyBXaW5nQ0dJbnN0ckluZm86OlJlZ09wZXJhbmQtLT48ZyBpZD0iZWxlbV9XaW5nQ0dJbnN0ckluZm86OlJlZ09wZXJhbmQiPjxyZWN0IGNvZGVMaW5lPSI3NyIgZmlsbD0iI0YxRjFGMSIgaGVpZ2h0PSIzMzIuNzAzMSIgaWQ9IldpbmdDR0luc3RySW5mbzo6UmVnT3BlcmFuZCIgcng9IjIuNSIgcnk9IjIuNSIgc3R5bGU9InN0cm9rZTojMTgxODE4O3N0cm9rZS13aWR0aDowLjU7IiB3aWR0aD0iNDA2IiB4PSIxMDM5IiB5PSI0ODguNSIvPjxlbGxpcHNlIGN4PSIxMTQzLjI1IiBjeT0iNTA0LjUiIGZpbGw9IiNGMUYxRjEiIHJ4PSIxMSIgcnk9IjExIiBzdHlsZT0ic3Ryb2tlOiMxODE4MTg7c3Ryb2tlLXdpZHRoOjEuMDsiLz48cGF0aCBkPSJNMTE0MC44NzUsNTA4Ljc1IEwxMTQwLjg3NSw1MTAuNSBMMTE0NS44MTI1LDUxMC41IEwxMTQ1LjgxMjUsNTA4Ljc1IEwxMTQwLjg3NSw1MDguNzUgWiBNMTE0MS41NjI1LDUwOS40Mzc1IFExMTQxLjU2MjUsNTA5LjQzNzUgMTE0MS41NjI1LDUwNi42MjUgTDExMzkuODEyNSw1MDYuNjI1IFExMTM5LjgxMjUsNTA2LjYyNSAxMTM5LjgxMjUsNTA5LjQzNzUgTDExNDEuNTYyNSw1MDkuNDM3NSBaIE0xMTQ1LjEyNSw1MDkuNDM3NSBMMTE0Ni44NzUsNTA5LjQzNzUgTDExNDYuODc1LDUwNS41NjI1IEwxMTQ1LjEyNSw1MDUuNTYyNSBMMTE0NS4xMjUsNTA5LjQzNzUgWiBNMTE0NS44MTI1LDUwNi4yNSBMMTE0NS44MTI1LDUwNC41IEwxMTQzLDUwNC41IEwxMTQzLDUwNi4yNSBMMTE0NS44MTI1LDUwNi4yNSBaIE0xMTQzLjY4NzUsNTA1LjE4NzUgTDExNDMuNjg3NSw1MDMuNDM3NSBMMTE0MC44NzUsNTAzLjQzNzUgTDExNDAuODc1LDUwNS4xODc1IEwxMTQzLjY4NzUsNTA1LjE4NzUgWiBNMTE0MS41NjI1LDUwNC4xMjUgTDExNDEuNTYyNSw1MDAuMjUgTDExMzkuODEyNSw1MDAuMjUgTDExMzkuODEyNSw1MDQuMTI1IEwxMTQxLjU2MjUsNTA0LjEyNSBaIE0xMTQ1LjEyNSw1MDAuMjUgUTExNDUuMTI1LDUwMC4yNSAxMTQ1LjEyNSw1MDMuMDYyNSBMMTE0Ni44NzUsNTAzLjA2MjUgUTExNDYuODc1LDUwMy4wNjI1IDExNDYuODc1LDUwMC4yNSBMMTE0NS4xMjUsNTAwLjI1IFogTTExNDAuODc1LDUwMC45Mzc1IEwxMTQ1LjgxMjUsNTAwLjkzNzUgTDExNDUuODEyNSw0OTkuMTg3NSBMMTE0MC44NzUsNDk5LjE4NzUgTDExNDAuODc1LDUwMC45Mzc1IFogIiBmaWxsPSIjMDAwMDAwIi8+PHRleHQgZmlsbD0iIzAwMDAwMCIgZm9udC1mYW1pbHk9InNhbnMtc2VyaWYiIGZvbnQtc2l6ZT0iMTQiIGxlbmd0aEFkanVzdD0ic3BhY2luZyIgdGV4dExlbmd0aD0iMTg5IiB4PSIxMTYzLjc1IiB5PSI1MTAuMjQyMiI+V2luZ0NHSW5zdHJJbmZvOjpSZWdPcGVyYW5kPC90ZXh0PjxsaW5lIHN0eWxlPSJzdHJva2U6IzE4MTgxODtzdHJva2Utd2lkdGg6MC41OyIgeDE9IjEwNDAiIHgyPSIxNDQ0IiB5MT0iNTIwLjUiIHkyPSI1MjAuNSIvPjxyZWN0IGZpbGw9Im5vbmUiIGhlaWdodD0iNiIgc3R5bGU9InN0cm9rZTojQzgyOTMwO3N0cm9rZS13aWR0aDoxLjA7IiB3aWR0aD0iNiIgeD0iMTA0NyIgeT0iNTMwLjQ5MjIiLz48dGV4dCBmaWxsPSIjMDAwMDAwIiBmb250LWZhbWlseT0ic2Fucy1zZXJpZiIgZm9udC1zaXplPSIxNCIgbGVuZ3RoQWRqdXN0PSJzcGFjaW5nIiB0ZXh0TGVuZ3RoPSIxNDgiIHg9IjEwNTkiIHk9IjUzNy43MzQ0Ij5zdGQ6OnN0cmluZyBsb2NhbE5hbWU8L3RleHQ+PHJlY3QgZmlsbD0ibm9uZSIgaGVpZ2h0PSI2IiBzdHlsZT0ic3Ryb2tlOiNDODI5MzA7c3Ryb2tlLXdpZHRoOjEuMDsiIHdpZHRoPSI2IiB4PSIxMDQ3IiB5PSI1NDUuNDc2NiIvPjx0ZXh0IGZpbGw9IiMwMDAwMDAiIGZvbnQtZmFtaWx5PSJzYW5zLXNlcmlmIiBmb250LXNpemU9IjE0IiBsZW5ndGhBZGp1c3Q9InNwYWNpbmciIHRleHRMZW5ndGg9IjE4MyIgeD0iMTA1OSIgeT0iNTUyLjcxODgiPnN0ZDo6c3RyaW5nIHJlZ09wZXJhbmROYW1lPC90ZXh0PjxyZWN0IGZpbGw9Im5vbmUiIGhlaWdodD0iNiIgc3R5bGU9InN0cm9rZTojQzgyOTMwO3N0cm9rZS13aWR0aDoxLjA7IiB3aWR0aD0iNiIgeD0iMTA0NyIgeT0iNTYwLjQ2MDkiLz48dGV4dCBmaWxsPSIjMDAwMDAwIiBmb250LWZhbWlseT0ic2Fucy1zZXJpZiIgZm9udC1zaXplPSIxNCIgbGVuZ3RoQWRqdXN0PSJzcGFjaW5nIiB0ZXh0TGVuZ3RoPSIxMzMiIHg9IjEwNTkiIHk9IjU2Ny43MDMxIj5SZWdPcGVyYW5kVHlwZSB0eXBlPC90ZXh0PjxyZWN0IGZpbGw9Im5vbmUiIGhlaWdodD0iNiIgc3R5bGU9InN0cm9rZTojQzgyOTMwO3N0cm9rZS13aWR0aDoxLjA7IiB3aWR0aD0iNiIgeD0iMTA0NyIgeT0iNTc1LjQ0NTMiLz48dGV4dCBmaWxsPSIjMDAwMDAwIiBmb250LWZhbWlseT0ic2Fucy1zZXJpZiIgZm9udC1zaXplPSIxNCIgbGVuZ3RoQWRqdXN0PSJzcGFjaW5nIiB0ZXh0TGVuZ3RoPSIxODMiIHg9IjEwNTkiIHk9IjU4Mi42ODc1Ij5zdGQ6OnN0cmluZyBsb2NhbE5hbWVXcml0ZTwvdGV4dD48cmVjdCBmaWxsPSJub25lIiBoZWlnaHQ9IjYiIHN0eWxlPSJzdHJva2U6I0M4MjkzMDtzdHJva2Utd2lkdGg6MS4wOyIgd2lkdGg9IjYiIHg9IjEwNDciIHk9IjU5MC40Mjk3Ii8+PHRleHQgZmlsbD0iIzAwMDAwMCIgZm9udC1mYW1pbHk9InNhbnMtc2VyaWYiIGZvbnQtc2l6ZT0iMTQiIGxlbmd0aEFkanVzdD0ic3BhY2luZyIgdGV4dExlbmd0aD0iMTQwIiB4PSIxMDU5IiB5PSI1OTcuNjcxOSI+V2luZ0NHVHlwZSB2YWx1ZVR5cGU8L3RleHQ+PGxpbmUgc3R5bGU9InN0cm9rZTojMTgxODE4O3N0cm9rZS13aWR0aDowLjU7IiB4MT0iMTA0MCIgeDI9IjE0NDQiIHkxPSI2MDMuNDIxOSIgeTI9IjYwMy40MjE5Ii8+PGVsbGlwc2UgY3g9IjEwNTAiIGN5PSI2MzguODkwNiIgZmlsbD0iIzg0QkU4NCIgcng9IjMiIHJ5PSIzIiBzdHlsZT0ic3Ryb2tlOiMwMzgwNDg7c3Ryb2tlLXdpZHRoOjEuMDsiLz48dGV4dCBmaWxsPSIjMDAwMDAwIiBmb250LWZhbWlseT0ic2Fucy1zZXJpZiIgZm9udC1zaXplPSIxNCIgbGVuZ3RoQWRqdXN0PSJzcGFjaW5nIiB0ZXh0TGVuZ3RoPSIyNDciIHg9IjEwNTkiIHk9IjYyMC42NTYzIj5SZWdPcGVyYW5kKGxvY2FsTmFtZSA6IHN0ZDo6c3RyaW5nLDwvdGV4dD48dGV4dCBmaWxsPSIjMDAwMDAwIiBmb250LWZhbWlseT0ic2Fucy1zZXJpZiIgZm9udC1zaXplPSIxNCIgbGVuZ3RoQWRqdXN0PSJzcGFjaW5nIiB0ZXh0TGVuZ3RoPSIyMDQiIHg9IjEwNTkiIHk9IjYzNS42NDA2Ij5yZWdPcGVyYW5kTmFtZSA6IHN0ZDo6c3RyaW5nLDwvdGV4dD48dGV4dCBmaWxsPSIjMDAwMDAwIiBmb250LWZhbWlseT0ic2Fucy1zZXJpZiIgZm9udC1zaXplPSIxNCIgbGVuZ3RoQWRqdXN0PSJzcGFjaW5nIiB0ZXh0TGVuZ3RoPSIxNTQiIHg9IjEwNTkiIHk9IjY1MC42MjUiPnR5cGUgOiBSZWdPcGVyYW5kVHlwZSw8L3RleHQ+PHRleHQgZmlsbD0iIzAwMDAwMCIgZm9udC1mYW1pbHk9InNhbnMtc2VyaWYiIGZvbnQtc2l6ZT0iMTQiIGxlbmd0aEFkanVzdD0ic3BhY2luZyIgdGV4dExlbmd0aD0iMTYyIiB4PSIxMDU5IiB5PSI2NjUuNjA5NCI+dmFsdWVUeXBlIDogV2luZ0NHVHlwZSk8L3RleHQ+PGVsbGlwc2UgY3g9IjEwNTAiIGN5PSI2NzYuMzUxNiIgZmlsbD0iIzg0QkU4NCIgcng9IjMiIHJ5PSIzIiBzdHlsZT0ic3Ryb2tlOiMwMzgwNDg7c3Ryb2tlLXdpZHRoOjEuMDsiLz48dGV4dCBmaWxsPSIjMDAwMDAwIiBmb250LWZhbWlseT0ic2Fucy1zZXJpZiIgZm9udC1zaXplPSIxNCIgbGVuZ3RoQWRqdXN0PSJzcGFjaW5nIiB0ZXh0TGVuZ3RoPSIyOTYiIHg9IjEwNTkiIHk9IjY4MC41OTM4Ij5ib29sIG9wZXJhdG9yPT0ob3RoZXIgOiBSZWdPcGVyYW5kKSA6IGJvb2w8L3RleHQ+PGVsbGlwc2UgY3g9IjEwNTAiIGN5PSI2OTEuMzM1OSIgZmlsbD0iIzg0QkU4NCIgcng9IjMiIHJ5PSIzIiBzdHlsZT0ic3Ryb2tlOiMwMzgwNDg7c3Ryb2tlLXdpZHRoOjEuMDsiLz48dGV4dCBmaWxsPSIjMDAwMDAwIiBmb250LWZhbWlseT0ic2Fucy1zZXJpZiIgZm9udC1zaXplPSIxNCIgbGVuZ3RoQWRqdXN0PSJzcGFjaW5nIiB0ZXh0TGVuZ3RoPSIyODkiIHg9IjEwNTkiIHk9IjY5NS41NzgxIj5ib29sIG9wZXJhdG9yJmx0OyhvdGhlciA6IFJlZ09wZXJhbmQpIDogYm9vbDwvdGV4dD48ZWxsaXBzZSBjeD0iMTA1MCIgY3k9IjcwNi4zMjAzIiBmaWxsPSIjODRCRTg0IiByeD0iMyIgcnk9IjMiIHN0eWxlPSJzdHJva2U6IzAzODA0ODtzdHJva2Utd2lkdGg6MS4wOyIvPjx0ZXh0IGZpbGw9IiMwMDAwMDAiIGZvbnQtZmFtaWx5PSJzYW5zLXNlcmlmIiBmb250LXNpemU9IjE0IiBsZW5ndGhBZGp1c3Q9InNwYWNpbmciIHRleHRMZW5ndGg9IjM4MCIgeD0iMTA1OSIgeT0iNzEwLjU2MjUiPldpbmdDR1JlZ09wZXJhbmQqIGdldFJlZ09wZXJhbmRQKCkgOiBXaW5nQ0dSZWdPcGVyYW5kKjwvdGV4dD48ZWxsaXBzZSBjeD0iMTA1MCIgY3k9IjcyMS4zMDQ3IiBmaWxsPSIjODRCRTg0IiByeD0iMyIgcnk9IjMiIHN0eWxlPSJzdHJva2U6IzAzODA0ODtzdHJva2Utd2lkdGg6MS4wOyIvPjx0ZXh0IGZpbGw9IiMwMDAwMDAiIGZvbnQtZmFtaWx5PSJzYW5zLXNlcmlmIiBmb250LXNpemU9IjE0IiBsZW5ndGhBZGp1c3Q9InNwYWNpbmciIHRleHRMZW5ndGg9IjM3MyIgeD0iMTA1OSIgeT0iNzI1LjU0NjkiPmF1dG8mYW1wOyBnZXRMb2FkSW5zdHJzKCkgOiBzdGQ6OnZlY3RvciZsdDtXaW5nQ0dJbnN0ckluZm8qJmd0OzwvdGV4dD48ZWxsaXBzZSBjeD0iMTA1MCIgY3k9IjczNi4yODkxIiBmaWxsPSIjODRCRTg0IiByeD0iMyIgcnk9IjMiIHN0eWxlPSJzdHJva2U6IzAzODA0ODtzdHJva2Utd2lkdGg6MS4wOyIvPjx0ZXh0IGZpbGw9IiMwMDAwMDAiIGZvbnQtZmFtaWx5PSJzYW5zLXNlcmlmIiBmb250LXNpemU9IjE0IiBsZW5ndGhBZGp1c3Q9InNwYWNpbmciIHRleHRMZW5ndGg9IjM4MCIgeD0iMTA1OSIgeT0iNzQwLjUzMTMiPmF1dG8mYW1wOyBnZXRTdG9yZUluc3RycygpIDogc3RkOjp2ZWN0b3ImbHQ7V2luZ0NHSW5zdHJJbmZvKiZndDs8L3RleHQ+PGVsbGlwc2UgY3g9IjEwNTAiIGN5PSI3NTEuMjczNCIgZmlsbD0iIzg0QkU4NCIgcng9IjMiIHJ5PSIzIiBzdHlsZT0ic3Ryb2tlOiMwMzgwNDg7c3Ryb2tlLXdpZHRoOjEuMDsiLz48dGV4dCBmaWxsPSIjMDAwMDAwIiBmb250LWZhbWlseT0ic2Fucy1zZXJpZiIgZm9udC1zaXplPSIxNCIgbGVuZ3RoQWRqdXN0PSJzcGFjaW5nIiB0ZXh0TGVuZ3RoPSIxMzUiIHg9IjEwNTkiIHk9Ijc1NS41MTU2Ij5ib29sIGlzR1BSKCkgOiBib29sPC90ZXh0PjxlbGxpcHNlIGN4PSIxMDUwIiBjeT0iNzY2LjI1NzgiIGZpbGw9IiM4NEJFODQiIHJ4PSIzIiByeT0iMyIgc3R5bGU9InN0cm9rZTojMDM4MDQ4O3N0cm9rZS13aWR0aDoxLjA7Ii8+PHRleHQgZmlsbD0iIzAwMDAwMCIgZm9udC1mYW1pbHk9InNhbnMtc2VyaWYiIGZvbnQtc2l6ZT0iMTQiIGxlbmd0aEFkanVzdD0ic3BhY2luZyIgdGV4dExlbmd0aD0iMTU2IiB4PSIxMDU5IiB5PSI3NzAuNSI+Ym9vbCBpc1ZlY3RvcigpIDogYm9vbDwvdGV4dD48ZWxsaXBzZSBjeD0iMTA1MCIgY3k9Ijc4MS4yNDIyIiBmaWxsPSIjODRCRTg0IiByeD0iMyIgcnk9IjMiIHN0eWxlPSJzdHJva2U6IzAzODA0ODtzdHJva2Utd2lkdGg6MS4wOyIvPjx0ZXh0IGZpbGw9IiMwMDAwMDAiIGZvbnQtZmFtaWx5PSJzYW5zLXNlcmlmIiBmb250LXNpemU9IjE0IiBsZW5ndGhBZGp1c3Q9InNwYWNpbmciIHRleHRMZW5ndGg9IjE0MiIgeD0iMTA1OSIgeT0iNzg1LjQ4NDQiPnZvaWQgZ2VuVmVjdG9ySW5mbygpPC90ZXh0PjxlbGxpcHNlIGN4PSIxMDUwIiBjeT0iNzk2LjIyNjYiIGZpbGw9IiM4NEJFODQiIHJ4PSIzIiByeT0iMyIgc3R5bGU9InN0cm9rZTojMDM4MDQ4O3N0cm9rZS13aWR0aDoxLjA7Ii8+PHRleHQgZmlsbD0iIzAwMDAwMCIgZm9udC1mYW1pbHk9InNhbnMtc2VyaWYiIGZvbnQtc2l6ZT0iMTQiIGxlbmd0aEFkanVzdD0ic3BhY2luZyIgdGV4dExlbmd0aD0iMjMzIiB4PSIxMDU5IiB5PSI4MDAuNDY4OCI+c3RkOjpzdHJpbmcgZ2V0VlQoKSA6IHN0ZDo6c3RyaW5nPC90ZXh0PjxlbGxpcHNlIGN4PSIxMDUwIiBjeT0iODExLjIxMDkiIGZpbGw9IiM4NEJFODQiIHJ4PSIzIiByeT0iMyIgc3R5bGU9InN0cm9rZTojMDM4MDQ4O3N0cm9rZS13aWR0aDoxLjA7Ii8+PHRleHQgZmlsbD0iIzAwMDAwMCIgZm9udC1mYW1pbHk9InNhbnMtc2VyaWYiIGZvbnQtc2l6ZT0iMTQiIGxlbmd0aEFkanVzdD0ic3BhY2luZyIgdGV4dExlbmd0aD0iMzMyIiB4PSIxMDU5IiB5PSI4MTUuNDUzMSI+c3RkOjpzdHJpbmcgZ2V0UmVnT3BlcmFuZFRETmFtZSgpIDogc3RkOjpzdHJpbmc8L3RleHQ+PC9nPjwhLS1jbGFzcyBXaW5nQ0dJbnN0ckluZm86OkltbU9wZXJhbmQtLT48ZyBpZD0iZWxlbV9XaW5nQ0dJbnN0ckluZm86OkltbU9wZXJhbmQiPjxyZWN0IGNvZGVMaW5lPSI5NyIgZmlsbD0iI0YxRjFGMSIgaGVpZ2h0PSIxOTcuODQzOCIgaWQ9IldpbmdDR0luc3RySW5mbzo6SW1tT3BlcmFuZCIgcng9IjIuNSIgcnk9IjIuNSIgc3R5bGU9InN0cm9rZTojMTgxODE4O3N0cm9rZS13aWR0aDowLjU7IiB3aWR0aD0iNDEyIiB4PSIxNDgwIiB5PSI1NTYiLz48ZWxsaXBzZSBjeD0iMTU4Ni4yNSIgY3k9IjU3MiIgZmlsbD0iI0YxRjFGMSIgcng9IjExIiByeT0iMTEiIHN0eWxlPSJzdHJva2U6IzE4MTgxODtzdHJva2Utd2lkdGg6MS4wOyIvPjxwYXRoIGQ9Ik0xNTgzLjg3NSw1NzYuMjUgTDE1ODMuODc1LDU3OCBMMTU4OC44MTI1LDU3OCBMMTU4OC44MTI1LDU3Ni4yNSBMMTU4My44NzUsNTc2LjI1IFogTTE1ODQuNTYyNSw1NzYuOTM3NSBRMTU4NC41NjI1LDU3Ni45Mzc1IDE1ODQuNTYyNSw1NzQuMTI1IEwxNTgyLjgxMjUsNTc0LjEyNSBRMTU4Mi44MTI1LDU3NC4xMjUgMTU4Mi44MTI1LDU3Ni45Mzc1IEwxNTg0LjU2MjUsNTc2LjkzNzUgWiBNMTU4OC4xMjUsNTc2LjkzNzUgTDE1ODkuODc1LDU3Ni45Mzc1IEwxNTg5Ljg3NSw1NzMuMDYyNSBMMTU4OC4xMjUsNTczLjA2MjUgTDE1ODguMTI1LDU3Ni45Mzc1IFogTTE1ODguODEyNSw1NzMuNzUgTDE1ODguODEyNSw1NzIgTDE1ODYsNTcyIEwxNTg2LDU3My43NSBMMTU4OC44MTI1LDU3My43NSBaIE0xNTg2LjY4NzUsNTcyLjY4NzUgTDE1ODYuNjg3NSw1NzAuOTM3NSBMMTU4My44NzUsNTcwLjkzNzUgTDE1ODMuODc1LDU3Mi42ODc1IEwxNTg2LjY4NzUsNTcyLjY4NzUgWiBNMTU4NC41NjI1LDU3MS42MjUgTDE1ODQuNTYyNSw1NjcuNzUgTDE1ODIuODEyNSw1NjcuNzUgTDE1ODIuODEyNSw1NzEuNjI1IEwxNTg0LjU2MjUsNTcxLjYyNSBaIE0xNTg4LjEyNSw1NjcuNzUgUTE1ODguMTI1LDU2Ny43NSAxNTg4LjEyNSw1NzAuNTYyNSBMMTU4OS44NzUsNTcwLjU2MjUgUTE1ODkuODc1LDU3MC41NjI1IDE1ODkuODc1LDU2Ny43NSBMMTU4OC4xMjUsNTY3Ljc1IFogTTE1ODMuODc1LDU2OC40Mzc1IEwxNTg4LjgxMjUsNTY4LjQzNzUgTDE1ODguODEyNSw1NjYuNjg3NSBMMTU4My44NzUsNTY2LjY4NzUgTDE1ODMuODc1LDU2OC40Mzc1IFogIiBmaWxsPSIjMDAwMDAwIi8+PHRleHQgZmlsbD0iIzAwMDAwMCIgZm9udC1mYW1pbHk9InNhbnMtc2VyaWYiIGZvbnQtc2l6ZT0iMTQiIGxlbmd0aEFkanVzdD0ic3BhY2luZyIgdGV4dExlbmd0aD0iMTkxIiB4PSIxNjA2Ljc1IiB5PSI1NzcuNzQyMiI+V2luZ0NHSW5zdHJJbmZvOjpJbW1PcGVyYW5kPC90ZXh0PjxsaW5lIHN0eWxlPSJzdHJva2U6IzE4MTgxODtzdHJva2Utd2lkdGg6MC41OyIgeDE9IjE0ODEiIHgyPSIxODkxIiB5MT0iNTg4IiB5Mj0iNTg4Ii8+PHJlY3QgZmlsbD0ibm9uZSIgaGVpZ2h0PSI2IiBzdHlsZT0ic3Ryb2tlOiNDODI5MzA7c3Ryb2tlLXdpZHRoOjEuMDsiIHdpZHRoPSI2IiB4PSIxNDg4IiB5PSI1OTcuOTkyMiIvPjx0ZXh0IGZpbGw9IiMwMDAwMDAiIGZvbnQtZmFtaWx5PSJzYW5zLXNlcmlmIiBmb250LXNpemU9IjE0IiBsZW5ndGhBZGp1c3Q9InNwYWNpbmciIHRleHRMZW5ndGg9IjE0OCIgeD0iMTUwMCIgeT0iNjA1LjIzNDQiPnN0ZDo6c3RyaW5nIGxvY2FsTmFtZTwvdGV4dD48cmVjdCBmaWxsPSJub25lIiBoZWlnaHQ9IjYiIHN0eWxlPSJzdHJva2U6I0M4MjkzMDtzdHJva2Utd2lkdGg6MS4wOyIgd2lkdGg9IjYiIHg9IjE0ODgiIHk9IjYxMi45NzY2Ii8+PHRleHQgZmlsbD0iIzAwMDAwMCIgZm9udC1mYW1pbHk9InNhbnMtc2VyaWYiIGZvbnQtc2l6ZT0iMTQiIGxlbmd0aEFkanVzdD0ic3BhY2luZyIgdGV4dExlbmd0aD0iMTg1IiB4PSIxNTAwIiB5PSI2MjAuMjE4OCI+c3RkOjpzdHJpbmcgaW1tT3BlcmFuZE5hbWU8L3RleHQ+PHJlY3QgZmlsbD0ibm9uZSIgaGVpZ2h0PSI2IiBzdHlsZT0ic3Ryb2tlOiNDODI5MzA7c3Ryb2tlLXdpZHRoOjEuMDsiIHdpZHRoPSI2IiB4PSIxNDg4IiB5PSI2MjcuOTYwOSIvPjx0ZXh0IGZpbGw9IiMwMDAwMDAiIGZvbnQtZmFtaWx5PSJzYW5zLXNlcmlmIiBmb250LXNpemU9IjE0IiBsZW5ndGhBZGp1c3Q9InNwYWNpbmciIHRleHRMZW5ndGg9Ijc3IiB4PSIxNTAwIiB5PSI2MzUuMjAzMSI+Ym9vbCBpc1NpZ248L3RleHQ+PHJlY3QgZmlsbD0ibm9uZSIgaGVpZ2h0PSI2IiBzdHlsZT0ic3Ryb2tlOiNDODI5MzA7c3Ryb2tlLXdpZHRoOjEuMDsiIHdpZHRoPSI2IiB4PSIxNDg4IiB5PSI2NDIuOTQ1MyIvPjx0ZXh0IGZpbGw9IiMwMDAwMDAiIGZvbnQtZmFtaWx5PSJzYW5zLXNlcmlmIiBmb250LXNpemU9IjE0IiBsZW5ndGhBZGp1c3Q9InNwYWNpbmciIHRleHRMZW5ndGg9IjE0MCIgeD0iMTUwMCIgeT0iNjUwLjE4NzUiPldpbmdDR1R5cGUgdmFsdWVUeXBlPC90ZXh0PjxsaW5lIHN0eWxlPSJzdHJva2U6IzE4MTgxODtzdHJva2Utd2lkdGg6MC41OyIgeDE9IjE0ODEiIHgyPSIxODkxIiB5MT0iNjU1LjkzNzUiIHkyPSI2NTUuOTM3NSIvPjxlbGxpcHNlIGN4PSIxNDkxIiBjeT0iNjgzLjkxNDEiIGZpbGw9IiM4NEJFODQiIHJ4PSIzIiByeT0iMyIgc3R5bGU9InN0cm9rZTojMDM4MDQ4O3N0cm9rZS13aWR0aDoxLjA7Ii8+PHRleHQgZmlsbD0iIzAwMDAwMCIgZm9udC1mYW1pbHk9InNhbnMtc2VyaWYiIGZvbnQtc2l6ZT0iMTQiIGxlbmd0aEFkanVzdD0ic3BhY2luZyIgdGV4dExlbmd0aD0iMjg2IiB4PSIxNTAwIiB5PSI2NzMuMTcxOSI+SW1tT3BlcmFuZChpbW1PcGVyYW5kTmFtZSA6IHN0ZDo6c3RyaW5nLDwvdGV4dD48dGV4dCBmaWxsPSIjMDAwMDAwIiBmb250LWZhbWlseT0ic2Fucy1zZXJpZiIgZm9udC1zaXplPSIxNCIgbGVuZ3RoQWRqdXN0PSJzcGFjaW5nIiB0ZXh0TGVuZ3RoPSIxNjkiIHg9IjE1MDAiIHk9IjY4OC4xNTYzIj5sb2NhbE5hbWUgOiBzdGQ6OnN0cmluZyw8L3RleHQ+PHRleHQgZmlsbD0iIzAwMDAwMCIgZm9udC1mYW1pbHk9InNhbnMtc2VyaWYiIGZvbnQtc2l6ZT0iMTQiIGxlbmd0aEFkanVzdD0ic3BhY2luZyIgdGV4dExlbmd0aD0iOTkiIHg9IjE1MDAiIHk9IjcwMy4xNDA2Ij5pc1NpZ24gOiBib29sKTwvdGV4dD48ZWxsaXBzZSBjeD0iMTQ5MSIgY3k9IjcxMy44ODI4IiBmaWxsPSIjODRCRTg0IiByeD0iMyIgcnk9IjMiIHN0eWxlPSJzdHJva2U6IzAzODA0ODtzdHJva2Utd2lkdGg6MS4wOyIvPjx0ZXh0IGZpbGw9IiMwMDAwMDAiIGZvbnQtZmFtaWx5PSJzYW5zLXNlcmlmIiBmb250LXNpemU9IjE0IiBsZW5ndGhBZGp1c3Q9InNwYWNpbmciIHRleHRMZW5ndGg9IjM4NiIgeD0iMTUwMCIgeT0iNzE4LjEyNSI+V2luZ0NHSW1tT3BlcmFuZCogZ2V0SW1tT3BlcmFuZFAoKSA6IFdpbmdDR0ltbU9wZXJhbmQqPC90ZXh0PjxlbGxpcHNlIGN4PSIxNDkxIiBjeT0iNzI4Ljg2NzIiIGZpbGw9IiM4NEJFODQiIHJ4PSIzIiByeT0iMyIgc3R5bGU9InN0cm9rZTojMDM4MDQ4O3N0cm9rZS13aWR0aDoxLjA7Ii8+PHRleHQgZmlsbD0iIzAwMDAwMCIgZm9udC1mYW1pbHk9InNhbnMtc2VyaWYiIGZvbnQtc2l6ZT0iMTQiIGxlbmd0aEFkanVzdD0ic3BhY2luZyIgdGV4dExlbmd0aD0iMzM0IiB4PSIxNTAwIiB5PSI3MzMuMTA5NCI+c3RkOjpzdHJpbmcgZ2V0SW1tT3BlcmFuZFRETmFtZSgpIDogc3RkOjpzdHJpbmc8L3RleHQ+PGVsbGlwc2UgY3g9IjE0OTEiIGN5PSI3NDMuODUxNiIgZmlsbD0iIzg0QkU4NCIgcng9IjMiIHJ5PSIzIiBzdHlsZT0ic3Ryb2tlOiMwMzgwNDg7c3Ryb2tlLXdpZHRoOjEuMDsiLz48dGV4dCBmaWxsPSIjMDAwMDAwIiBmb250LWZhbWlseT0ic2Fucy1zZXJpZiIgZm9udC1zaXplPSIxNCIgbGVuZ3RoQWRqdXN0PSJzcGFjaW5nIiB0ZXh0TGVuZ3RoPSIyMzUiIHg9IjE1MDAiIHk9Ijc0OC4wOTM4Ij51bnNpZ25lZCBnZXRJbW1XaWR0aCgpIDogdW5zaWduZWQ8L3RleHQ+PC9nPjwhLS1jbGFzcyBXaW5nQ0dSZWdPcGVyYW5kLS0+PGcgaWQ9ImVsZW1fV2luZ0NHUmVnT3BlcmFuZCI+PHJlY3QgY29kZUxpbmU9IjEwOSIgZmlsbD0iI0YxRjFGMSIgaGVpZ2h0PSI2Mi45ODQ0IiBpZD0iV2luZ0NHUmVnT3BlcmFuZCIgcng9IjIuNSIgcnk9IjIuNSIgc3R5bGU9InN0cm9rZTojMTgxODE4O3N0cm9rZS13aWR0aDowLjU7IiB3aWR0aD0iMTk0IiB4PSI0MTYiIHk9IjEzMzEiLz48ZWxsaXBzZSBjeD0iNDUzLjUiIGN5PSIxMzQ3IiBmaWxsPSIjQUREMUIyIiByeD0iMTEiIHJ5PSIxMSIgc3R5bGU9InN0cm9rZTojMTgxODE4O3N0cm9rZS13aWR0aDoxLjA7Ii8+PHBhdGggZD0iTTQ1MS4xMjUsMTM1MS4yNSBMNDUxLjEyNSwxMzUzIEw0NTYuMDYyNSwxMzUzIEw0NTYuMDYyNSwxMzUxLjI1IEw0NTEuMTI1LDEzNTEuMjUgWiBNNDUxLjgxMjUsMTM1MS45Mzc1IFE0NTEuODEyNSwxMzUxLjkzNzUgNDUxLjgxMjUsMTM0Mi43NSBMNDUwLjA2MjUsMTM0Mi43NSBRNDUwLjA2MjUsMTM0Mi43NSA0NTAuMDYyNSwxMzUxLjkzNzUgTDQ1MS44MTI1LDEzNTEuOTM3NSBaIE00NTUuMzc1LDEzNTEuOTM3NSBMNDU3LjEyNSwxMzUxLjkzNzUgUTQ1Ny4xMjUsMTM1MS45Mzc1IDQ1Ny4xMjUsMTM0OS4xMjUgTDQ1NS4zNzUsMTM0OS4xMjUgUTQ1NS4zNzUsMTM0OS4xMjUgNDU1LjM3NSwxMzUxLjkzNzUgWiBNNDU1LjM3NSwxMzQyLjc1IFE0NTUuMzc1LDEzNDIuNzUgNDU1LjM3NSwxMzQ1LjU2MjUgTDQ1Ny4xMjUsMTM0NS41NjI1IFE0NTcuMTI1LDEzNDUuNTYyNSA0NTcuMTI1LDEzNDIuNzUgTDQ1NS4zNzUsMTM0Mi43NSBaIE00NTEuMTI1LDEzNDMuNDM3NSBMNDU2LjA2MjUsMTM0My40Mzc1IEw0NTYuMDYyNSwxMzQxLjY4NzUgTDQ1MS4xMjUsMTM0MS42ODc1IEw0NTEuMTI1LDEzNDMuNDM3NSBaICIgZmlsbD0iIzAwMDAwMCIvPjx0ZXh0IGZpbGw9IiMwMDAwMDAiIGZvbnQtZmFtaWx5PSJzYW5zLXNlcmlmIiBmb250LXNpemU9IjE0IiBsZW5ndGhBZGp1c3Q9InNwYWNpbmciIHRleHRMZW5ndGg9IjExMiIgeD0iNDcyLjUiIHk9IjEzNTIuNzQyMiI+V2luZ0NHUmVnT3BlcmFuZDwvdGV4dD48bGluZSBzdHlsZT0ic3Ryb2tlOiMxODE4MTg7c3Ryb2tlLXdpZHRoOjAuNTsiIHgxPSI0MTciIHgyPSI2MDkiIHkxPSIxMzYzIiB5Mj0iMTM2MyIvPjxyZWN0IGZpbGw9Im5vbmUiIGhlaWdodD0iNiIgc3R5bGU9InN0cm9rZTojQzgyOTMwO3N0cm9rZS13aWR0aDoxLjA7IiB3aWR0aD0iNiIgeD0iNDI0IiB5PSIxMzcyLjk5MjIiLz48dGV4dCBmaWxsPSIjMDAwMDAwIiBmb250LWZhbWlseT0ic2Fucy1zZXJpZiIgZm9udC1zaXplPSIxNCIgbGVuZ3RoQWRqdXN0PSJzcGFjaW5nIiB0ZXh0TGVuZ3RoPSIxNjgiIHg9IjQzNiIgeT0iMTM4MC4yMzQ0Ij4vLyAmIzIwNTUxOyYjMzU3NzQ7JiMzNjgyNTsmIzM3MzI0OyYjMjYzNzc7JiMxOTk2ODsmIzIwMTIzOyYjMjUxMDQ7JiMyMTU5MjsuLi48L3RleHQ+PGxpbmUgc3R5bGU9InN0cm9rZTojMTgxODE4O3N0cm9rZS13aWR0aDowLjU7IiB4MT0iNDE3IiB4Mj0iNjA5IiB5MT0iMTM4NS45ODQ0IiB5Mj0iMTM4NS45ODQ0Ii8+PC9nPjwhLS1jbGFzcyBXaW5nQ0dUeXBlLS0+PGcgaWQ9ImVsZW1fV2luZ0NHVHlwZSI+PHJlY3QgY29kZUxpbmU9IjExMyIgZmlsbD0iI0YxRjFGMSIgaGVpZ2h0PSI2Mi45ODQ0IiBpZD0iV2luZ0NHVHlwZSIgcng9IjIuNSIgcnk9IjIuNSIgc3R5bGU9InN0cm9rZTojMTgxODE4O3N0cm9rZS13aWR0aDowLjU7IiB3aWR0aD0iMTk0IiB4PSI2NDUiIHk9IjEzMzEiLz48ZWxsaXBzZSBjeD0iNzAyLjc1IiBjeT0iMTM0NyIgZmlsbD0iI0FERDFCMiIgcng9IjExIiByeT0iMTEiIHN0eWxlPSJzdHJva2U6IzE4MTgxODtzdHJva2Utd2lkdGg6MS4wOyIvPjxwYXRoIGQ9Ik03MDAuMzc1LDEzNTEuMjUgTDcwMC4zNzUsMTM1MyBMNzA1LjMxMjUsMTM1MyBMNzA1LjMxMjUsMTM1MS4yNSBMNzAwLjM3NSwxMzUxLjI1IFogTTcwMS4wNjI1LDEzNTEuOTM3NSBRNzAxLjA2MjUsMTM1MS45Mzc1IDcwMS4wNjI1LDEzNDIuNzUgTDY5OS4zMTI1LDEzNDIuNzUgUTY5OS4zMTI1LDEzNDIuNzUgNjk5LjMxMjUsMTM1MS45Mzc1IEw3MDEuMDYyNSwxMzUxLjkzNzUgWiBNNzA0LjYyNSwxMzUxLjkzNzUgTDcwNi4zNzUsMTM1MS45Mzc1IFE3MDYuMzc1LDEzNTEuOTM3NSA3MDYuMzc1LDEzNDkuMTI1IEw3MDQuNjI1LDEzNDkuMTI1IFE3MDQuNjI1LDEzNDkuMTI1IDcwNC42MjUsMTM1MS45Mzc1IFogTTcwNC42MjUsMTM0Mi43NSBRNzA0LjYyNSwxMzQyLjc1IDcwNC42MjUsMTM0NS41NjI1IEw3MDYuMzc1LDEzNDUuNTYyNSBRNzA2LjM3NSwxMzQ1LjU2MjUgNzA2LjM3NSwxMzQyLjc1IEw3MDQuNjI1LDEzNDIuNzUgWiBNNzAwLjM3NSwxMzQzLjQzNzUgTDcwNS4zMTI1LDEzNDMuNDM3NSBMNzA1LjMxMjUsMTM0MS42ODc1IEw3MDAuMzc1LDEzNDEuNjg3NSBMNzAwLjM3NSwxMzQzLjQzNzUgWiAiIGZpbGw9IiMwMDAwMDAiLz48dGV4dCBmaWxsPSIjMDAwMDAwIiBmb250LWZhbWlseT0ic2Fucy1zZXJpZiIgZm9udC1zaXplPSIxNCIgbGVuZ3RoQWRqdXN0PSJzcGFjaW5nIiB0ZXh0TGVuZ3RoPSI3MCIgeD0iNzIzLjI1IiB5PSIxMzUyLjc0MjIiPldpbmdDR1R5cGU8L3RleHQ+PGxpbmUgc3R5bGU9InN0cm9rZTojMTgxODE4O3N0cm9rZS13aWR0aDowLjU7IiB4MT0iNjQ2IiB4Mj0iODM4IiB5MT0iMTM2MyIgeTI9IjEzNjMiLz48cmVjdCBmaWxsPSJub25lIiBoZWlnaHQ9IjYiIHN0eWxlPSJzdHJva2U6I0M4MjkzMDtzdHJva2Utd2lkdGg6MS4wOyIgd2lkdGg9IjYiIHg9IjY1MyIgeT0iMTM3Mi45OTIyIi8+PHRleHQgZmlsbD0iIzAwMDAwMCIgZm9udC1mYW1pbHk9InNhbnMtc2VyaWYiIGZvbnQtc2l6ZT0iMTQiIGxlbmd0aEFkanVzdD0ic3BhY2luZyIgdGV4dExlbmd0aD0iMTY4IiB4PSI2NjUiIHk9IjEzODAuMjM0NCI+Ly8gJiMyMDU1MTsmIzM1Nzc0OyYjMzY4MjU7JiMzNzMyNDsmIzI2Mzc3OyYjMTk5Njg7JiMyMDEyMzsmIzI1MTA0OyYjMjE1OTI7Li4uPC90ZXh0PjxsaW5lIHN0eWxlPSJzdHJva2U6IzE4MTgxODtzdHJva2Utd2lkdGg6MC41OyIgeDE9IjY0NiIgeDI9IjgzOCIgeTE9IjEzODUuOTg0NCIgeTI9IjEzODUuOTg0NCIvPjwvZz48IS0tY2xhc3MgV2luZ0NHSW1tT3BlcmFuZC0tPjxnIGlkPSJlbGVtX1dpbmdDR0ltbU9wZXJhbmQiPjxyZWN0IGNvZGVMaW5lPSIxMTciIGZpbGw9IiNGMUYxRjEiIGhlaWdodD0iNjIuOTg0NCIgaWQ9IldpbmdDR0ltbU9wZXJhbmQiIHJ4PSIyLjUiIHJ5PSIyLjUiIHN0eWxlPSJzdHJva2U6IzE4MTgxODtzdHJva2Utd2lkdGg6MC41OyIgd2lkdGg9IjE5NCIgeD0iODc0IiB5PSIxMzMxIi8+PGVsbGlwc2UgY3g9IjkxMC42IiBjeT0iMTM0NyIgZmlsbD0iI0FERDFCMiIgcng9IjExIiByeT0iMTEiIHN0eWxlPSJzdHJva2U6IzE4MTgxODtzdHJva2Utd2lkdGg6MS4wOyIvPjxwYXRoIGQ9Ik05MDguMjI1LDEzNTEuMjUgTDkwOC4yMjUsMTM1MyBMOTEzLjE2MjUsMTM1MyBMOTEzLjE2MjUsMTM1MS4yNSBMOTA4LjIyNSwxMzUxLjI1IFogTTkwOC45MTI1LDEzNTEuOTM3NSBROTA4LjkxMjUsMTM1MS45Mzc1IDkwOC45MTI1LDEzNDIuNzUgTDkwNy4xNjI1LDEzNDIuNzUgUTkwNy4xNjI1LDEzNDIuNzUgOTA3LjE2MjUsMTM1MS45Mzc1IEw5MDguOTEyNSwxMzUxLjkzNzUgWiBNOTEyLjQ3NSwxMzUxLjkzNzUgTDkxNC4yMjUsMTM1MS45Mzc1IFE5MTQuMjI1LDEzNTEuOTM3NSA5MTQuMjI1LDEzNDkuMTI1IEw5MTIuNDc1LDEzNDkuMTI1IFE5MTIuNDc1LDEzNDkuMTI1IDkxMi40NzUsMTM1MS45Mzc1IFogTTkxMi40NzUsMTM0Mi43NSBROTEyLjQ3NSwxMzQyLjc1IDkxMi40NzUsMTM0NS41NjI1IEw5MTQuMjI1LDEzNDUuNTYyNSBROTE0LjIyNSwxMzQ1LjU2MjUgOTE0LjIyNSwxMzQyLjc1IEw5MTIuNDc1LDEzNDIuNzUgWiBNOTA4LjIyNSwxMzQzLjQzNzUgTDkxMy4xNjI1LDEzNDMuNDM3NSBMOTEzLjE2MjUsMTM0MS42ODc1IEw5MDguMjI1LDEzNDEuNjg3NSBMOTA4LjIyNSwxMzQzLjQzNzUgWiAiIGZpbGw9IiMwMDAwMDAiLz48dGV4dCBmaWxsPSIjMDAwMDAwIiBmb250LWZhbWlseT0ic2Fucy1zZXJpZiIgZm9udC1zaXplPSIxNCIgbGVuZ3RoQWRqdXN0PSJzcGFjaW5nIiB0ZXh0TGVuZ3RoPSIxMTQiIHg9IjkyOS40IiB5PSIxMzUyLjc0MjIiPldpbmdDR0ltbU9wZXJhbmQ8L3RleHQ+PGxpbmUgc3R5bGU9InN0cm9rZTojMTgxODE4O3N0cm9rZS13aWR0aDowLjU7IiB4MT0iODc1IiB4Mj0iMTA2NyIgeTE9IjEzNjMiIHkyPSIxMzYzIi8+PHJlY3QgZmlsbD0ibm9uZSIgaGVpZ2h0PSI2IiBzdHlsZT0ic3Ryb2tlOiNDODI5MzA7c3Ryb2tlLXdpZHRoOjEuMDsiIHdpZHRoPSI2IiB4PSI4ODIiIHk9IjEzNzIuOTkyMiIvPjx0ZXh0IGZpbGw9IiMwMDAwMDAiIGZvbnQtZmFtaWx5PSJzYW5zLXNlcmlmIiBmb250LXNpemU9IjE0IiBsZW5ndGhBZGp1c3Q9InNwYWNpbmciIHRleHRMZW5ndGg9IjE2OCIgeD0iODk0IiB5PSIxMzgwLjIzNDQiPi8vICYjMjA1NTE7JiMzNTc3NDsmIzM2ODI1OyYjMzczMjQ7JiMyNjM3NzsmIzE5OTY4OyYjMjAxMjM7JiMyNTEwNDsmIzIxNTkyOy4uLjwvdGV4dD48bGluZSBzdHlsZT0ic3Ryb2tlOiMxODE4MTg7c3Ryb2tlLXdpZHRoOjAuNTsiIHgxPSI4NzUiIHgyPSIxMDY3IiB5MT0iMTM4NS45ODQ0IiB5Mj0iMTM4NS45ODQ0Ii8+PC9nPjwhLS1TUkM9W2xMWkRSakdtNEJ4cDUzdkxlUEhvTm01SVZ6SW8yQ2ZnVHpMVWtCWTlUc2lmaUxVbktvWWU0Zm0wWUdGU0dGMENkMTQ3VTlhTW1MaW1UaG85YXpYZmlZM3NpZWJkbGw1dV9DcnU3OE9KOFhPdTlFVzlQVkRtWmZ2VkdfMEJPb200RWVBWGRWcVg0cDhUaVhhdENsTXhXR1pCNFpHY3lxU0JhYzhNSlN5TTEzczcwSG5qZUFFS0ljQi1qYllhMWo2dlhRdFAzUXd0bzF1cDFZd1kwSDhvNlduVzVFR1J3MzZCMk9GMVowYXdQbUpjNTZUQ3VnVERsTUZBUzdoTTdBVGdYWDZNYWdKQUtDWlhsUXdKYWhkc3RPMUZJSVh2VWhqU3o1c1pmMVZRaGFNSkhER3FYYWNvckIwMzgySU1ENm13WDlPSkFQU0U4MlFKUjNRWkp4aVdacENRSXlod1dJWEpfdUE2SmpXZmZuNkFvSHA3ejFjZlJBMk1INWNvZzhtVVNudVphYjJmVHRQQ0dmdjZVcHBUby04dXFCRm82T21KZEEwcmtqcHhGSGVKbHVzN004T2Q3WEVwSmlXOXgwOVBvS0JrX3p5dWxaOHNyUXZsMEg1RUxibHIwdXdabG1vdjNqbmdpLWlOSlFsLUZjcGREQnU3XzJUZjdNdXVOV1RoRGl1OUN6WXpaOExSZXM1ZHRtcmlJZUhLYmRqRWdhQXptbmFpc3NUMEpSbkhodGMzR0xheUo1cEFXR3I3Z2d4NUM5NjZSdlVQeGQ5OFJ6bl95S1llY1RmU3llTnVXRS1Gblh0WnhCQzFvcmxUbzJ3UFVQMVRvM2JhN2RodGlKNjYxSnBDdVo0SEZRcE91UHlKb0JoVGhWdFdBV01PZ0FFUWJSV1RqN1R1aWFZOTQySWRQSGxhS0lSUk45MFNmMUZ6NzdaRUx4RzZPd3JFbUpDdWJNM1B2ZVg1ckUxd2pNNnVtZFBuSjBQTlVONjV5TUt4Sy1XXzg0b2hCbUtqdGtpLW5tSWdpX2lKdEpOckhMYTFMUExhanktQUxBRk9TS2IzZ3FMaGNJQWxMU2hra2E4VFFkdVNKWk4yYWJhOGQ0Yy1mZEo3VU9ETjZjLUlvbUZKZExYVjc3SHllZTZuc2kxd25ITzA0VlVYYk1lY0tJZE52eGJSYjlfSlpMOTMzR09TS1V6RGlTNXZ2TmM4TW5HUXdUX0t6NTNBWFJJdGxSMm1JRWFmYmdIdWxyYmhOYXNvTVZBMllqSGFiV1VSdG9HeW1sbXdxSlFoOE1uVG5MNnNwRk1ZY3dPY2Q0VkxlWDFJNXVxc3pfQXF6T1A1Zk9lYmpGWVl6d0NmY1hHN1ZMRU15eUdaQjdYallVbktYaEtUSmFUUVU5dmxFLVhjZU1wakpVbVJRWmFTbjNwNHlPN3A3ZmFNTWN3dkwxVlJHVXNjZ21JZEVDeDhEOVVNVlpVSVpJaUtIRTdFZE8zQjR2OU1SRmFvUTBjd3RHc0pKci1naDlpWVBMdjdMWWNxYjVtTGdqWmVQZnNnWE50VE1VNUFEbEdwTzNZWGtoUExvaXdvbHJxSWhsUERlTFBocERkR3dRWXB6ZHROVU5YeFNncldkNFRVZlBzYkxGa2E4Z2x2dzlvWU5YZkFEZ0EyZjV0b2cybVpiSm1nWG1EUUZCZ0pmSU5GZTU5MGNKNVJ2X1pXS3JYVURvVWJXeG9NS2lqOUtZWHZUaXBKZDJKOTRPdFdLYnRmSkxSU3RNZ1M3NEtKaEZWT0NGamhkQkZPdEtJdFJnN0Jid3otVlZkLXd5Vjd0d19VX2xweXZrQmhZdWpsZHR3LVZkVnZfaUZjdmdSRk5seFh4YnpPU2pBZGt4dHBGbTAwXS0tPjwvZz48L3N2Zz4=;" vertex="1" parent="WIyWlLk6GJQsqaUBKTNV-1">
            <mxGeometry x="-610" y="-120" width="1915" height="1417" as="geometry" />
          </mxCell>
        </UserObject>
      </root>
    </mxGraphModel>
  </diagram>
</mxfile>
